<svg id="Layer_1" data-name="Layer 1" xmlns="http://www.w3.org/2000/svg" viewBox="0 0 187.85 179.26"><defs><style>.cls-1{fill:#e32228;}.cls-2{fill:#fcfcfb;}.cls-3{fill:#fdf9f7;}.cls-4{fill:#fdf8f6;}.cls-5{fill:#fefbfa;}.cls-6{fill:#ed8066;}.cls-7{fill:#088e4b;}.cls-8{fill:#aecbb0;}.cls-9{fill:#e53834;}.cls-10{fill:#e53a35;}.cls-11{fill:#e75043;}.cls-12{fill:#e32928;}.cls-13{fill:#ee856b;}.cls-14{fill:#e84f42;}.cls-15{fill:#e12326;}.cls-16{fill:#f9a41a;}</style></defs><title>square-logo</title><path class="cls-1" d="M92.33,172a82.36,82.36,0,1,1,82.44-81.54A82.38,82.38,0,0,1,92.33,172ZM74.47,20.7a1.19,1.19,0,0,1-.36-.26l-2.63-3.52a6.15,6.15,0,0,0-.64-.61.24.24,0,0,1-.06-.09l-.41-.53a.15.15,0,0,1-.06-.09c0-.6-.4-.72-.91-.57-1.67.48-3.34,1-5,1.44-.58.15-.6.51-.49.93.18.69.4,1.37.63,2a2.53,2.53,0,0,0,.37.57,6.6,6.6,0,0,1,.92,1.44c.75,2.47,1.43,5,2.09,7.45a3.46,3.46,0,0,1,.19,1.72,2.77,2.77,0,0,0,0,1.71,11.94,11.94,0,0,1,.45,1.55c.11.66.41.8,1,.6,1.19-.39,2.38-.8,3.6-1.1,1.42-.35,1.47-.36,1.08-1.7,0-.13,0-.26-.09-.38-.2-.63-.22-1.51-.66-1.83-1-.72-1-1.79-1.39-2.74-.06-.16.12-.42.19-.64a.24.24,0,0,1,.06.09c0,.1,0,.23,0,.29,1.48,1.84,3,3.69,4.47,5.5a.86.86,0,0,0,.74.17c1.46-.39,2.91-.86,4.37-1.25.51-.14.61-.41.5-.84-.36-1.39-.71-2.78-1.1-4.16-.81-2.86-1.66-5.7-2.47-8.56a2.94,2.94,0,0,1,0-.89,11.92,11.92,0,0,0,0-1.33,11.57,11.57,0,0,0-.34-1.41c-.22-.93-.55-1.12-1.46-.85-1.41.4-2.82.78-4.21,1.22-.24.07-.61.43-.58.57a8,8,0,0,0,.9,2.74,9.52,9.52,0,0,1,1.26,3.26ZM46.14,118c1.65,2.22,3.27,4.41,4.9,6.59.28.38.55.2.85,0a2.4,2.4,0,0,1,2.25-.46,2.59,2.59,0,0,1,1.33,4.2c-.36.47-.31.71.12,1.06,1.85,1.48,3.69,3,5.5,4.49.42.35.61.13.88-.15a2.57,2.57,0,0,1,3.36-.55,2.64,2.64,0,0,1,1,3.32c-.16.4-.1.64.28.81,2,.94,4.07,1.86,6.09,2.82.57.27.87.18,1.24-.38a2.47,2.47,0,0,1,2.89-1.09,2.58,2.58,0,0,1,1.84,2.49c-.09.81.23,1,.91,1.16,2.51.41,5,.84,7.53,1.27.43.08.6-.07.71-.47a2.72,2.72,0,0,1,2.65-2.17A2.82,2.82,0,0,1,93,143.19a.88.88,0,0,0,.63.57c2.36-.17,4.71-.4,7.07-.62.4,0,.56-.21.56-.65a2.66,2.66,0,0,1,2.08-2.7,2.57,2.57,0,0,1,2.89,1.53.7.7,0,0,0,.94.4c.59-.19,1.19-.34,1.77-.56l6.18-2.42c.37-.15.66-.32.47-.86a2.57,2.57,0,0,1,4.37-2.52c.4.52.72.45,1.15.13,1.73-1.24,3.46-2.51,5.21-3.73.52-.36.56-.63.2-1.16a2.4,2.4,0,0,1,.54-3.38,2.36,2.36,0,0,1,3.29,0c.42.37.66.35,1-.06,1.4-1.68,2.84-3.33,4.23-5,.75-.92.71-1,0-1.94a2.57,2.57,0,0,1,.18-3.15,2.41,2.41,0,0,1,2.9-.77c.53.24.75.08,1-.37,1-2.19,2-4.38,3.08-6.56a.8.8,0,0,0-.36-1.24,2.62,2.62,0,0,1,1.66-4.8c.62,0,.77-.3.85-.76.4-2.25.78-4.51,1.21-6.76.11-.61-.08-.87-.64-1.09A2.51,2.51,0,0,1,143.8,92a2.69,2.69,0,0,1,2-2.33.9.9,0,0,0,.53-.66c-.18-2.54-.42-5.08-.64-7.62-.05-.51-.28-.68-.8-.7a2.5,2.5,0,0,1-2.37-1.89,2.14,2.14,0,0,1,.79-2.61c1.08-.68,1-1.35.63-2.37-.7-1.71-1.27-3.48-1.89-5.22-.18-.5-.41-.69-1-.42a2,2,0,0,1-1.27.1,2.58,2.58,0,0,1-2-2.1,2.55,2.55,0,0,1,1-2.66c.32-.25.65-.4.31-.9-1.31-1.92-2.58-3.85-3.86-5.78-.24-.35-.45-.4-.83-.15a2.49,2.49,0,0,1-3.41-.35,2.61,2.61,0,0,1,0-3.53c.38-.43.32-.65-.06-1-1.92-1.68-3.82-3.38-5.72-5.08-.32-.29-.54-.25-.83.06a2.55,2.55,0,0,1-3.42.49,2.6,2.6,0,0,1-.92-3.26c.2-.46.14-.7-.3-.93-.8-.42-1.55-.92-2.35-1.32-1.49-.75-3-1.45-4.52-2.17a4.49,4.49,0,0,0-.27.41,2.72,2.72,0,0,1-3.28,1.5,2.77,2.77,0,0,1-1.71-3.17.73.73,0,0,0-.36-.61c-2.48-.57-5-1.1-7.46-1.64-.55-.12-.75.12-.88.66a2.73,2.73,0,0,1-2.66,2,2.65,2.65,0,0,1-2.43-2.4c0-.63-.3-.81-.87-.77-2.67.19-5.34.36-8,.57-.18,0-.41.36-.47.59a9.16,9.16,0,0,1-.2,1.42,2.59,2.59,0,0,1-4.87-.24c-.14-.38-.2-.73-.78-.53-2.52.9-5,1.76-7.58,2.63-.43.14-.43.35-.34.81a3.84,3.84,0,0,1,0,2.13,2.56,2.56,0,0,1-4.56.25c-.2-.3-.33-.61-.77-.31l-6.57,4.46c-.34.23-.35.42-.08.75a2.55,2.55,0,0,1-.15,3.66,2.46,2.46,0,0,1-3.65-.09c-.36-.36-.57-.4-.91,0-1.55,1.83-3.1,3.65-4.7,5.43-.52.59-.5.9.1,1.41a2.62,2.62,0,0,1-3.13,4.16c-.41-.27-.59-.16-.77.21-1.07,2.2-2.13,4.39-3.19,6.59-.21.44-.6,1-.48,1.34s.76.55,1.16.84a2.63,2.63,0,0,1,.86,3.17,2.52,2.52,0,0,1-3.1,1.48c-.67-.22-.76.19-.83.64-.45,2.61-.88,5.23-1.34,7.84-.12.63,0,.91.72,1a2.64,2.64,0,0,1,2.32,2.74A2.67,2.67,0,0,1,39,91c-.48,0-.65.2-.6.66.22,2.38.45,4.76.67,7.15.06.68.26,1.15,1.1.79a1,1,0,0,1,.6,0A2.67,2.67,0,0,1,43,102a2.56,2.56,0,0,1-1.85,2.78c-.48.17-.58.41-.4.87.88,2.25,1.76,4.5,2.61,6.76.2.52.38.68,1,.4a2.51,2.51,0,0,1,3.15.88,2.61,2.61,0,0,1-.21,3.28C47,117.28,46.63,117.52,46.14,118Zm15.22,38.36-.26-.12a9,9,0,0,1,.3-.92c.24-.57.52-1.12.78-1.69.61-1.38.61-1.38,1.91-.71.07,0,.17.05.2.11s.22.41.16.53a12,12,0,0,1-1.67,3,16.18,16.18,0,0,0-1.72,2.7c-.29.45-.16.69.28.9,1.71.83,3.42,1.67,5.12,2.54.38.19.62.16.82-.22.36-.71.73-1.41,1.07-2.13.07-.15,0-.35,0-.52a3.85,3.85,0,0,1,.15-1.19c1-2.24,2.11-4.46,3.19-6.68a5.36,5.36,0,0,1,1.17-2,7.8,7.8,0,0,0,1.94-2.82c.26-.45.12-.7-.3-.91-1.71-.83-3.42-1.69-5.14-2.51-.18-.08-.62,0-.69.11a17.79,17.79,0,0,0-1.16,2.36c-.14.35,0,.83-.1,1.19-.29.74-.7,1.44-1,2.16-.17.36-.36.41-.73.22-1.26-.69-1.27-.68-.65-2,.08-.16.16-.32.26-.48.76-1.2,1.53-2.42,2.3-3.61.34-.52.22-.79-.34-1.06-1.63-.77-3.23-1.59-4.84-2.41-.41-.21-.68-.15-.86.28-.4,1-1.26,1.84-1,3.08a1.41,1.41,0,0,1-.23.8c-1.22,2.53-2.43,5.06-3.68,7.57a8.34,8.34,0,0,1-1,1.32,11.56,11.56,0,0,0-.91,1.08c-.28.43-.41,1-.69,1.37s-.21.65.24.87c1.71.84,3.4,1.72,5.11,2.56.14.07.48.06.53,0C60.43,158.23,60.89,157.27,61.36,156.32ZM139.1,138.4c0-.29,0-.46.08-.57a2.71,2.71,0,0,0-.13-2.86,6.15,6.15,0,0,0-2.56-2.82,3.33,3.33,0,0,0-2-.45,6.52,6.52,0,0,0-2.77,1.05c-2.52,1.92-4.92,4-7.35,6a.8.8,0,0,0,0,.74c.47.65,1,1.24,1.54,1.84.13.15.31.35.48.35.72,0,1.09.5,1.49,1,1.58,1.87,3.17,3.72,4.73,5.6.53.64,1.26,1.2,1.1,2.2,0,.14.14.32.25.46.45.56.92,1.11,1.37,1.68.26.33.51.38.84.1,1.51-1.28,3-2.55,4.52-3.86a.71.71,0,0,0,.11-.66c-.81-.74-1.2-2-2.48-2.18a.86.86,0,0,1-.36-.28l-1.61-1.78c-.36-.39-.19-.62.21-.82.83-.42,1.31-.21,2.18.72,1,1.09,2.11,2.1,3.17,3.14.37.36.68.32,1.07,0,.94-.84,1.9-1.66,2.88-2.45s1.14-.91.22-2a10.64,10.64,0,0,0-1.31-1.29c-.5-.41-1.1-.69-1.58-1.12s-1-1.06-1.48-1.57a1.6,1.6,0,0,0-2-.36A5.47,5.47,0,0,1,139.1,138.4Zm11-13.63a7.4,7.4,0,0,0,0-1.77c-.4-1.57-1.67-2.43-3-3.2a3.44,3.44,0,0,0-4.06.11,7.32,7.32,0,0,0-1.53,1.29c-1.93,2.43-3.82,4.91-5.69,7.4a.75.75,0,0,0,.15.67,20,20,0,0,0,1.72,1.31,3.28,3.28,0,0,0,.81.36,4.82,4.82,0,0,1,1.2.38c1.8,1.28,3.59,2.58,5.35,3.93,1,.79,2.36,1.34,2.71,2.82,0,.14.25.25.39.36.49.37,1,.71,1.49,1.1s.58.3.87-.1c1.16-1.58,2.35-3.13,3.5-4.71.11-.15.08-.61,0-.67-1-.57-1.6-1.74-2.95-1.6a.94.94,0,0,1-.49-.22c-.65-.46-1.29-.93-1.95-1.39-.36-.25-.33-.45,0-.71a1.49,1.49,0,0,1,2-.07c1.39.87,2.82,1.69,4.23,2.54a.61.61,0,0,0,.91-.23c.72-1,1.46-1.93,2.16-2.92,1-1.34.94-1.36-.4-2.36a7.48,7.48,0,0,0-1.32-.75c-.47-.21-1-.29-1.46-.53a16,16,0,0,1-1.52-1.07,2,2,0,0,0-2.74-.08A1.07,1.07,0,0,1,150.14,124.77Zm-60-113.23v.17c-1.5,0-3,0-4.48,0-.23,0-.67.24-.66.33.17,1.14-.5,2.41.54,3.44a1.69,1.69,0,0,1,.34,1.07c.08,2.94.14,5.87.17,8.81a3.13,3.13,0,0,1-.34,1,5.78,5.78,0,0,0-.42,1.16,9.08,9.08,0,0,0,0,1.38c0,1.14,0,1.14,1.18,1.08.33,0,.67,0,1,0,2.9-.16,5.81-.23,8.7-.51a4,4,0,0,0,3.4-3.77c.06-3.24.07-6.48,0-9.72A3.87,3.87,0,0,0,96.67,12a13.34,13.34,0,0,0-3-.47C92.51,11.48,91.3,11.54,90.09,11.54ZM80.94,156.13a12.27,12.27,0,0,0-1.14.91c-1.41,1.47-1.47,3.31-1.18,5.14.4,2.62,1.72,3.66,4.36,3.73s5.46.15,8.19.27c.64,0,.85-.17.86-.82,0-2.06.12-4.12.2-6.18,0-.21.09-.58.2-.61.69-.17.58-.69.6-1.17s0-1.14,0-1.7a1.81,1.81,0,0,0-1.43-1.6c-1.44-.08-2.88-.14-4.32-.16a.78.78,0,0,0-.56.44c-.17.5-.46.56-.9.43A1.8,1.8,0,0,1,85,151.9a1.31,1.31,0,0,1,1-.44,1.1,1.1,0,0,1,.69.76c.11.64.43.78,1,.78,1.36,0,2.73,0,4.09.11.56,0,.73-.19.71-.72a8.79,8.79,0,0,1,0-1.92,1.24,1.24,0,0,0-.84-1.45,15.21,15.21,0,0,0-4.94-1.41,10,10,0,0,0-5.42.7C78.51,149.54,77.9,155,80.94,156.13Zm-32.73-4.86A7.3,7.3,0,0,0,53,148.41a4.94,4.94,0,0,0,.07-6.35c-.45-.63-1-1.2-1.39-1.86a2.22,2.22,0,0,1-.32-2.39.93.93,0,0,1,1.25-.45.84.84,0,0,1,.56,1.17,11,11,0,0,1-.6,1c-.09.2-.14.59,0,.69,1.07,1,2.18,1.89,3.31,2.78a.78.78,0,0,0,.74-.07c.77-.83,1.5-1.7,2.19-2.6a1,1,0,0,0,.1-.83,12.76,12.76,0,0,0-5.4-6.35,5.17,5.17,0,0,0-3.36-1c-2.33.29-3.59,2-4.57,3.87-.85,1.65-.23,3.15.7,4.56.54.82,1.13,1.6,1.63,2.45a1.83,1.83,0,0,1-.47,2.72c-.36.33-.72.5-1.15.13s-.72-.78-.43-1.35a3.13,3.13,0,0,1,.66-.94c.5-.45.33-.74-.11-1.1-1.11-.92-2.2-1.86-3.29-2.8-.32-.27-.55-.27-.83.08-.74.93-1.49,1.84-2.28,2.73a1.28,1.28,0,0,0-.25,1.48,12.21,12.21,0,0,0,6.11,6.48A18.93,18.93,0,0,0,48.21,151.27Zm70-120c0-.79.37-1,1.07-.63.29.16.61.28.9.44s.52.36.77.54c-.2.28-.4.57-.62.84s-.7.78-1,1.21-.37.85-.61,1.25-.13.76.33,1c1.8.82,3.59,1.66,5.4,2.45a.73.73,0,0,0,.68-.2c.39-1.09,1.37-2,.87-3.37a2.36,2.36,0,0,1,.1-1.22c.18-.83.41-1.65.62-2.47q1.23-4.93,2.48-9.88a.76.76,0,0,0-.51-1q-3.06-1.36-6.11-2.79a.67.67,0,0,0-1,.26q-2.67,3.89-5.38,7.73a16.1,16.1,0,0,1-2.42,3.28,9.9,9.9,0,0,0-2.1,3.25.79.79,0,0,0,.28.7q2.28,1.13,4.61,2.15c.18.08.64-.07.68-.2C117.61,33.48,118.64,32.58,118.23,31.28Zm-.44,127.36-.13,0c0,.23-.08.5,0,.68q.6,1.31,1.29,2.55a.58.58,0,0,0,.56.14c1.55-.76,3.09-1.54,4.61-2.36a.72.72,0,0,0,.23-.66c-.63-.94-.8-2.16-1.94-2.79-.74-.42-.64-.82.12-1.21.3-.15.59-.32.9-.44s.61-.16.92-.24c.09.39.19.77.25,1.16,0,.24-.06.52,0,.73a17.27,17.27,0,0,0,1.06,2.05.77.77,0,0,0,.69.27c1.78-.87,3.54-1.79,5.3-2.69.44-.22.64-.5.3-1-.16-.23-.25-.51-.41-.75a11.76,11.76,0,0,0-1.1-1.52c-.51-.56-1.2-1-1.66-1.56-2.54-3.25-5-6.53-7.52-9.8a.59.59,0,0,0-.9-.19c-1.79.95-3.61,1.86-5.43,2.77-1.28.64-1.3.64-.89,2,1.07,3.55,2.15,7.09,3.21,10.63C117.5,157.18,117.62,157.92,117.79,158.64ZM31,134.37c.1,0,.17,0,.2,0,.78-.79,2-1.11,2.44-2.26a3.31,3.31,0,0,1,.71-.85c.21.19.45.37.65.58a5.75,5.75,0,0,1,.56.74,8.29,8.29,0,0,1,.43.84,9.4,9.4,0,0,1-1,.49c-.3.12-.67.07-.93.24a12.63,12.63,0,0,0-1.71,1.3.75.75,0,0,0-.11.73c1.18,1.59,2.39,3.16,3.61,4.72.13.18.5.42.57.37.8-.6,1.93-1.1,2.25-1.91A11.41,11.41,0,0,1,41,136c2.38-2.67,4.79-5.32,7.16-8a.84.84,0,0,0,.1-.76q-2.16-2.92-4.39-5.78a.76.76,0,0,0-.69-.17c-2.85,1.44-5.66,3-8.52,4.35-1.55.76-2.93,2-4.78,2a1.19,1.19,0,0,0-.53.3c-.56.41-1.1.85-1.68,1.24s-.43.55-.13.94c1,1.3,2,2.61,3,3.92A2.64,2.64,0,0,0,31,134.37Zm4.91-13c1.45-.79,2.82-1.49,4.15-2.27a1.24,1.24,0,0,0,.43-1,13.7,13.7,0,0,0-2.8-8c-1.7-2.34-3.83-2.94-6.42-1.65s-5.23,2.77-7.79,4.24a4.42,4.42,0,0,0-2.3,4.18,8.84,8.84,0,0,0,1.12,3.89A12.26,12.26,0,0,0,26,125.52a1.51,1.51,0,0,0,1.64.34c1.46-.77,2.9-1.56,4.33-2.39a.77.77,0,0,0,.19-.73c-.66-1.3-1.39-2.58-2.08-3.87-.25-.48-.53-.53-1-.24a22,22,0,0,1-2,1.06,1,1,0,0,1-1.37-.28c-.37-.51-.1-.93.25-1.3a2.64,2.64,0,0,1,.7-.48l5.5-3a9.22,9.22,0,0,1,2-1,1.45,1.45,0,0,1,1.17.55c.14.17-.09.82-.34,1.07a5,5,0,0,1-1.32.79c-.41.2-.62.39-.29.87s.59,1.08.88,1.62C34.84,119.52,35.34,120.44,35.87,121.39Zm70.21,44.17a41,41,0,0,0,4.12-.94,7.61,7.61,0,0,0,3.65-2.05,1.6,1.6,0,0,0,.44-1.08c-.27-1.62-.65-3.22-1-4.83-.09-.45-.27-.63-.81-.49-1.34.35-2.7.66-4.07.9-.66.11-.82.35-.64,1a11.78,11.78,0,0,1,.46,2.41,1.27,1.27,0,0,1-.67,1c-.25.1-.75-.19-1-.43a1.84,1.84,0,0,1-.39-.91c-.4-1.81-.77-3.62-1.15-5.43-.18-.83-.38-1.65-.56-2.48a1.3,1.3,0,0,1,.84-1.54c.73-.12,1,.4,1.15,1,.09.37.13.76.19,1.14s.29.7.8.59c1.48-.32,3-.62,4.45-1a.75.75,0,0,0,.38-.59c-.19-1.09-.46-2.16-.7-3.24-.3-1.38-.6-1.64-2-1.82l-.69-.1A14.14,14.14,0,0,0,101,147.9,4.59,4.59,0,0,0,98.75,153c.51,2.7,1.1,5.39,1.68,8.09a6.38,6.38,0,0,0,.5,1.53C102,164.79,103.81,165.46,106.08,165.56Zm47.17-54a4.75,4.75,0,0,1-.75.2,7.29,7.29,0,0,1-4-1.15c-.56-.28-.82-.15-1.06.4-.69,1.55-1.41,3.09-2.14,4.62-.22.44-.09.68.33.84a6.66,6.66,0,0,0,3.39.79,42.22,42.22,0,0,1,7.79-.15,6.5,6.5,0,0,1,3.12,1.49,8.21,8.21,0,0,0,1.33,1c.4.19.81.35,1.18.57s.75.24,1-.33c.55-1.3,1.14-2.59,1.78-3.85,1-1.91,1-1.9-1-2.73-.37-.16-.83-.48-1.12-.38a2.48,2.48,0,0,1-1.93-.26,6.2,6.2,0,0,1-2.85-2.14c-1.37-1.92-2.82-3.79-4.26-5.66a2.65,2.65,0,0,0-.81-.68c-.52-.29-1.08-.5-1.61-.76s-.69-.13-.89.35c-.54,1.27-1.12,2.54-1.71,3.79-.42.88-.37.89.5,1.36,1.12.61,2.17,1.35,3.24,2A3.54,3.54,0,0,1,153.25,111.52Zm-40-97.17c-.22-.17-.42-.45-.67-.52-1.9-.46-3.81-.88-5.71-1.32-.48-.11-.73.06-.81.54s-.28,1.26-.39,1.89a3.18,3.18,0,0,0,0,.81,4.93,4.93,0,0,1,.11,1.19c-.48,2.45-1,4.89-1.54,7.32a4.39,4.39,0,0,1-.64,2c-.91.95-.89,2.16-1.32,3.23-.17.41-.07.73.38.84,2,.45,4,.91,6,1.32a.76.76,0,0,0,.63-.34c.17-1.11.93-2.16.32-3.36a1.3,1.3,0,0,1,0-.76c.63-2.86,1.26-5.72,1.91-8.58a2.16,2.16,0,0,1,.51-1.1C113,16.7,112.82,15.51,113.28,14.35Zm-55,9.58.18-.06a2.2,2.2,0,0,0-.05-.69c-.38-.75-.77-1.51-1.22-2.22-.08-.12-.52-.14-.7,0-1.45.78-2.87,1.62-4.31,2.41s-1.42.76-.71,2.12a9.31,9.31,0,0,0,1,1.46,14.83,14.83,0,0,1,1.27,1.37,42.75,42.75,0,0,1,2.38,4.15c.77,1.61,2.27,2.94,2,5a.39.39,0,0,0,0,.14c.39.7.75,1.41,1.19,2.07a.78.78,0,0,0,.73.24c1.8-1,3.57-2,5.33-3,.16-.09.37-.43.32-.52-.52-.87-1.07-1.74-1.67-2.56-.35-.48-.91-.83-1.21-1.34-1.26-2.15-2.48-4.33-3.68-6.52C58.82,25.3,58.58,24.6,58.28,23.93Z"/><path class="cls-2" d="M46.14,118c.49-.44.83-.68,1.1-1a2.61,2.61,0,0,0,.21-3.28,2.51,2.51,0,0,0-3.15-.88c-.58.28-.76.12-1-.4-.85-2.26-1.73-4.51-2.61-6.76-.18-.46-.08-.7.4-.87A2.56,2.56,0,0,0,43,102a2.67,2.67,0,0,0-2.19-2.38,1,1,0,0,0-.6,0c-.84.36-1-.11-1.1-.79-.22-2.39-.45-4.77-.67-7.15-.05-.46.12-.63.6-.66a2.67,2.67,0,0,0,2.57-2.51,2.64,2.64,0,0,0-2.32-2.74c-.72-.09-.84-.37-.72-1,.46-2.61.89-5.23,1.34-7.84.07-.45.16-.86.83-.64a2.52,2.52,0,0,0,3.1-1.48A2.63,2.63,0,0,0,43,71.61c-.4-.29-1.05-.48-1.16-.84s.27-.9.48-1.34c1.06-2.2,2.12-4.39,3.19-6.59.18-.37.36-.48.77-.21a2.62,2.62,0,0,0,3.13-4.16c-.6-.51-.62-.82-.1-1.41,1.6-1.78,3.15-3.6,4.7-5.43.34-.4.55-.36.91,0a2.46,2.46,0,0,0,3.65.09,2.55,2.55,0,0,0,.15-3.66c-.27-.33-.26-.52.08-.75l6.57-4.46c.44-.3.57,0,.77.31a2.56,2.56,0,0,0,4.56-.25,3.84,3.84,0,0,0,0-2.13c-.09-.46-.09-.67.34-.81,2.53-.87,5.06-1.73,7.58-2.63.58-.2.64.15.78.53a2.59,2.59,0,0,0,4.87.24,9.16,9.16,0,0,0,.2-1.42c.06-.23.29-.58.47-.59,2.67-.21,5.34-.38,8-.57.57,0,.84.14.87.77a2.65,2.65,0,0,0,2.43,2.4,2.73,2.73,0,0,0,2.66-2c.13-.54.33-.78.88-.66,2.49.54,5,1.07,7.46,1.64a.73.73,0,0,1,.36.61,2.77,2.77,0,0,0,1.71,3.17,2.72,2.72,0,0,0,3.28-1.5,4.49,4.49,0,0,1,.27-.41c1.51.72,3,1.42,4.52,2.17.8.4,1.55.9,2.35,1.32.44.23.5.47.3.93a2.6,2.6,0,0,0,.92,3.26,2.55,2.55,0,0,0,3.42-.49c.29-.31.51-.35.83-.06,1.9,1.7,3.8,3.4,5.72,5.08.38.34.44.56.06,1a2.61,2.61,0,0,0,0,3.53,2.49,2.49,0,0,0,3.41.35c.38-.25.59-.2.83.15,1.28,1.93,2.55,3.86,3.86,5.78.34.5,0,.65-.31.9a2.55,2.55,0,0,0-1,2.66,2.58,2.58,0,0,0,2,2.1,2,2,0,0,0,1.27-.1c.57-.27.8-.08,1,.42.62,1.74,1.19,3.51,1.89,5.22.42,1,.45,1.69-.63,2.37a2.14,2.14,0,0,0-.79,2.61,2.5,2.5,0,0,0,2.37,1.89c.52,0,.75.19.8.7.22,2.54.46,5.08.64,7.62a.9.9,0,0,1-.53.66,2.69,2.69,0,0,0-2,2.33,2.51,2.51,0,0,0,1.62,2.7c.56.22.75.48.64,1.09-.43,2.25-.81,4.51-1.21,6.76-.08.46-.23.8-.85.76a2.62,2.62,0,0,0-1.66,4.8.8.8,0,0,1,.36,1.24c-1,2.18-2.06,4.37-3.08,6.56-.21.45-.43.61-1,.37a2.41,2.41,0,0,0-2.9.77,2.57,2.57,0,0,0-.18,3.15c.71,1,.75,1,0,1.94-1.39,1.69-2.83,3.34-4.23,5-.34.41-.58.43-1,.06a2.36,2.36,0,0,0-3.29,0,2.4,2.4,0,0,0-.54,3.38c.36.53.32.8-.2,1.16-1.75,1.22-3.48,2.49-5.21,3.73-.43.32-.75.39-1.15-.13a2.57,2.57,0,0,0-4.37,2.52c.19.54-.1.71-.47.86l-6.18,2.42c-.58.22-1.18.37-1.77.56a.7.7,0,0,1-.94-.4,2.57,2.57,0,0,0-2.89-1.53,2.66,2.66,0,0,0-2.08,2.7c0,.44-.16.62-.56.65-2.36.22-4.71.45-7.07.62a.88.88,0,0,1-.63-.57,2.82,2.82,0,0,0-2.55-2.31,2.72,2.72,0,0,0-2.65,2.17c-.11.4-.28.55-.71.47-2.51-.43-5-.86-7.53-1.27-.68-.11-1-.35-.91-1.16a2.58,2.58,0,0,0-1.84-2.49,2.47,2.47,0,0,0-2.89,1.09c-.37.56-.67.65-1.24.38-2-1-4.06-1.88-6.09-2.82-.38-.17-.44-.41-.28-.81a2.64,2.64,0,0,0-1-3.32,2.57,2.57,0,0,0-3.36.55c-.27.28-.46.5-.88.15-1.81-1.52-3.65-3-5.5-4.49-.43-.35-.48-.59-.12-1.06a2.59,2.59,0,0,0-1.33-4.2,2.4,2.4,0,0,0-2.25.46c-.3.22-.57.4-.85,0C49.41,122.37,47.79,120.18,46.14,118Zm73.21-66.38-.16.13a.2.2,0,0,1-.09.07l-.51.43-.25.2-.33.31-.67.72-.86,1a.16.16,0,0,1-.06.08l-.47.62h0A5.37,5.37,0,0,0,114.3,58a.15.15,0,0,1-.06.09l-.71,1.15a.19.19,0,0,1,0,.09l-.26.38a.16.16,0,0,1-.06.08l-1.54,1.55-.26.2-.36.27a.18.18,0,0,1-.1,0c-1.31.37-2.65.66-3.93,1.13a13.69,13.69,0,0,0-2.16,1.29.22.22,0,0,1-.09.07l-.68.56-.76.78-.43.52a.14.14,0,0,1-.07.08,11.27,11.27,0,0,0-2.41,4.24.15.15,0,0,1-.06.09l-1,1.31-.6.61c-.08,0-.17,0-.23,0-1.09.57-1.09.57-1.72-.56a.57.57,0,0,1-.08-.13,16.91,16.91,0,0,1-1.75-6.49,13.53,13.53,0,0,1,.75-4.52.31.31,0,0,1,0-.1A6.61,6.61,0,0,0,96.45,59c.29-2.58-.59-4.95-1.5-7.31a19.28,19.28,0,0,1-1.1-3.43,19.66,19.66,0,0,1-.34-6.36c0-.19-.15-.41-.24-.63l-.51.44h0c-.19.15-.47.26-.57.46A16.52,16.52,0,0,0,90.94,45a24.54,24.54,0,0,0-.23,8.88c.18,1.7.72,3.38.35,5.1-.24,1.15-.63,2.26-1,3.38l-.15.18-.31.45a.16.16,0,0,1-.07.07c-.15.16-.39.29-.44.47a17.13,17.13,0,0,0-.82,3.32A17.11,17.11,0,0,0,89.51,74c0,.13-.11.33-.17.5l-.28-.19-.36-.27a.15.15,0,0,1-.09-.06l-1-.72-.27-.19-.52-.41-.41-.35-.52-.43-.26-.19-.51-.43-.88-.81-.91-.94-.21-.25-.58-.67-.2-.25L82.11,68a.21.21,0,0,1-.06-.1,10.31,10.31,0,0,1-.86-2c-.22-1-.2-2-.36-3.06a4.45,4.45,0,0,0-1.35-2.89.31.31,0,0,1,0-.1l-.26-.36a.14.14,0,0,1,0-.09L78.86,59l-.2-.25-.72-.83-.83-.87L76,56.11l-.57-.5-1.54-1.55-.21-.25L73,53a.15.15,0,0,1-.06-.09l-.42-.52a.15.15,0,0,1-.06-.09c0-.07,0-.17,0-.22a12.87,12.87,0,0,1-2.17-4.29.53.53,0,0,0-.44-.31.66.66,0,0,0-.43.39,7.45,7.45,0,0,0,.2,5.18,19.74,19.74,0,0,0,1,2,.11.11,0,0,1,0,.09,4.1,4.1,0,0,0,1.49,2.38h0l.77.94a.15.15,0,0,1,.06.09l1.8,1.92.21.24a2.88,2.88,0,0,0,.2.65,7.56,7.56,0,0,1,.8,4.86A10.47,10.47,0,0,0,77.23,73a22.71,22.71,0,0,0,1.59,2.1l.21.25,2,2a.15.15,0,0,1,.09.06l0,.64a.14.14,0,0,1-.1,0l-2.61-.66a.18.18,0,0,1-.09-.06L78,77.14l-2-1.89c0-.1,0-.24-.11-.27a22.17,22.17,0,0,0-3.63-1.78,4.41,4.41,0,0,0-2.87.13,5.71,5.71,0,0,1-4.49.12,34.66,34.66,0,0,1-4.79-2.23c-1.79-.94-3.28-2.39-5.36-2.81a9.32,9.32,0,0,0-4.86.2c-.19.06-.32.32-.47.49a2.52,2.52,0,0,0,.62.25,14.15,14.15,0,0,1,2,.27,17.48,17.48,0,0,1,2.06,1l1.68,1.7.44.65.19.26.57.68a.18.18,0,0,1,.07.08l1.33,1.46.15.16.82.74a.16.16,0,0,1,.09.07l.86.68a.13.13,0,0,1,.09.05l1.46.87a.18.18,0,0,1,.09.06c.07.1.12.23.21.28a9,9,0,0,0,4.5,1.1,8.4,8.4,0,0,1,5.65,2c.5.42,1,.81,1.54,1.21l.37.41,1.19,1.59h0a2.63,2.63,0,0,1-.34.76c-.37.39-.8.73-1.21,1.09a.14.14,0,0,1-.09,0,1.9,1.9,0,0,0-.36.08c-1.18.52-2.32,1.13-3.53,1.55a7.66,7.66,0,0,1-6.26-.36,7.92,7.92,0,0,0-5.18-.69A11.69,11.69,0,0,0,53,89.92l-.21.12c-.73.25-1.46.53-2.21.75-1.52.44-3,.94-4.65.29a2.33,2.33,0,0,0-.65,0c.15.63.39,1,1,1a.18.18,0,0,1,.09.07l.37.23a.21.21,0,0,1,.1.06l.51.27a.14.14,0,0,1,.1.05,3,3,0,0,0,.66.44,12.73,12.73,0,0,0,8.65-.29c2.38-.85,4.68-1.29,7.08-.23a1,1,0,0,0,.38,0,.15.15,0,0,1,.09.06,4.84,4.84,0,0,0,3.37,1.61,10.38,10.38,0,0,0,6.17-.89,2.1,2.1,0,0,1,1.48-.2,2.26,2.26,0,0,1,1,1.09c.26.51-.33.58-.62.79a4.17,4.17,0,0,0-.47.47l-.26.21L73.88,97l-.14.17-.33.45h0l-.87,1.14-.52.56-.15.15-.3.32-.31.31-.16.15-.16.14-.25.21a2,2,0,0,0-.47.21A4.84,4.84,0,0,1,66.59,102a3.15,3.15,0,0,0-1.3,0,23.62,23.62,0,0,0-2.24,1,.15.15,0,0,1-.09.06l-.84.56a.16.16,0,0,1-.08.06l-.84.72-.92.94-1.34,1.76a.11.11,0,0,1,0,.09l-.88,1.3a.19.19,0,0,1,0,.09l-.27.37a.11.11,0,0,1,0,.09l-.73,1-.68.72-.14.13-.25.23-.83.72a.1.1,0,0,1-.09.06c-.07,0-.17,0-.22,0a7.69,7.69,0,0,1-3.9,1.68.42.42,0,0,0-.31.26.42.42,0,0,0,.21.37,4.71,4.71,0,0,0,1.3.38,9.84,9.84,0,0,0,5.3-1.35,19.62,19.62,0,0,0,2.08-1.37.15.15,0,0,1,.09-.06l1.45-1h0l.61-.47h0l2.31-2.17h0c.3-.13.61-.24.9-.39A6,6,0,0,1,69,107a6.16,6.16,0,0,0,3.78-.12,4.57,4.57,0,0,0,2.7-1.77.15.15,0,0,1,.09-.06l.93-.94s0-.07.07-.08L77.62,103h0l.55-.22c.83-.37,1.65-.75,2.49-1.08.13-.05.37.16.55.25h0l-.36.24-.46.47a7.21,7.21,0,0,0-.93,1.15c-1.14,2.13-.85,4.6-1.6,6.83l-.12.21-.39.53-.61.61-2.23,1.33a.21.21,0,0,1-.1.06l-.67.57-.61.63-.28.34-.23.25a3.68,3.68,0,0,0-.61.64,13.24,13.24,0,0,0-1.64,5.63,18.69,18.69,0,0,1-2.21,7.21c-.21.37-.36.77-.53,1.15a.16.16,0,0,1-.07.09,8.32,8.32,0,0,0-.77.68.48.48,0,0,0,0,.41c0,.07.27.14.33.09.79-.52,1.86-.65,2.33-1.62a.15.15,0,0,1,.09-.06l2.16-2.18a.16.16,0,0,1,.07-.09l.46-.62h0a10.25,10.25,0,0,0,1.25-1.57c1-2,1.93-3.93,2.88-5.91a.2.2,0,0,1,0-.09l.87-1.15.61-.61c1-.4,2-.77,2.94-1.21a5,5,0,0,0,1-.75l.26-.19.35-.28.35-.28.23-.23.8-.88.44-.51.19-.26c.23-.29.57-.53.69-.86.57-1.55,1.09-3.12,1.63-4.68.18-.54.39-1.08.59-1.62l.18-.26.62-.63a.15.15,0,0,1,.09-.06l1.21-.31.33.45a9.24,9.24,0,0,1-.76,5.15,9,9,0,0,0-.83,4.7,4.87,4.87,0,0,0,1.19,3.06l.19.27.26.36.2.26.59.66h0a7.71,7.71,0,0,1,.79,4.09c-.13,1.15-.2,2.3-.35,3.44a17.91,17.91,0,0,0,.37,6.28,4.13,4.13,0,0,0,1.34,2.75h0l.63.76.3.32.85.62c0-1-.32-1.75-.38-2.54a16.63,16.63,0,0,1,1.63-8c.36-.8.84-1.55,1.12-2.37a7.49,7.49,0,0,0-.69-6.65,5.19,5.19,0,0,1-.78-1.65,8.68,8.68,0,0,1,.41-4.54c.53-1.39,1.06-2.79,1.58-4.18.19-.49.36-1,.54-1.47l1.12.63h0a3.73,3.73,0,0,0,.6.65c.93.59,1.9,1.11,2.82,1.72,1.25.83,2.47,1.71,3.69,2.57l.21.25a7.91,7.91,0,0,1,.27,1.64,9.47,9.47,0,0,0,1.18,4.87,6.9,6.9,0,0,0,1,1.14s0,0,.07.08l.41.52h0l.15.16.15.15,1,.89h0c0,.08,0,.19,0,.22l3.69,2.1a.18.18,0,0,1,.09.06l.54.39.24.21.52.42.56.52.14.15a.24.24,0,0,1,.06.09l.57.68h0l.12.15a.17.17,0,0,1,.07.1c.3.7.59,1.4.91,2.09.08.16.27.26.41.38.12-.15.32-.28.34-.44A10.41,10.41,0,0,0,119,126a4.82,4.82,0,0,0-1.18-3.13.13.13,0,0,1,0-.09l-.72-1.14a.15.15,0,0,1-.06-.09l-.41-.53a.14.14,0,0,1-.07-.08l-.41-.53L114.73,119l-.92-.78h0l-1.59-1.5h0l-.4-.52a.15.15,0,0,1-.06-.09,6.25,6.25,0,0,1-.37-1,7,7,0,0,1-.34-2.32,10.37,10.37,0,0,0-.55-5.07,3.77,3.77,0,0,0-2.63-2.75.15.15,0,0,1-.09-.06,6.06,6.06,0,0,1-.59-.77,13,13,0,0,1-.8-1.79c0-.12.25-.51.42-.52a17.3,17.3,0,0,1,7.43.57c.76.27,1.49.62,2.24.94l.45.46.26.36a.15.15,0,0,1,.06.09l.25.37.35.42.74.82.46.46a25,25,0,0,0,2.22,1.65c1.83,1.1,3.92,1.1,6,1.27a22.13,22.13,0,0,1,7,1.84c.27.12.56.2.85.3a.11.11,0,0,1,.09,0l.38.25a.12.12,0,0,1,.08.06l.61.41c.05-.13.18-.3.14-.38-.43-.75-.89-1.48-1.34-2.22l-.2-.26-.42-.51-.92-.93-.36-.28-.26-.2a13.42,13.42,0,0,0-2.35-1.45c-1.55-.58-3.17-1-4.75-1.45-.81-.26-1.6-.59-2.41-.89l-.09,0-1.14-.73a.13.13,0,0,1-.09,0l-.83-.73-.25-.21-.3-.31-.21-.25-.27-.36a.2.2,0,0,1-.05-.09,15.15,15.15,0,0,0-.7-1.77,9.2,9.2,0,0,0-.94-1.24l-.79-.76c-.41-.84-1.27-1-2-1.21-1-.29-2.16-.39-3.22-.65a14.8,14.8,0,0,1-1.92-.72.15.15,0,0,1-.09-.06l-.26-.53c2-1,4-1.94,6-2.8a10.86,10.86,0,0,1,2.82-.68,7.15,7.15,0,0,1,3.48.79c2.58,1,5.16.46,7.66-.48,1.75-.65,3.42-1.53,5.2-2.08a11.73,11.73,0,0,1,5.4-.44,2.16,2.16,0,0,0,.74-.2l-.48-.8h0l-.42-.5h0l-.51-.43a.15.15,0,0,1-.09-.06,7.39,7.39,0,0,0-2.32-1.12,17.14,17.14,0,0,0-6.79.5,20.6,20.6,0,0,1-4.15,1.07,9,9,0,0,1-5.77-1.53,5.67,5.67,0,0,0-4.32-.91c-1.4.28-2.82.53-4.24.71-.53.06-1.17.21-1.55-.43h0l1-.73.72-.65.78-.8.35-.41.79-.91h0l.76-.79.89-.8.35-.27h0a10.32,10.32,0,0,1,1-.48,12,12,0,0,1,2.3-.72c.89-.13,1.84.07,2.73-.07a5.51,5.51,0,0,0,3.39-1.52l.26-.18.37-.27a.12.12,0,0,1,.08-.06l1.25-1.24.22-.24,1.19-1.6a.25.25,0,0,1,.08-.1l.12-.14.3-.34,1.54-1.55.33-.29.24-.22,0,0,0,0,.83-.7h0l.88-.43c1.05-.52,2.1-1,3.14-1.56a4.83,4.83,0,0,0,.68-.51,2.85,2.85,0,0,0-.75-.43,9.76,9.76,0,0,0-7,1.18A12.38,12.38,0,0,0,128,68.89l-1.48,1.46-.51.42-.42.34-.37.27a.16.16,0,0,1-.08.06l-.38.25s0,.06-.08.06a4.28,4.28,0,0,0-.76.29,7.05,7.05,0,0,1-5.73.93,7.48,7.48,0,0,0-2.87-.12,4.48,4.48,0,0,0-3.1,1.6.24.24,0,0,1-.09.06l-.83.74-.24.2a2.35,2.35,0,0,0-.53.25,10.09,10.09,0,0,1-4,2.08,7.54,7.54,0,0,1-1.43,0l.57-1.19.07-.09a2.48,2.48,0,0,0,.52-.61c1-2.24,1.88-4.49,2.81-6.74,0,0,0-.1,0-.15a.11.11,0,0,1,0-.09l.27-.36.91-.93.16-.15h0c.51-.2,1-.42,1.55-.59a10.84,10.84,0,0,0,2-.65,4.46,4.46,0,0,0,2.3-2.64.11.11,0,0,1,0-.09,4.44,4.44,0,0,0,1.35-3,.13.13,0,0,1,0-.1c.1-.13.24-.24.28-.38.34-1.12.64-2.25,1-3.35.28-.8.65-1.57,1-2.36l.11-.24.1-.15h0l.24-.38a.13.13,0,0,1,.07-.08l.25-.36h0l.77-.93,1-1,.16-.15.25-.21,1-.63-.08-.26a2.5,2.5,0,0,0-.75-.12,6.86,6.86,0,0,0-1.61.44,16.9,16.9,0,0,0-1.77,1.06.19.19,0,0,1-.1,0l-.37.25Z"/><path class="cls-3" d="M61.36,156.32c-.47,1-.93,1.91-1.43,2.85,0,.08-.39.09-.53,0-1.71-.84-3.4-1.72-5.11-2.56-.45-.22-.56-.41-.24-.87s.41-.94.69-1.37a11.56,11.56,0,0,1,.91-1.08,8.34,8.34,0,0,0,1-1.32c1.25-2.51,2.46-5,3.68-7.57a1.41,1.41,0,0,0,.23-.8c-.3-1.24.56-2.08,1-3.08.18-.43.45-.49.86-.28,1.61.82,3.21,1.64,4.84,2.41.56.27.68.54.34,1.06-.77,1.19-1.54,2.41-2.3,3.61-.1.16-.18.32-.26.48-.62,1.28-.61,1.27.65,2,.37.19.56.14.73-.22.34-.72.75-1.42,1-2.16.13-.36,0-.84.1-1.19a17.79,17.79,0,0,1,1.16-2.36c.07-.13.51-.19.69-.11,1.72.82,3.43,1.68,5.14,2.51.42.21.56.46.3.91A7.8,7.8,0,0,1,72.89,150a5.36,5.36,0,0,0-1.17,2c-1.08,2.22-2.15,4.44-3.19,6.68a3.85,3.85,0,0,0-.15,1.19c0,.17,0,.37,0,.52-.34.72-.71,1.42-1.07,2.13-.2.38-.44.41-.82.22-1.7-.87-3.41-1.71-5.12-2.54-.44-.21-.57-.45-.28-.9a16.18,16.18,0,0,1,1.72-2.7,12,12,0,0,0,1.67-3c.06-.12-.09-.36-.16-.53s-.13-.08-.2-.11c-1.3-.67-1.3-.67-1.91.71-.26.57-.54,1.12-.78,1.69a9,9,0,0,0-.3.92Z"/><path class="cls-3" d="M139.1,138.4a5.47,5.47,0,0,0,.62-.24,1.6,1.6,0,0,1,2,.36c.51.51.94,1.09,1.48,1.57s1.08.71,1.58,1.12a10.64,10.64,0,0,1,1.31,1.29c.92,1.1.89,1.1-.22,2s-1.94,1.61-2.88,2.45c-.39.34-.7.38-1.07,0-1.06-1-2.16-2-3.17-3.14-.87-.93-1.35-1.14-2.18-.72-.4.2-.57.43-.21.82l1.61,1.78a.86.86,0,0,0,.36.28c1.28.21,1.67,1.44,2.48,2.18a.71.71,0,0,1-.11.66c-1.49,1.31-3,2.58-4.52,3.86-.33.28-.58.23-.84-.1-.45-.57-.92-1.12-1.37-1.68-.11-.14-.27-.32-.25-.46.16-1-.57-1.56-1.1-2.2-1.56-1.88-3.15-3.73-4.73-5.6-.4-.47-.77-1-1.49-1-.17,0-.35-.2-.48-.35-.53-.6-1.07-1.19-1.54-1.84a.8.8,0,0,1,0-.74c2.43-2,4.83-4.09,7.35-6a6.52,6.52,0,0,1,2.77-1.05,3.33,3.33,0,0,1,2,.45,6.15,6.15,0,0,1,2.56,2.82,2.71,2.71,0,0,1,.13,2.86C139.11,137.94,139.14,138.11,139.1,138.4Zm-6.37-1.3a2.8,2.8,0,0,0-.54.18c-.9.4-1,.66-.32,1.38.48.56.94,1.15,1.46,1.68.14.14.57.24.67.15.5-.45,1-1,.7-1.73A2.51,2.51,0,0,0,132.73,137.1Z"/><path class="cls-3" d="M150.14,124.77a1.07,1.07,0,0,0,.4-.11,2,2,0,0,1,2.74.08,16,16,0,0,0,1.52,1.07c.45.24,1,.32,1.46.53a7.48,7.48,0,0,1,1.32.75c1.34,1,1.35,1,.4,2.36-.7,1-1.44,1.94-2.16,2.92a.61.61,0,0,1-.91.23c-1.41-.85-2.84-1.67-4.23-2.54a1.49,1.49,0,0,0-2,.07c-.33.26-.36.46,0,.71.66.46,1.3.93,1.95,1.39a.94.94,0,0,0,.49.22c1.35-.14,2,1,2.95,1.6.11.06.14.52,0,.67-1.15,1.58-2.34,3.13-3.5,4.71-.29.4-.52.38-.87.1s-1-.73-1.49-1.1c-.14-.11-.35-.22-.39-.36-.35-1.48-1.67-2-2.71-2.82-1.76-1.35-3.55-2.65-5.35-3.93a4.82,4.82,0,0,0-1.2-.38,3.28,3.28,0,0,1-.81-.36,20,20,0,0,1-1.72-1.31.75.75,0,0,1-.15-.67c1.87-2.49,3.76-5,5.69-7.4a7.32,7.32,0,0,1,1.53-1.29,3.44,3.44,0,0,1,4.06-.11c1.28.77,2.55,1.63,3,3.2A7.4,7.4,0,0,1,150.14,124.77Zm-3.95,2.39a2.71,2.71,0,0,0-1.76-2.12c-.72-.26-1.14.23-1.59.65s-.34.58.06.87c.71.5,1.38,1.06,2.09,1.55.14.1.51.11.59,0A7.47,7.47,0,0,0,146.19,127.16Z"/><path class="cls-4" d="M90.09,11.54c1.21,0,2.42-.06,3.62,0a13.34,13.34,0,0,1,3,.47A3.87,3.87,0,0,1,99.47,16c.12,3.24.11,6.48,0,9.72a4,4,0,0,1-3.4,3.77c-2.89.28-5.8.35-8.7.51-.33,0-.67,0-1,0-1.17.06-1.17.06-1.18-1.08a9.08,9.08,0,0,1,0-1.38,5.78,5.78,0,0,1,.42-1.16,3.13,3.13,0,0,0,.34-1c0-2.94-.09-5.87-.17-8.81a1.69,1.69,0,0,0-.34-1.07c-1-1-.37-2.3-.54-3.44,0-.09.43-.33.66-.33,1.49,0,3,0,4.48,0Zm3.77,10h-.17c0-1.52,0-3,0-4.56,0-1.07-.46-1.46-1.53-1.44-.43,0-.62.19-.6.61.09,3.09.18,6.17.26,9.26,0,.47.24.63.69.61a1.33,1.33,0,0,0,1.35-1.39C93.89,23.64,93.86,22.61,93.86,21.58Z"/><path class="cls-4" d="M80.94,156.13c-3-1.17-2.43-6.59.37-7.82a10,10,0,0,1,5.42-.7A15.21,15.21,0,0,1,91.67,149a1.24,1.24,0,0,1,.84,1.45,8.79,8.79,0,0,0,0,1.92c0,.53-.15.75-.71.72C90.41,153,89,153,87.68,153c-.58,0-.9-.14-1-.78a1.1,1.1,0,0,0-.69-.76,1.31,1.31,0,0,0-1,.44,1.8,1.8,0,0,0,.89,2.91c.44.13.73.07.9-.43a.78.78,0,0,1,.56-.44c1.44,0,2.88.08,4.32.16a1.81,1.81,0,0,1,1.43,1.6c0,.56,0,1.13,0,1.7s.09,1-.6,1.17c-.11,0-.19.4-.2.61-.08,2.06-.17,4.12-.2,6.18,0,.65-.22.84-.86.82-2.73-.12-5.46-.2-8.19-.27s-4-1.11-4.36-3.73c-.29-1.83-.23-3.67,1.18-5.14A12.27,12.27,0,0,1,80.94,156.13Zm5.64,4.16a7.64,7.64,0,0,0,.06-1.4,1,1,0,0,0-.43-.67,1.2,1.2,0,0,0-1.63.74,6.89,6.89,0,0,0,0,2.48c.08.59.89.87,1.59.73s.42-.66.45-1A7.92,7.92,0,0,0,86.58,160.29Z"/><path class="cls-5" d="M70.31,15.6a.15.15,0,0,0,.06.09l.41.53a.24.24,0,0,0,.06.09.94.94,0,0,0,.06.29q1.84,2.52,3.7,5a2.58,2.58,0,0,0,.52.38l.18-.11c-.21-.75-.37-1.51-.64-2.24-.57-1.51-1.18-3-1.8-4.51-.17-.43-.11-.69.35-.83l4.21-1.22c.42-.12.7,0,.81.44.15.62.36,1.23.5,1.85a2.56,2.56,0,0,1,0,.73,4.4,4.4,0,0,0-.08,1.34c.53,2.06,1.15,4.1,1.72,6.15s1.14,4.15,1.72,6.23c.13.45.09.74-.42.87-1.34.35-2.67.75-4,1.07a1,1,0,0,1-.78-.31c-.51-.54-1-1.14-1.44-1.71q-1.5-1.8-3-3.58a.24.24,0,0,0-.06-.09l-.62-.83-.28.17c.17.63.32,1.26.53,1.88a4.3,4.3,0,0,0,.7,1.68,3.87,3.87,0,0,1,1.07,2,6.67,6.67,0,0,0,.34,1.18c.18.44.13.64-.36.77-1.36.37-2.71.8-4.06,1.2-.38.11-.68.12-.76-.44a14.8,14.8,0,0,0-.47-1.7c-.07-.29-.25-.69-.13-.86a2,2,0,0,0,0-1.92c-.59-2.05-1.13-4.11-1.76-6.14-.37-1.2-.31-2.61-1.6-3.39a.66.66,0,0,1-.18-.33c-.21-.77-.42-1.53-.64-2.36a7,7,0,0,1,.92-.36c1.36-.39,2.72-.78,4.09-1.11A3.49,3.49,0,0,1,70.31,15.6Z"/><path class="cls-4" d="M48.21,151.27a18.93,18.93,0,0,1-2.37-.82A12.21,12.21,0,0,1,39.73,144a1.28,1.28,0,0,1,.25-1.48c.79-.89,1.54-1.8,2.28-2.73.28-.35.51-.35.83-.08,1.09.94,2.18,1.88,3.29,2.8.44.36.61.65.11,1.1a3.13,3.13,0,0,0-.66.94c-.29.57,0,1,.43,1.35s.79.2,1.15-.13a1.83,1.83,0,0,0,.47-2.72c-.5-.85-1.09-1.63-1.63-2.45-.93-1.41-1.55-2.91-.7-4.56,1-1.9,2.24-3.58,4.57-3.87a5.17,5.17,0,0,1,3.36,1,12.76,12.76,0,0,1,5.4,6.35,1,1,0,0,1-.1.83c-.69.9-1.42,1.77-2.19,2.6a.78.78,0,0,1-.74.07c-1.13-.89-2.24-1.82-3.31-2.78-.11-.1-.06-.49,0-.69a11,11,0,0,0,.6-1,.84.84,0,0,0-.56-1.17.93.93,0,0,0-1.25.45,2.22,2.22,0,0,0,.32,2.39c.41.66.94,1.23,1.39,1.86a4.94,4.94,0,0,1-.07,6.35A7.3,7.3,0,0,1,48.21,151.27Z"/><path class="cls-3" d="M118.23,31.28c.41,1.3-.62,2.2-1,3.29,0,.13-.5.28-.68.2q-2.32-1-4.61-2.15a.79.79,0,0,1-.28-.7,9.9,9.9,0,0,1,2.1-3.25,16.1,16.1,0,0,0,2.42-3.28q2.7-3.86,5.38-7.73a.67.67,0,0,1,1-.26q3,1.43,6.11,2.79a.76.76,0,0,1,.51,1q-1.26,4.93-2.48,9.88c-.21.82-.44,1.64-.62,2.47a2.36,2.36,0,0,0-.1,1.22c.5,1.35-.48,2.28-.87,3.37a.73.73,0,0,1-.68.2c-1.81-.79-3.6-1.63-5.4-2.45-.46-.21-.62-.49-.33-1s.36-.87.61-1.25.65-.8,1-1.21.42-.56.62-.84c-.25-.18-.5-.38-.77-.54s-.61-.28-.9-.44C118.6,30.29,118.24,30.49,118.23,31.28Zm5.16-8-.28-.11c-.16.21-.34.42-.49.65-.62.94-1.24,1.89-1.84,2.85-.12.19-.26.6-.2.64a3.56,3.56,0,0,0,1.14.6c.11,0,.43-.32.5-.55.3-1,.53-1.93.8-2.9C123.13,24,123.26,23.65,123.39,23.25Z"/><path class="cls-3" d="M117.79,158.64c-.17-.72-.29-1.46-.5-2.17-1.06-3.54-2.14-7.08-3.21-10.63-.41-1.37-.39-1.37.89-2,1.82-.91,3.64-1.82,5.43-2.77a.59.59,0,0,1,.9.19c2.49,3.27,5,6.55,7.52,9.8.46.59,1.15,1,1.66,1.56a11.76,11.76,0,0,1,1.1,1.52c.16.24.25.52.41.75.34.47.14.75-.3,1-1.76.9-3.52,1.82-5.3,2.69a.77.77,0,0,1-.69-.27,17.27,17.27,0,0,1-1.06-2.05c-.09-.21,0-.49,0-.73-.06-.39-.16-.77-.25-1.16-.31.08-.62.13-.92.24s-.6.29-.9.44c-.76.39-.86.79-.12,1.21,1.14.63,1.31,1.85,1.94,2.79a.72.72,0,0,1-.23.66c-1.52.82-3.06,1.6-4.61,2.36a.58.58,0,0,1-.56-.14q-.69-1.24-1.29-2.55c-.09-.18,0-.45,0-.68Zm2.08-10.57h0a.9.9,0,0,0-1-.83c.46,1.35.88,2.63,1.33,3.9.36,1,.5,1.06,1.47.52.6-.33.61-.48,0-1a.24.24,0,0,0-.06-.09l-.4-.53-.06-.08-.26-.37-.2-.26-.27-.36a.31.31,0,0,0,0-.1l-.27-.36a.47.47,0,0,0,0-.1Z"/><path class="cls-3" d="M31,134.37a2.64,2.64,0,0,1-.37-.32c-1-1.31-2-2.62-3-3.92-.3-.39-.3-.65.13-.94s1.12-.83,1.68-1.24a1.19,1.19,0,0,1,.53-.3c1.85-.07,3.23-1.26,4.78-2,2.86-1.4,5.67-2.91,8.52-4.35a.76.76,0,0,1,.69.17q2.23,2.85,4.39,5.78a.84.84,0,0,1-.1.76c-2.37,2.68-4.78,5.33-7.16,8a11.41,11.41,0,0,0-2.42,3.33c-.32.81-1.45,1.31-2.25,1.91-.07.05-.44-.19-.57-.37-1.22-1.56-2.43-3.13-3.61-4.72a.75.75,0,0,1,.11-.73,12.63,12.63,0,0,1,1.71-1.3c.26-.17.63-.12.93-.24a9.4,9.4,0,0,0,1-.49,8.29,8.29,0,0,0-.43-.84,5.75,5.75,0,0,0-.56-.74c-.2-.21-.44-.39-.65-.58a3.31,3.31,0,0,0-.71.85c-.46,1.15-1.66,1.47-2.44,2.26C31.13,134.36,31.06,134.35,31,134.37Zm11-7.25-.11-.15a1.46,1.46,0,0,0-.47.1c-1.15.62-2.29,1.25-3.43,1.91-.17.1-.42.4-.38.46a5.38,5.38,0,0,0,.83,1.07c.05.05.41-.12.55-.26.69-.69,1.35-1.41,2-2.11Z"/><path class="cls-4" d="M35.87,121.39c-.53-1-1-1.87-1.54-2.79-.29-.54-.54-1.11-.88-1.62s-.12-.67.29-.87a5,5,0,0,0,1.32-.79c.25-.25.48-.9.34-1.07a1.45,1.45,0,0,0-1.17-.55,9.22,9.22,0,0,0-2,1l-5.5,3a2.64,2.64,0,0,0-.7.48c-.35.37-.62.79-.25,1.3a1,1,0,0,0,1.37.28,22,22,0,0,0,2-1.06c.45-.29.73-.24,1,.24.69,1.29,1.42,2.57,2.08,3.87a.77.77,0,0,1-.19.73c-1.43.83-2.87,1.62-4.33,2.39a1.51,1.51,0,0,1-1.64-.34,12.26,12.26,0,0,1-3.75-4.64A8.84,8.84,0,0,1,21.14,117a4.42,4.42,0,0,1,2.3-4.18c2.56-1.47,5.15-2.92,7.79-4.24s4.72-.69,6.42,1.65a13.7,13.7,0,0,1,2.8,8,1.24,1.24,0,0,1-.43,1C38.69,119.9,37.32,120.6,35.87,121.39Z"/><path class="cls-4" d="M106.08,165.56c-2.27-.1-4.11-.77-5.15-2.9a6.38,6.38,0,0,1-.5-1.53c-.58-2.7-1.17-5.39-1.68-8.09A4.59,4.59,0,0,1,101,147.9a14.14,14.14,0,0,1,7.82-1.28l.69.1c1.42.18,1.72.44,2,1.82.24,1.08.51,2.15.7,3.24a.75.75,0,0,1-.38.59c-1.48.35-3,.65-4.45,1-.51.11-.72-.14-.8-.59s-.1-.77-.19-1.14c-.15-.58-.42-1.1-1.15-1a1.3,1.3,0,0,0-.84,1.54c.18.83.38,1.65.56,2.48.38,1.81.75,3.62,1.15,5.43a1.84,1.84,0,0,0,.39.91c.27.24.77.53,1,.43a1.27,1.27,0,0,0,.67-1,11.78,11.78,0,0,0-.46-2.41c-.18-.63,0-.87.64-1,1.37-.24,2.73-.55,4.07-.9.54-.14.72,0,.81.49.35,1.61.73,3.21,1,4.83a1.6,1.6,0,0,1-.44,1.08,7.61,7.61,0,0,1-3.65,2.05A41,41,0,0,1,106.08,165.56Z"/><path class="cls-4" d="M153.25,111.52a3.54,3.54,0,0,0-.48-.59c-1.07-.69-2.12-1.43-3.24-2-.87-.47-.92-.48-.5-1.36.59-1.25,1.17-2.52,1.71-3.79.2-.48.45-.57.89-.35s1.09.47,1.61.76a2.65,2.65,0,0,1,.81.68c1.44,1.87,2.89,3.74,4.26,5.66a6.2,6.2,0,0,0,2.85,2.14,2.48,2.48,0,0,0,1.93.26c.29-.1.75.22,1.12.38,2,.83,2,.82,1,2.73-.64,1.26-1.23,2.55-1.78,3.85-.24.57-.5.63-1,.33s-.78-.38-1.18-.57a8.21,8.21,0,0,1-1.33-1,6.5,6.5,0,0,0-3.12-1.49,42.22,42.22,0,0,0-7.79.15,6.66,6.66,0,0,1-3.39-.79c-.42-.16-.55-.4-.33-.84.73-1.53,1.45-3.07,2.14-4.62.24-.55.5-.68,1.06-.4a7.29,7.29,0,0,0,4,1.15A4.75,4.75,0,0,0,153.25,111.52Z"/><path class="cls-4" d="M113.28,14.35c-.46,1.16-.31,2.35-1.22,3.19a2.16,2.16,0,0,0-.51,1.1c-.65,2.86-1.28,5.72-1.91,8.58a1.3,1.3,0,0,0,0,.76c.61,1.2-.15,2.25-.32,3.36a.76.76,0,0,1-.63.34c-2-.41-4-.87-6-1.32-.45-.11-.55-.43-.38-.84.43-1.07.41-2.28,1.32-3.23a4.39,4.39,0,0,0,.64-2c.54-2.43,1.06-4.87,1.54-7.32a4.93,4.93,0,0,0-.11-1.19,3.18,3.18,0,0,1,0-.81c.11-.63.27-1.26.39-1.89s.33-.65.81-.54c1.9.44,3.81.86,5.71,1.32C112.86,13.9,113.06,14.18,113.28,14.35Z"/><path class="cls-3" d="M58.28,23.93c.3.67.54,1.37.89,2,1.2,2.19,2.42,4.37,3.68,6.52.3.51.86.86,1.21,1.34.6.82,1.15,1.69,1.67,2.56,0,.09-.16.43-.32.52-1.76,1-3.53,2-5.33,3a.78.78,0,0,1-.73-.24c-.44-.66-.8-1.37-1.19-2.07a.39.39,0,0,1,0-.14c.26-2-1.24-3.36-2-5a42.75,42.75,0,0,0-2.38-4.15,14.83,14.83,0,0,0-1.27-1.37,9.31,9.31,0,0,1-1-1.46c-.71-1.36-.69-1.36.71-2.12S55,21.7,56.49,20.92c.18-.1.62-.08.7,0,.45.71.84,1.47,1.22,2.22a2.2,2.2,0,0,1,.05.69Z"/><path class="cls-6" d="M72.39,26.18q1.52,1.79,3,3.58c.48.57.93,1.17,1.44,1.71a1,1,0,0,0,.78.31c1.35-.32,2.68-.72,4-1.07.51-.13.55-.42.42-.87-.58-2.08-1.14-4.16-1.72-6.23s-1.19-4.09-1.72-6.15a4.4,4.4,0,0,1,.08-1.34,2.56,2.56,0,0,0,0-.73c-.14-.62-.35-1.23-.5-1.85-.11-.47-.39-.56-.81-.44l-4.21,1.22c-.46.14-.52.4-.35.83.62,1.5,1.23,3,1.8,4.51.27.73.43,1.49.64,2.24l-.18.11a2.58,2.58,0,0,1-.52-.38q-1.86-2.5-3.7-5a.94.94,0,0,1-.06-.29,6.15,6.15,0,0,1,.64.61l2.63,3.52a1.19,1.19,0,0,0,.36.26l.14.17-.06-.23a9.52,9.52,0,0,0-1.26-3.26,8,8,0,0,1-.9-2.74c0-.14.34-.5.58-.57,1.39-.44,2.8-.82,4.21-1.22.91-.27,1.24-.08,1.46.85A11.57,11.57,0,0,1,79,15.11a11.92,11.92,0,0,1,0,1.33,2.94,2.94,0,0,0,0,.89c.81,2.86,1.66,5.7,2.47,8.56.39,1.38.74,2.77,1.1,4.16.11.43,0,.7-.5.84-1.46.39-2.91.86-4.37,1.25A.86.86,0,0,1,76.9,32c-1.51-1.81-3-3.66-4.47-5.5C72.38,26.41,72.4,26.28,72.39,26.18Z"/><path class="cls-6" d="M70.31,15.6a3.49,3.49,0,0,0-1.15-.09c-1.37.33-2.73.72-4.09,1.11a7,7,0,0,0-.92.36c.22.83.43,1.59.64,2.36a.66.66,0,0,0,.18.33c1.29.78,1.23,2.19,1.6,3.39.63,2,1.17,4.09,1.76,6.14a2,2,0,0,1,0,1.92c-.12.17.06.57.13.86a14.8,14.8,0,0,1,.47,1.7c.08.56.38.55.76.44,1.35-.4,2.7-.83,4.06-1.2.49-.13.54-.33.36-.77A6.67,6.67,0,0,1,73.73,31a3.87,3.87,0,0,0-1.07-2,4.3,4.3,0,0,1-.7-1.68c-.21-.62-.36-1.25-.53-1.88l.28-.17.62.83c-.07.22-.25.48-.19.64.38.95.4,2,1.39,2.74.44.32.46,1.2.66,1.83,0,.12.06.25.09.38.39,1.34.34,1.35-1.08,1.7-1.22.3-2.41.71-3.6,1.1-.61.2-.91.06-1-.6a11.94,11.94,0,0,0-.45-1.55,2.77,2.77,0,0,1,0-1.71,3.46,3.46,0,0,0-.19-1.72c-.66-2.49-1.34-5-2.09-7.45A6.6,6.6,0,0,0,64.89,20a2.53,2.53,0,0,1-.37-.57c-.23-.67-.45-1.35-.63-2-.11-.42-.09-.78.49-.93,1.68-.45,3.35-1,5-1.44C69.91,14.88,70.27,15,70.31,15.6Z"/><path class="cls-6" d="M70.78,16.22l-.41-.53Z"/><path class="cls-7" d="M89.55,117.75l-.19-.27a1,1,0,0,0,0-.3,8.76,8.76,0,0,1-.08-7.39,13.83,13.83,0,0,0,.78-2.57c.14-.88.42-1.83-.27-2.65l-.33-.45c-.58-.59-.88-.06-1.21.31a.15.15,0,0,0-.09.06l-.62.63-.18.26a8.08,8.08,0,0,0-.78,1.36c-.4,1.19-.68,2.41-1.1,3.59-.27.76-.68,1.47-1,2.21l-.19.26-.44.51-.8.88-.23.23-.35.28-.35.28-.26.19c-1,.43-2.11.84-3.14,1.3a3.51,3.51,0,0,0-.79.66l-.61.61-.87,1.15a.2.2,0,0,0,0,.09,6,6,0,0,0-.57.78c-.64,1.32-1.22,2.66-1.89,3.95-.5,1-1.11,1.84-1.67,2.75h0l-.46.62a.16.16,0,0,0-.07.09l-2.16,2.18a.15.15,0,0,0-.09.06l-2,1.13-.1-.14.2-.55a.16.16,0,0,0,.07-.09,4.4,4.4,0,0,0,.46-.5,17.55,17.55,0,0,0,2.39-6.44c.31-1.72.55-3.45,1-5.13a14.35,14.35,0,0,1,1.17-2.56l.23-.25.28-.34.61-.63.67-.57a.21.21,0,0,0,.1-.06L76.73,112l.61-.61.39-.53.12-.21a6.2,6.2,0,0,0,.68-1.49c.35-2.24.52-4.53,1.85-6.49l.46-.47.36-.24h0l.49-.37c-.19-.09-.38-.26-.55-.25A4.72,4.72,0,0,0,77.62,103h0l-1.07,1.09s0,0-.07.08l-.93.94a.15.15,0,0,0-.09.06,1.81,1.81,0,0,0-.4.18,7,7,0,0,1-6,1.39,5.72,5.72,0,0,0-5.16,1.51h0l-2.31,2.17h0l-.61.47h0l-1.45,1a.15.15,0,0,0-.09.06c-1.51.68-3,1.39-4.53,2a6.09,6.09,0,0,1-3.66.11,2.06,2.06,0,0,1,.67-.32,6.37,6.37,0,0,0,3.06-1.8.1.1,0,0,0,.09-.06l.83-.72.25-.23.14-.13.68-.72.73-1a.11.11,0,0,0,0-.09l.27-.37a.19.19,0,0,0,0-.09c.29-.43.59-.86.88-1.3a.11.11,0,0,0,0-.09l1.34-1.76.92-.94.84-.72a.16.16,0,0,0,.08-.06l.84-.56a.15.15,0,0,0,.09-.06,11.67,11.67,0,0,1,4.65-.77,3.91,3.91,0,0,0,3-1.65l.25-.21.16-.14.16-.15.31-.31.3-.32.15-.15.52-.56.87-1.14h0l.33-.45.14-.17L75,95.84l.26-.21a9.24,9.24,0,0,0,1.25-.54.68.68,0,0,0,.25-.56A1.85,1.85,0,0,0,74.31,93c-.3.09-.59.2-.87.31a9.86,9.86,0,0,1-7.93,0c-.41-.19-.81-.4-1.22-.6a.15.15,0,0,0-.09-.06,2.13,2.13,0,0,0-.33-.28,8.31,8.31,0,0,0-6.22-.15,36.86,36.86,0,0,1-5,1.11,11.5,11.5,0,0,1-5.22-.62.14.14,0,0,0-.1-.05l-.51-.27a.21.21,0,0,0-.1-.06l-.37-.23a.18.18,0,0,0-.09-.07c-.08-.17-.15-.33-.2-.47a22.35,22.35,0,0,0,2.46,0A9.33,9.33,0,0,0,52.78,90l.21-.12c.59-.32,1.18-.6,1.74-1,2.85-1.74,5.79-2.31,8.93-.79a8.3,8.3,0,0,0,1.27.53A9,9,0,0,0,71.3,88a24.18,24.18,0,0,0,2.5-1.45.14.14,0,0,0,.09,0c.59-.37,1.21-.7,1.75-1.12.39-.29.15-.56-.2-.73h0L74.25,83.1l-.37-.41c0-.09,0-.21-.1-.27a9.52,9.52,0,0,0-7-3.3,4.72,4.72,0,0,1-1.3-.09c-1.16-.29-2.3-.65-3.45-1a.18.18,0,0,0-.09-.06l-1.46-.87a.13.13,0,0,0-.09-.05l-.86-.68a.16.16,0,0,0-.09-.07l-.82-.74-.15-.16L57.09,74a.18.18,0,0,0-.07-.08l-.57-.68-.19-.26-.44-.65-1.68-1.7a6.13,6.13,0,0,0-3.44-1.73,1.42,1.42,0,0,1,.7-.3,9.47,9.47,0,0,1,6.85,1.75,25,25,0,0,0,6.63,3.44,5.67,5.67,0,0,0,4.15,0,5.06,5.06,0,0,1,4.12-.06,28.94,28.94,0,0,1,2.92,1.52l2,1.89.35.27a.18.18,0,0,0,.09.06,2,2,0,0,0,2.61.66.14.14,0,0,0,.1,0c.42-.24.41-.46,0-.64a.15.15,0,0,0-.09-.06l-2-2-.21-.25a6.84,6.84,0,0,0-.37-.65,10.65,10.65,0,0,1-2.12-8.21,7.47,7.47,0,0,0,0-2.54,5,5,0,0,0-1.3-3l-.21-.24L73,58.51a.15.15,0,0,0-.06-.09l-.77-.94h0L70.69,55.1a.11.11,0,0,0,0-.09,3.81,3.81,0,0,0-.19-.57,10,10,0,0,1-1-5.44,9.26,9.26,0,0,1,.3-1.15l.26,0c.09.25.18.51.29.76a9.48,9.48,0,0,0,2.18,3.64.15.15,0,0,0,.06.09l.42.52A.15.15,0,0,0,73,53l.71.84.21.25,1.54,1.55.57.5,1.09.94.83.87.72.83.2.25.26.38a.14.14,0,0,0,0,.09l.26.36a.31.31,0,0,0,0,.1.88.88,0,0,0,.07.29,8.14,8.14,0,0,1,1.09,4.47,4.28,4.28,0,0,0,1.41,3.19.21.21,0,0,0,.06.1l.25.37.2.25.58.67.21.25.91.94.88.81.51.43.26.19.52.43.41.35.52.41.27.19,1,.72a.15.15,0,0,0,.09.06l.36.27.28.19.09.31-1.53.51a13.66,13.66,0,0,0-8.83,16.18,13.7,13.7,0,0,0,20.17,8.63A13.25,13.25,0,0,0,106,90.06a13.1,13.1,0,0,0-3.16-10.63,13.59,13.59,0,0,0-8-4.65A16,16,0,0,0,90,74.71c-.25-.84-.52-1.67-.75-2.51-.83-3.06-1.08-6.12.3-9.12a.16.16,0,0,0,.07-.07l.31-.45.15-.18c.11-.09.29-.16.32-.28a15.18,15.18,0,0,0,1-3.74,36.16,36.16,0,0,0-.5-5.58,25.44,25.44,0,0,1,.15-7.08,10,10,0,0,1,1.67-4h0c.15.14.41.27.41.41,0,.92-.11,1.85,0,2.77a19,19,0,0,0,1.31,6.37c1.31,3,2.52,6.1,1.27,9.49a.31.31,0,0,0,0,.1c-.12.15-.33.28-.37.45a18.65,18.65,0,0,0-.64,3.09A16.91,16.91,0,0,0,96.9,73a.58.58,0,0,0,.95.26,9.8,9.8,0,0,0,.84-.75l.6-.61,1-1.31a.15.15,0,0,0,.06-.09l2.41-4.24a.14.14,0,0,0,.07-.08l.43-.52.76-.78.68-.56a.22.22,0,0,0,.09-.07,1.15,1.15,0,0,0,.28-.08,8.33,8.33,0,0,1,3.44-1.24,9.74,9.74,0,0,0,2.37-1.1.18.18,0,0,0,.1,0l.36-.27.26-.2,1.54-1.55a.16.16,0,0,0,.06-.08l.26-.38a.19.19,0,0,0,0-.09c.24-.38.48-.76.71-1.15a.15.15,0,0,0,.06-.09L116,55.14h0l.47-.62a.16.16,0,0,0,.06-.08l.86-1,.67-.72.33-.31.25-.2.51-.43a.2.2,0,0,0,.09-.07l.16-.13h0l.37-.25a.19.19,0,0,0,.1,0,10.19,10.19,0,0,1,3.63-1.16l-.42.67-.25.21-.16.15-1,1-.77.93h0l-.25.36a.13.13,0,0,0-.07.08l-.24.38h0l-.1.15-.11.24c-.13.12-.3.21-.38.36a15.5,15.5,0,0,0-1.89,5.73.13.13,0,0,0,0,.1l-1.35,3a.11.11,0,0,0,0,.09c-.15.17-.31.32-.44.5a5.44,5.44,0,0,1-3.81,2.49,5.1,5.1,0,0,0-1.62.89h0l-.16.15-.91.93-.27.36a.11.11,0,0,0,0,.09,2.5,2.5,0,0,0-.47.57c-.4.89-.77,1.79-1.14,2.69l-1.71,4.24-.07.09-.72.67c-.43.39-.31.67.19.82a2,2,0,0,0,.84.08,8.72,8.72,0,0,0,5-2.73l.24-.2.83-.74a.24.24,0,0,0,.09-.06c.07,0,.17,0,.22,0,2.07-1.54,4.29-1.56,6.72-1,2.07.49,3.91-.38,5.52-1.69,0,0,.06,0,.08-.06l.38-.25a.16.16,0,0,0,.08-.06l.37-.27.42-.34.51-.42L128,68.89c1.2-.61,2.36-1.32,3.61-1.81a8.05,8.05,0,0,1,5.18-.17,4.35,4.35,0,0,1-.63.34c-1.17.71-2.32,1.43-3.48,2.15h0l-.83.7,0,0,0,0-.24.22-.33.29-1.54,1.55-.3.34-.12.14a.25.25,0,0,0-.08.1l-1.19,1.6-.22.24-1.25,1.24a.12.12,0,0,0-.08.06l-.37.27-.26.18a12.52,12.52,0,0,1-6.6,1.3,4,4,0,0,0-2.83,1.49h0l-.35.27-.89.8-.76.79h0l-.79.91-.35.41-.78.8-.72.65-1,.73h0c-.54.23-.3.47,0,.6a2.08,2.08,0,0,0,1,.17,20.07,20.07,0,0,0,3.73-.52,6.4,6.4,0,0,1,5.72.9A9.35,9.35,0,0,0,125.73,87a13.38,13.38,0,0,0,4.5-.88c3.23-.87,6.5-1.36,9.73.11a.15.15,0,0,0,.09.06l.51.43h0l.42.5h0l.08.68a2.77,2.77,0,0,1-.37,0A14.4,14.4,0,0,0,133.31,89a41.72,41.72,0,0,1-4.79,1.88,9.15,9.15,0,0,1-7-.37,6.1,6.1,0,0,0-2.77-.42,10.88,10.88,0,0,0-4.52,1.64c-1.49.76-3.09,1.29-4.78,2l.94.73a.15.15,0,0,0,.09.06,4.19,4.19,0,0,0,2.89,1.25,10.12,10.12,0,0,1,4.28,1.33l.79.76c.27.51.54,1,.82,1.52l.82,1.49a.2.2,0,0,0,.05.09l.27.36.21.25.3.31.25.21.83.73a.13.13,0,0,0,.09,0l1.14.73.09,0a10.07,10.07,0,0,0,1.57.87c1.82.61,3.67,1.1,5.48,1.72a20.7,20.7,0,0,1,2.46,1.2l.26.2.36.28.92.93.42.51.2.26c.27.56.57,1.11.8,1.69,0,.12-.13.33-.21.5a.12.12,0,0,0-.08-.06l-.38-.25a.11.11,0,0,0-.09,0,4.85,4.85,0,0,0-.59-.45,20.21,20.21,0,0,0-8.76-2.11,9.69,9.69,0,0,1-4.07-1c-.88-.45-1.71-1-2.57-1.5l-.46-.46-.74-.82-.35-.42-.25-.37a.15.15,0,0,0-.06-.09l-.26-.36-.45-.46a10.65,10.65,0,0,0-1.79-1.12,17.5,17.5,0,0,0-8-.7,1,1,0,0,0-.61.68,3,3,0,0,0,1.7,2.71.15.15,0,0,0,.09.06l.49.46A9.05,9.05,0,0,1,109.8,107a8.81,8.81,0,0,1,1,5.43,4.36,4.36,0,0,0,1,3.7.15.15,0,0,0,.06.09l.4.52h0l1.59,1.5h0l.92.78,1.39,1.39.41.53a.14.14,0,0,0,.07.08l.41.53a.15.15,0,0,0,.06.09l.72,1.14a.13.13,0,0,0,0,.09c.27.85.6,1.69.79,2.55a5,5,0,0,1-.1,2.84l-1.31-2a.17.17,0,0,0-.07-.1L117,126h0l-.57-.68a.24.24,0,0,0-.06-.09l-.14-.15-.56-.52-.52-.42-.24-.21-.54-.39a.18.18,0,0,0-.09-.06l-3.73-2.32h0l-1-.89-.15-.15-.15-.16h0l-.41-.52s0-.07-.07-.08,0-.17,0-.22a9.12,9.12,0,0,1-1.74-6c0-.45-.4-.93-.63-1.39l-.21-.25a3.59,3.59,0,0,0-.75-.92c-2.1-1.36-4.24-2.68-6.36-4h0a4.23,4.23,0,0,0-.44-.51c-.68-.65-.86-.6-1.18.28-.69,1.91-1.46,3.79-2,5.72a6.6,6.6,0,0,0,.42,5.66,7.61,7.61,0,0,1,.52,7.23c-.66,1.62-1.4,3.2-1.92,4.86a10.15,10.15,0,0,0-.3,6.51c.18.49-.16.42-.45.4l-.3-.32-.63-.76h0A25.65,25.65,0,0,1,91.56,132a30.26,30.26,0,0,1,.16-9,4.43,4.43,0,0,0-1.12-4h0l-.59-.66-.2-.26Z"/><path class="cls-8" d="M93.68,136.67c.29,0,.63.09.45-.4a10.15,10.15,0,0,1,.3-6.51c.52-1.66,1.26-3.24,1.92-4.86a7.61,7.61,0,0,0-.52-7.23,6.6,6.6,0,0,1-.42-5.66c.59-1.93,1.36-3.81,2-5.72.32-.88.5-.93,1.18-.28a4.23,4.23,0,0,1,.44.51L98,105.89c-.18.48-.35,1-.54,1.47-.52,1.39-1,2.79-1.58,4.18a8.68,8.68,0,0,0-.41,4.54,5.19,5.19,0,0,0,.78,1.65,7.49,7.49,0,0,1,.69,6.65c-.28.82-.76,1.57-1.12,2.37a16.63,16.63,0,0,0-1.63,8c.06.79.33,1.57.38,2.54Z"/><path class="cls-8" d="M110.41,94.42l-.94-.73c1.69-.68,3.29-1.21,4.78-2a10.88,10.88,0,0,1,4.52-1.64,6.1,6.1,0,0,1,2.77.42,9.15,9.15,0,0,0,7,.37A41.72,41.72,0,0,0,133.31,89a14.4,14.4,0,0,1,7.39-1.09,2.77,2.77,0,0,0,.37,0L141,87.2l.48.8a2.16,2.16,0,0,1-.74.2,11.73,11.73,0,0,0-5.4.44c-1.78.55-3.45,1.43-5.2,2.08-2.5.94-5.08,1.47-7.66.48a7.15,7.15,0,0,0-3.48-.79,10.86,10.86,0,0,0-2.82.68c-2,.86-4,1.85-6,2.8Z"/><path class="cls-8" d="M76.07,75.25a28.94,28.94,0,0,0-2.92-1.52,5.06,5.06,0,0,0-4.12.06,5.67,5.67,0,0,1-4.15,0,25,25,0,0,1-6.63-3.44,9.47,9.47,0,0,0-6.85-1.75,1.42,1.42,0,0,0-.7.3,6.13,6.13,0,0,1,3.44,1.73,17.48,17.48,0,0,0-2.06-1,14.15,14.15,0,0,0-2-.27,2.52,2.52,0,0,1-.62-.25c.15-.17.28-.43.47-.49a9.32,9.32,0,0,1,4.86-.2c2.08.42,3.57,1.87,5.36,2.81A34.66,34.66,0,0,0,65,73.45a5.71,5.71,0,0,0,4.49-.12,4.41,4.41,0,0,1,2.87-.13A22.17,22.17,0,0,1,76,75C76,75,76,75.15,76.07,75.25Z"/><path class="cls-8" d="M140,86.21c-3.23-1.47-6.5-1-9.73-.11a13.38,13.38,0,0,1-4.5.88,9.35,9.35,0,0,1-4.45-1.33,6.4,6.4,0,0,0-5.72-.9,20.07,20.07,0,0,1-3.73.52,2.08,2.08,0,0,1-1-.17c-.33-.13-.57-.37,0-.6.38.64,1,.49,1.55.43,1.42-.18,2.84-.43,4.24-.71a5.67,5.67,0,0,1,4.32.91,9,9,0,0,0,5.77,1.53,20.6,20.6,0,0,0,4.15-1.07,17.14,17.14,0,0,1,6.79-.5A7.39,7.39,0,0,1,140,86.21Z"/><path class="cls-8" d="M92.76,41.69a10,10,0,0,0-1.67,4,25.44,25.44,0,0,0-.15,7.08,36.16,36.16,0,0,1,.5,5.58,15.18,15.18,0,0,1-1,3.74c0,.12-.21.19-.32.28.32-1.12.71-2.23,1-3.38.37-1.72-.17-3.4-.35-5.1A24.54,24.54,0,0,1,90.94,45a16.52,16.52,0,0,1,1.25-2.87C92.29,42,92.57,41.84,92.76,41.69Z"/><path class="cls-8" d="M73.8,86.59A24.18,24.18,0,0,1,71.3,88a9,9,0,0,1-6.37.67,8.3,8.3,0,0,1-1.27-.53c-3.14-1.52-6.08-1-8.93.79-.56.35-1.15.63-1.74,1a11.69,11.69,0,0,1,5.48-2.75,7.92,7.92,0,0,1,5.18.69,7.66,7.66,0,0,0,6.26.36c1.21-.42,2.35-1,3.53-1.55A1.9,1.9,0,0,1,73.8,86.59Z"/><path class="cls-8" d="M95.71,60.73c1.25-3.39,0-6.48-1.27-9.49a19,19,0,0,1-1.31-6.37c-.07-.92.06-1.85,0-2.77,0-.14-.26-.27-.41-.41l.51-.44c.09.22.27.44.24.63a19.66,19.66,0,0,0,.34,6.36A19.28,19.28,0,0,0,95,51.67c.91,2.36,1.79,4.73,1.5,7.31A6.61,6.61,0,0,1,95.71,60.73Z"/><path class="cls-8" d="M90.6,119a4.43,4.43,0,0,1,1.12,4,30.26,30.26,0,0,0-.16,9,25.65,25.65,0,0,0,1.19,3.63,4.13,4.13,0,0,1-1.34-2.75,17.91,17.91,0,0,1-.37-6.28c.15-1.14.22-2.29.35-3.44A7.71,7.71,0,0,0,90.6,119Z"/><path class="cls-8" d="M47.43,92.76a11.5,11.5,0,0,0,5.22.62,36.86,36.86,0,0,0,5-1.11,8.31,8.31,0,0,1,6.22.15,2.13,2.13,0,0,1,.33.28,1,1,0,0,1-.38,0c-2.4-1.06-4.7-.62-7.08.23a12.73,12.73,0,0,1-8.65.29A3,3,0,0,1,47.43,92.76Z"/><path class="cls-8" d="M119.05,106.35c.86.5,1.69,1.05,2.57,1.5a9.69,9.69,0,0,0,4.07,1,20.21,20.21,0,0,1,8.76,2.11,4.85,4.85,0,0,1,.59.45c-.29-.1-.58-.18-.85-.3a22.13,22.13,0,0,0-7-1.84c-2-.17-4.13-.17-6-1.27A25,25,0,0,1,119.05,106.35Z"/><path class="cls-8" d="M64.29,92.76c.41.2.81.41,1.22.6a9.86,9.86,0,0,0,7.93,0c.28-.11.57-.22.87-.31a1.85,1.85,0,0,1,2.45,1.53.68.68,0,0,1-.25.56,9.24,9.24,0,0,1-1.25.54,4.17,4.17,0,0,1,.47-.47c.29-.21.88-.28.62-.79a2.26,2.26,0,0,0-1-1.09,2.1,2.1,0,0,0-1.48.2,10.38,10.38,0,0,1-6.17.89A4.84,4.84,0,0,1,64.29,92.76Z"/><path class="cls-8" d="M72.61,115.13a14.35,14.35,0,0,0-1.17,2.56c-.42,1.68-.66,3.41-1,5.13a17.55,17.55,0,0,1-2.39,6.44,4.4,4.4,0,0,1-.46.5c.17-.38.32-.78.53-1.15a18.69,18.69,0,0,0,2.21-7.21A13.24,13.24,0,0,1,72,115.77,3.68,3.68,0,0,1,72.61,115.13Z"/><path class="cls-8" d="M75,60.67a5,5,0,0,1,1.3,3,7.47,7.47,0,0,1,0,2.54,10.65,10.65,0,0,0,2.12,8.21,6.84,6.84,0,0,1,.37.65A22.71,22.71,0,0,1,77.23,73,10.47,10.47,0,0,1,76,66.18a7.56,7.56,0,0,0-.8-4.86A2.88,2.88,0,0,1,75,60.67Z"/><path class="cls-8" d="M54.92,112a6.37,6.37,0,0,1-3.06,1.8,2.06,2.06,0,0,0-.67.32,6.09,6.09,0,0,0,3.66-.11c1.52-.64,3-1.35,4.53-2a19.62,19.62,0,0,1-2.08,1.37,9.84,9.84,0,0,1-5.3,1.35,4.71,4.71,0,0,1-1.3-.38.42.42,0,0,1-.21-.37.42.42,0,0,1,.31-.26A7.69,7.69,0,0,0,54.7,112S54.85,112,54.92,112Z"/><path class="cls-8" d="M132.69,69.4c1.16-.72,2.31-1.44,3.48-2.15a4.35,4.35,0,0,0,.63-.34,8.05,8.05,0,0,0-5.18.17c-1.25.49-2.41,1.2-3.61,1.81a12.38,12.38,0,0,1,1.59-1.24,9.76,9.76,0,0,1,7-1.18,2.85,2.85,0,0,1,.75.43,4.83,4.83,0,0,1-.68.51c-1,.53-2.09,1-3.14,1.56Z"/><path class="cls-8" d="M107.78,104.94a3,3,0,0,1-1.7-2.71,1,1,0,0,1,.61-.68,17.5,17.5,0,0,1,8,.7,10.65,10.65,0,0,1,1.79,1.12c-.75-.32-1.48-.67-2.24-.94a17.3,17.3,0,0,0-7.43-.57c-.17,0-.47.4-.42.52a13,13,0,0,0,.8,1.79A6.06,6.06,0,0,0,107.78,104.94Z"/><path class="cls-8" d="M98.69,72.51a9.8,9.8,0,0,1-.84.75A.58.58,0,0,1,96.9,73a16.91,16.91,0,0,1-2.25-8.63,18.65,18.65,0,0,1,.64-3.09c0-.17.25-.3.37-.45a13.53,13.53,0,0,0-.75,4.52,16.91,16.91,0,0,0,1.75,6.49.57.57,0,0,0,.08.13c.63,1.13.63,1.13,1.72.56C98.52,72.49,98.61,72.51,98.69,72.51Z"/><path class="cls-8" d="M89.76,104.57c.69.82.41,1.77.27,2.65a13.83,13.83,0,0,1-.78,2.57,8.76,8.76,0,0,0,.08,7.39,1,1,0,0,1,0,.3,4.87,4.87,0,0,1-1.19-3.06,9,9,0,0,1,.83-4.7A9.24,9.24,0,0,0,89.76,104.57Z"/><path class="cls-8" d="M124.69,71.75c-1.61,1.31-3.45,2.18-5.52,1.69-2.43-.58-4.65-.56-6.72,1,0,0-.15,0-.22,0a4.48,4.48,0,0,1,3.1-1.6,7.48,7.48,0,0,1,2.87.12,7.05,7.05,0,0,0,5.73-.93A4.28,4.28,0,0,1,124.69,71.75Z"/><path class="cls-8" d="M72.45,52.27a9.48,9.48,0,0,1-2.18-3.64c-.11-.25-.2-.51-.29-.76l-.26,0a9.26,9.26,0,0,0-.3,1.15,10,10,0,0,0,1,5.44,3.81,3.81,0,0,1,.19.57,19.74,19.74,0,0,1-1-2,7.45,7.45,0,0,1-.2-5.18.66.66,0,0,1,.43-.39.53.53,0,0,1,.44.31,12.87,12.87,0,0,0,2.17,4.29C72.49,52.1,72.45,52.2,72.45,52.27Z"/><path class="cls-8" d="M63.85,108.21A5.72,5.72,0,0,1,69,106.7a7,7,0,0,0,6-1.39,1.81,1.81,0,0,1,.4-.18,4.57,4.57,0,0,1-2.7,1.77A6.16,6.16,0,0,1,69,107a6,6,0,0,0-4.23.8C64.46,108,64.15,108.08,63.85,108.21Z"/><path class="cls-8" d="M62,78.05c1.15.33,2.29.69,3.45,1a4.72,4.72,0,0,0,1.3.09,9.52,9.52,0,0,1,7,3.3c.06.06.07.18.1.27-.51-.4-1-.79-1.54-1.21a8.4,8.4,0,0,0-5.65-2,9,9,0,0,1-4.5-1.1C62.1,78.28,62.05,78.15,62,78.05Z"/><path class="cls-8" d="M111.76,116.13a4.36,4.36,0,0,1-1-3.7,8.81,8.81,0,0,0-1-5.43,9.05,9.05,0,0,0-1.44-1.54l-.49-.46a3.77,3.77,0,0,1,2.63,2.75,10.37,10.37,0,0,1,.55,5.07,7,7,0,0,0,.34,2.32A6.25,6.25,0,0,0,111.76,116.13Z"/><path class="cls-8" d="M89.58,63.08c-1.38,3-1.13,6.06-.3,9.12.23.84.5,1.67.75,2.51l-.6.11-.09-.31c.06-.17.22-.37.17-.5a17.11,17.11,0,0,1-1.19-7.14,17.13,17.13,0,0,1,.82-3.32C89.19,63.37,89.43,63.24,89.58,63.08Z"/><path class="cls-8" d="M116.44,79.13a4,4,0,0,1,2.83-1.49,12.52,12.52,0,0,0,6.6-1.3,5.51,5.51,0,0,1-3.39,1.52c-.89.14-1.84-.06-2.73.07a12,12,0,0,0-2.3.72A10.32,10.32,0,0,0,116.44,79.13Z"/><path class="cls-8" d="M132.84,107.4a20.7,20.7,0,0,0-2.46-1.2c-1.81-.62-3.66-1.11-5.48-1.72a10.07,10.07,0,0,1-1.57-.87c.81.3,1.6.63,2.41.89,1.58.49,3.2.87,4.75,1.45A13.42,13.42,0,0,1,132.84,107.4Z"/><path class="cls-8" d="M52.78,90a9.33,9.33,0,0,1-4.26,1.56,22.35,22.35,0,0,1-2.46,0c0,.14.12.3.2.47-.6,0-.84-.37-1-1a2.33,2.33,0,0,1,.65,0c1.6.65,3.13.15,4.65-.29C51.32,90.57,52.05,90.29,52.78,90Z"/><path class="cls-8" d="M80.38,102.62c-1.33,2-1.5,4.25-1.85,6.49a6.2,6.2,0,0,1-.68,1.49c.75-2.23.46-4.7,1.6-6.83A7.21,7.21,0,0,1,80.38,102.62Z"/><path class="cls-8" d="M117.22,126.26l1.31,2a5,5,0,0,0,.1-2.84c-.19-.86-.52-1.7-.79-2.55A4.82,4.82,0,0,1,119,126a10.41,10.41,0,0,1-.14,2.29c0,.16-.22.29-.34.44-.14-.12-.33-.22-.41-.38C117.81,127.66,117.52,127,117.22,126.26Z"/><path class="cls-8" d="M106.41,111.71c.23.46.67.94.63,1.39a9.12,9.12,0,0,0,1.74,6s0,.14,0,.22a6.9,6.9,0,0,1-1-1.14,9.47,9.47,0,0,1-1.18-4.87A7.91,7.91,0,0,0,106.41,111.71Z"/><path class="cls-8" d="M82.05,67.88a4.28,4.28,0,0,1-1.41-3.19,8.14,8.14,0,0,0-1.09-4.47.88.88,0,0,1-.07-.29,4.45,4.45,0,0,1,1.35,2.89c.16,1,.14,2.06.36,3.06A10.31,10.31,0,0,0,82.05,67.88Z"/><path class="cls-8" d="M72.21,126.46c.56-.91,1.17-1.8,1.67-2.75.67-1.29,1.25-2.63,1.89-3.95a6,6,0,0,1,.57-.78c-1,2-1.88,4-2.88,5.91A10.25,10.25,0,0,1,72.21,126.46Z"/><path class="cls-8" d="M111.07,75.45a8.72,8.72,0,0,1-5,2.73,2,2,0,0,1-.84-.08c-.5-.15-.62-.43-.19-.82l.72-.67-.57,1.19a7.54,7.54,0,0,0,1.43,0,10.09,10.09,0,0,0,4-2.08A2.35,2.35,0,0,1,111.07,75.45Z"/><path class="cls-8" d="M99.09,106.52c2.12,1.34,4.26,2.66,6.36,4a3.59,3.59,0,0,1,.75.92c-1.22-.86-2.44-1.74-3.69-2.57-.92-.61-1.89-1.13-2.82-1.72A3.73,3.73,0,0,1,99.09,106.52Z"/><path class="cls-8" d="M70.69,100.65a3.91,3.91,0,0,1-3,1.65,11.67,11.67,0,0,0-4.65.77,23.62,23.62,0,0,1,2.24-1,3.15,3.15,0,0,1,1.3,0,4.84,4.84,0,0,0,3.63-1.18A2,2,0,0,1,70.69,100.65Z"/><path class="cls-8" d="M105.8,76.52l1.71-4.24c.37-.9.74-1.8,1.14-2.69a2.5,2.5,0,0,1,.47-.57s0,.11,0,.15c-.93,2.25-1.86,4.5-2.81,6.74A2.48,2.48,0,0,1,105.8,76.52Z"/><path class="cls-8" d="M84.42,112.54c.35-.74.76-1.45,1-2.21.42-1.18.7-2.4,1.1-3.59a8.76,8.76,0,0,1,.77-1.36c-.19.54-.4,1.08-.58,1.62-.54,1.56-1.06,3.13-1.63,4.68C85,112,84.65,112.25,84.42,112.54Z"/><path class="cls-8" d="M110.52,67.49a5.1,5.1,0,0,1,1.62-.89A5.44,5.44,0,0,0,116,64.11c.13-.18.29-.33.44-.5a4.46,4.46,0,0,1-2.3,2.64,10.84,10.84,0,0,1-2,.65C111.54,67.07,111,67.29,110.52,67.49Z"/><path class="cls-8" d="M117.67,97.06a10.12,10.12,0,0,0-4.28-1.33,4.19,4.19,0,0,1-2.89-1.25,14.8,14.8,0,0,0,1.92.72c1.06.26,2.17.36,3.22.65C116.4,96.06,117.26,96.22,117.67,97.06Z"/><path class="cls-8" d="M110.9,61.83a9.74,9.74,0,0,1-2.37,1.1,8.33,8.33,0,0,0-3.44,1.24,1.15,1.15,0,0,1-.28.08A13.69,13.69,0,0,1,107,63C108.25,62.49,109.59,62.2,110.9,61.83Z"/><path class="cls-8" d="M117.83,60.42a15.5,15.5,0,0,1,1.89-5.73c.08-.15.25-.24.38-.36-.33.79-.7,1.56-1,2.36-.37,1.1-.67,2.23-1,3.35C118.07,60.18,117.93,60.29,117.83,60.42Z"/><path class="cls-8" d="M123,50.78l.42-.67a10.19,10.19,0,0,0-3.63,1.16,16.9,16.9,0,0,1,1.77-1.06,6.86,6.86,0,0,1,1.61-.44,2.5,2.5,0,0,1,.75.12l.08.26Z"/><path class="cls-8" d="M77.62,103a4.72,4.72,0,0,1,3.53-1.67c.17,0,.36.16.55.25l-.49.37c-.18-.09-.42-.3-.55-.25-.84.33-1.66.71-2.49,1.08Z"/><path class="cls-8" d="M67.55,129.85l-.2.55.1.14,2-1.13c-.47,1-1.54,1.1-2.33,1.62-.06.05-.29,0-.33-.09a.48.48,0,0,1,0-.41A8.32,8.32,0,0,1,67.55,129.85Z"/><path class="cls-8" d="M77.87,117.13a3.51,3.51,0,0,1,.79-.66c1-.46,2.09-.87,3.14-1.3a5,5,0,0,1-1,.75C79.85,116.36,78.85,116.73,77.87,117.13Z"/><path class="cls-8" d="M102.78,66.26l-2.41,4.24A11.27,11.27,0,0,1,102.78,66.26Z"/><path class="cls-8" d="M110.58,121.16l3.73,2.32-3.69-2.1S110.59,121.24,110.58,121.16Z"/><path class="cls-8" d="M135.59,111.77c.08-.17.26-.38.21-.5-.23-.58-.53-1.13-.8-1.69.45.74.91,1.47,1.34,2.22,0,.08-.09.25-.14.38Z"/><path class="cls-8" d="M116.44,63.52l1.35-3A4.44,4.44,0,0,1,116.44,63.52Z"/><path class="cls-8" d="M120.1,100.83l-.82-1.49c-.28-.5-.55-1-.82-1.52a9.2,9.2,0,0,1,.94,1.24A15.15,15.15,0,0,1,120.1,100.83Z"/><path class="cls-8" d="M61.54,110.38l2.31-2.17Z"/><path class="cls-8" d="M69.52,129.35l2.16-2.18Z"/><path class="cls-8" d="M116,55.14,114.3,58A5.37,5.37,0,0,1,116,55.14Z"/><path class="cls-8" d="M79,75.37l2,2Z"/><path class="cls-8" d="M75.44,84.69c.35.17.59.44.2.73-.54.42-1.16.75-1.75,1.12.41-.36.84-.7,1.21-1.09A2.63,2.63,0,0,0,75.44,84.69Z"/><path class="cls-8" d="M81.09,78.13a2,2,0,0,1-2.61-.66Z"/><path class="cls-8" d="M73,58.51l1.8,1.92Z"/><path class="cls-8" d="M70.69,55.1l1.49,2.38A4.1,4.1,0,0,1,70.69,55.1Z"/><path class="cls-8" d="M76.73,112l-2.23,1.33Z"/><path class="cls-8" d="M113.16,59.77l-1.54,1.55Z"/><path class="cls-8" d="M113.81,118.24l-1.59-1.5Z"/><path class="cls-8" d="M129.74,72.17l1.54-1.55Z"/><path class="cls-8" d="M75.45,55.61l-1.54-1.55Z"/><path class="cls-8" d="M60.28,105.41l-1.34,1.76Z"/><path class="cls-8" d="M74.25,83.1l1.19,1.59Z"/><path class="cls-8" d="M57.09,74l1.33,1.46Z"/><path class="cls-8" d="M128.05,74.35l1.19-1.6Z"/><path class="cls-8" d="M126.58,75.83l1.25-1.24Z"/><path class="cls-8" d="M59.47,111.87l1.45-1Z"/><path class="cls-8" d="M100.31,70.59l-1,1.31Z"/><path class="cls-8" d="M75,95.84,73.88,97Z"/><path class="cls-8" d="M76.55,104.05,77.62,103Z"/><path class="cls-8" d="M60.43,77.12l1.46.87Z"/><path class="cls-8" d="M58.89,107.26c-.29.44-.59.87-.88,1.3C58.3,108.13,58.6,107.7,58.89,107.26Z"/><path class="cls-8" d="M76.39,118.89l.87-1.15Z"/><path class="cls-8" d="M77.11,57.05,76,56.11Z"/><path class="cls-8" d="M73.41,97.67l-.87,1.14Z"/><path class="cls-8" d="M75.55,105.07l.93-.94Z"/><path class="cls-8" d="M114.24,58.07c-.23.39-.47.77-.71,1.15C113.77,58.84,114,58.46,114.24,58.07Z"/><path class="cls-8" d="M84.26,70.46l-.91-.94Z"/><path class="cls-8" d="M117.34,53.44l-.86,1Z"/><path class="cls-8" d="M109.61,120.27l1,.89Z"/><path class="cls-8" d="M117.79,122.78l-.72-1.14Z"/><path class="cls-8" d="M88.22,104.43c.33-.37.63-.9,1.21-.31Z"/><path class="cls-8" d="M123.24,103.56l-1.14-.73Z"/><path class="cls-8" d="M114.73,119l-.92-.78Z"/><path class="cls-8" d="M88.61,74l-1-.72Z"/><path class="cls-8" d="M110.83,84.5l1-.73Z"/><path class="cls-8" d="M57.64,109.11l-.73,1Z"/><path class="cls-8" d="M72.18,57.48l.77.94Z"/><path class="cls-8" d="M120.89,53.11l.77-.93Z"/><path class="cls-8" d="M113.65,81.91l.79-.91Z"/><path class="cls-8" d="M78.66,58.75l-.72-.83Z"/><path class="cls-8" d="M55.84,111.17l-.83.72Z"/><path class="cls-8" d="M112.14,74.51l-.83.74Z"/><path class="cls-8" d="M58.57,75.58l.82.74Z"/><path class="cls-8" d="M122,102.78l-.83-.73Z"/><path class="cls-8" d="M59.48,76.39l.86.68Z"/><path class="cls-8" d="M114.44,81l.76-.79Z"/><path class="cls-8" d="M117.85,105.07l.74.82Z"/><path class="cls-8" d="M131.86,70.11l.83-.7Z"/><path class="cls-8" d="M62,103.75l-.84.72Z"/><path class="cls-8" d="M112.52,83.12l.78-.8Z"/><path class="cls-8" d="M73.7,53.81,73,53Z"/><path class="cls-8" d="M63,103.13l-.84.56Z"/><path class="cls-8" d="M92.75,135.59l.63.76Z"/><path class="cls-8" d="M83.14,69.27l-.58-.67Z"/><path class="cls-8" d="M87.51,105.12l.62-.63Z"/><path class="cls-8" d="M74.4,113.34l-.67.57Z"/><path class="cls-8" d="M56.45,73.2l.57.68Z"/><path class="cls-8" d="M90,118.37l.59.66Z"/><path class="cls-8" d="M116.46,125.32l.57.68Z"/><path class="cls-8" d="M104.72,64.32l-.68.56Z"/><path class="cls-8" d="M116.42,54.52l-.47.62Z"/><path class="cls-8" d="M55.82,72.29l.44.65Z"/><path class="cls-8" d="M71.75,127.08l.46-.62Z"/><path class="cls-8" d="M60.93,110.85l.61-.47Z"/><path class="cls-8" d="M81.15,77.44c.45.18.46.4,0,.64Z"/><path class="cls-8" d="M85.65,71.7l-.51-.43Z"/><path class="cls-8" d="M72.93,52.88l-.42-.52Z"/><path class="cls-8" d="M126.53,70.35l-.51.42Z"/><path class="cls-8" d="M108.9,119.44l.41.52Z"/><path class="cls-8" d="M134.8,109.32l-.42-.51Z"/><path class="cls-8" d="M116.53,120.94l-.41-.53Z"/><path class="cls-8" d="M114.4,123.54l.54.39Z"/><path class="cls-8" d="M103.28,65.66l-.43.52C103,66,103.14,65.84,103.28,65.66Z"/><path class="cls-8" d="M86.43,72.32l-.52-.43Z"/><path class="cls-8" d="M115.18,124.14l.52.42Z"/><path class="cls-8" d="M77.73,110.81l-.39.53Z"/><path class="cls-8" d="M117,121.55l-.41-.53Z"/><path class="cls-8" d="M83.79,113.31l.44-.51Z"/><path class="cls-8" d="M119.1,51.78l-.51.43Z"/><path class="cls-8" d="M141,87.2l-.42-.5Z"/><path class="cls-8" d="M140.56,86.7l-.51-.43Z"/><path class="cls-8" d="M112.22,116.74l-.4-.52Z"/><path class="cls-8" d="M87.36,73.08l-.52-.41Z"/><path class="cls-8" d="M73.74,97.21l-.33.45Z"/><path class="cls-8" d="M90,62.56l-.31.45Z"/><path class="cls-8" d="M46.82,92.44l.51.27Z"/><path class="cls-8" d="M82.06,115l.35-.28Z"/><path class="cls-8" d="M73.12,114.54l-.28.34Z"/><path class="cls-8" d="M125.15,71.44l-.38.25Z"/><path class="cls-8" d="M79.12,59.38,78.86,59Z"/><path class="cls-8" d="M89.55,117.75l.26.36Z"/><path class="cls-8" d="M82.36,68.35,82.11,68Z"/><path class="cls-8" d="M109.17,68.93l.27-.36Z"/><path class="cls-8" d="M135.13,111.46l.38.25Z"/><path class="cls-8" d="M78.39,77.41,78,77.14Z"/><path class="cls-8" d="M89.06,74.32l-.36-.27Z"/><path class="cls-8" d="M58,108.65l-.27.37Z"/><path class="cls-8" d="M120.32,53.93l.24-.38Z"/><path class="cls-8" d="M133.46,107.88l-.36-.28Z"/><path class="cls-8" d="M113.48,59.31l-.26.38Z"/><path class="cls-8" d="M111.36,61.52l-.36.27Z"/><path class="cls-8" d="M119.72,51.32l-.37.25Z"/><path class="cls-8" d="M116.09,79.41l.35-.27Z"/><path class="cls-8" d="M117.25,104.28l.25.37Z"/><path class="cls-8" d="M116.93,103.83l.26.36Z"/><path class="cls-8" d="M81.2,101.91l-.36.24Z"/><path class="cls-8" d="M120.93,101.84l-.3-.31Z"/><path class="cls-8" d="M120.42,101.28l-.27-.36Z"/><path class="cls-8" d="M71.57,99.84l-.31.31Z"/><path class="cls-8" d="M126.13,76.16l.37-.27Z"/><path class="cls-8" d="M79.43,59.83l-.26-.36Z"/><path class="cls-8" d="M46.35,92.15l.37.23Z"/><path class="cls-8" d="M125.6,71.11l-.37.27Z"/><path class="cls-8" d="M118.34,52.41l-.33.31Z"/><path class="cls-8" d="M120.63,53.47l.25-.36Z"/><path class="cls-8" d="M131.61,70.33l.24-.22Z"/><path class="cls-8" d="M82.76,114.42l.23-.23Z"/><path class="cls-8" d="M72,99.37l-.15.15Z"/><path class="cls-8" d="M117,126l.12.15Z"/><path class="cls-8" d="M71.1,100.3l-.16.14Z"/><path class="cls-8" d="M116.26,125.08l.14.15Z"/><path class="cls-8" d="M122.62,51.14l.16-.15Z"/><path class="cls-8" d="M109.31,120l.15.16Z"/><path class="cls-8" d="M56.23,110.81l-.14.13Z"/><path class="cls-8" d="M120.21,54.09l.1-.15Z"/><path class="cls-8" d="M110.35,67.64l.16-.15Z"/><path class="cls-8" d="M119.35,51.58l-.16.13Z"/><path class="cls-8" d="M129.32,72.65l.12-.14Z"/><path class="cls-9" d="M132.73,137.1a2.51,2.51,0,0,1,2,1.66c.28.78-.2,1.28-.7,1.73-.1.09-.53,0-.67-.15-.52-.53-1-1.12-1.46-1.68-.64-.72-.58-1,.32-1.38A2.8,2.8,0,0,1,132.73,137.1Z"/><path class="cls-9" d="M146.19,127.16a7.47,7.47,0,0,1-.61,1c-.08.1-.45.09-.59,0-.71-.49-1.38-1.05-2.09-1.55-.4-.29-.41-.56-.06-.87s.87-.91,1.59-.65A2.71,2.71,0,0,1,146.19,127.16Z"/><path class="cls-9" d="M93.86,21.58c0,1,0,2.06,0,3.09a1.33,1.33,0,0,1-1.35,1.39c-.45,0-.67-.14-.69-.61-.08-3.09-.17-6.17-.26-9.26,0-.42.17-.6.6-.61,1.07,0,1.52.37,1.53,1.44,0,1.52,0,3,0,4.56Z"/><path class="cls-10" d="M86.58,160.29a7.92,7.92,0,0,1,0,.83c0,.39.21.92-.45,1s-1.51-.14-1.59-.73a6.89,6.89,0,0,1,0-2.48,1.2,1.2,0,0,1,1.63-.74,1,1,0,0,1,.43.67A7.64,7.64,0,0,1,86.58,160.29Z"/><path class="cls-11" d="M123.39,23.25c-.13.4-.26.79-.37,1.18-.27,1-.5,1.94-.8,2.9-.07.23-.39.58-.5.55a3.56,3.56,0,0,1-1.14-.6c-.06,0,.08-.45.2-.64.6-1,1.22-1.91,1.84-2.85.15-.23.33-.44.49-.65Z"/><path class="cls-12" d="M120.11,148.43a.37.37,0,0,1,0,.11l.27.35a.31.31,0,0,1,0,.1l.27.36.2.26.26.37.06.08.4.53a.24.24,0,0,1,.06.09c.08.73-.13.92-1,.93-.35-1-.7-2-1-3,0-.16.12-.38.19-.58h0Z"/><path class="cls-13" d="M119.87,148.06c-.07.2-.23.42-.19.58.32,1,.67,2,1,3,.9,0,1.11-.2,1-.93.57.49.56.64,0,1-1,.54-1.11.5-1.47-.52-.45-1.27-.87-2.55-1.33-3.9A.9.9,0,0,1,119.87,148.06Z"/><path class="cls-13" d="M121.67,150.59l-.4-.53Z"/><path class="cls-13" d="M121.21,150l-.26-.37Z"/><path class="cls-13" d="M120.75,149.35l-.27-.36Z"/><path class="cls-13" d="M120.43,148.89l-.27-.35Z"/><path class="cls-13" d="M120.11,148.43l-.24-.36Z"/><path class="cls-14" d="M42,127.12l-1,1c-.67.7-1.33,1.42-2,2.11-.14.14-.5.31-.55.26a5.38,5.38,0,0,1-.83-1.07c0-.06.21-.36.38-.46,1.14-.66,2.28-1.29,3.43-1.91a1.46,1.46,0,0,1,.47-.1Z"/><path class="cls-1" d="M74.55,20.64l.06.23-.14-.17Z"/><path class="cls-15" d="M89.43,74.82l.6-.11a16,16,0,0,1,4.84.07,13.59,13.59,0,0,1,8,4.65A13.1,13.1,0,0,1,106,90.06a13.74,13.74,0,0,1-19.69,10.5,13.1,13.1,0,0,1-7.24-9A13.66,13.66,0,0,1,87.9,75.33ZM83.79,88.27a8.61,8.61,0,1,0,8.62-8.65A8.66,8.66,0,0,0,83.79,88.27Z"/><path class="cls-16" d="M83.79,88.27a8.61,8.61,0,1,1,17.21,0,8.61,8.61,0,1,1-17.21,0Z"/></svg>