<?xml version="1.0" encoding="utf-8"?>
<!-- Generator: Adobe Illustrator 23.0.2, SVG Export Plug-In . SVG Version: 6.00 Build 0)  -->
<svg version="1.1" id="Layer_1" xmlns="http://www.w3.org/2000/svg" xmlns:xlink="http://www.w3.org/1999/xlink" x="0px" y="0px"
	 viewBox="0 0 500 400" style="enable-background:new 0 0 500 400;" xml:space="preserve">
<style type="text/css">
	.st0{fill:#B9785F;}
	.st1{fill:#AA6455;}
	.st2{fill:#B4E1FA;}
	.st3{fill:#DAF0FD;}
	.st4{fill:#AA0F1B;}
	.st5{fill:#C7CFE2;}
	.st6{fill:#E32228;}
	.st7{fill:#EFF2FA;}
	.st8{opacity:0.97;}
	.st9{fill:#AFB9D2;}
	.st10{fill:#5B5D6E;}
	.st11{fill:#A0D2F0;}
	.st12{fill:#FFB47D;}
	.st13{fill:#F9A41A;}
	.st14{fill:#E58C0C;}
	.st15{fill:#EDEDEE;}
	.st16{fill:#504B5A;}
	.st17{fill:#DCDBDE;}
	.st18{fill:#625D6B;}
</style>
<g>
	<g>
		<path class="st0" d="M411.9,298.3H179.1V95.8c0-2.4,1.9-4.3,4.3-4.3h224.1c2.4,0,4.3,1.9,4.3,4.3v202.5H411.9z"/>
		<path class="st1" d="M411.9,160c-0.9,0.2-1.8,0.4-2.7,0.4c-6.3,0-11.4-5.1-11.4-11.4c0,6.3-5.1,11.4-11.4,11.4S375,155.3,375,149
			c0,6.3-5.1,11.4-11.4,11.4s-11.4-5.1-11.4-11.4c0,6.3-5.1,11.4-11.4,11.4s-11.4-5.1-11.4-11.4c0,6.3-5.1,11.4-11.4,11.4
			s-11.4-5.1-11.4-11.4c0,6.3-5.1,11.4-11.4,11.4s-11.4-5.1-11.4-11.4c0,6.3-5.1,11.4-11.4,11.4S261,155.3,261,149
			c0,6.3-5.1,11.4-11.4,11.4c-6.3,0-11.4-5.1-11.4-11.4c0,6.3-5.1,11.4-11.4,11.4c-6.3,0-11.4-5.1-11.4-11.4
			c0,6.3-5.1,11.4-11.4,11.4c-6.3,0-11.4-5.1-11.4-11.4c0,6.3-5.1,11.4-11.4,11.4c-1,0-1.9-0.2-2.7-0.4v8.7c0.9,0.1,1.8,0.3,2.7,0.3
			c4.2,0,8.1-1.3,11.4-3.6c3.2,2.2,7.1,3.6,11.4,3.6c4.2,0,8.1-1.3,11.4-3.6c3.2,2.2,7.1,3.6,11.4,3.6s8.1-1.3,11.4-3.6
			c3.2,2.2,7.1,3.6,11.4,3.6c4.2,0,8.1-1.3,11.4-3.6c3.2,2.2,7.1,3.6,11.4,3.6s8.1-1.3,11.4-3.6c3.2,2.2,7.1,3.6,11.4,3.6
			s8.1-1.3,11.4-3.6c3.2,2.2,7.1,3.6,11.4,3.6s8.1-1.3,11.4-3.6c3.2,2.2,7.1,3.6,11.4,3.6s8.1-1.3,11.4-3.6
			c3.2,2.2,7.1,3.6,11.4,3.6s8.1-1.3,11.4-3.6c3.2,2.2,7.1,3.6,11.4,3.6c4.2,0,8.1-1.3,11.4-3.6c3.2,2.2,7.1,3.6,11.4,3.6
			c0.9,0,1.8-0.2,2.7-0.3V160L411.9,160L411.9,160z"/>
		<rect x="200.7" y="177.6" class="st2" width="120.7" height="77.6"/>
		<polygon class="st3" points="299.8,250.9 291.2,250.9 239.5,182 248.1,182 		"/>
		<g>
			<path class="st4" d="M272.8,160.4L272.8,160.4c-6.3,0-11.4-5.1-11.4-11.4v-10.2h22.7V149C284.1,155.3,279,160.4,272.8,160.4z"/>
			<path class="st4" d="M318.2,160.4L318.2,160.4c-6.3,0-11.4-5.1-11.4-11.4v-10.2h22.7V149C329.6,155.3,324.5,160.4,318.2,160.4z"
				/>
			<path class="st4" d="M227.3,160.4L227.3,160.4c-6.3,0-11.4-5.1-11.4-11.4v-10.2h22.7V149C238.7,155.3,233.6,160.4,227.3,160.4z"
				/>
			<path class="st4" d="M181.9,160.4L181.9,160.4c-6.3,0-11.4-5.1-11.4-11.4v-10.2h22.7V149C193.2,155.3,188.1,160.4,181.9,160.4z"
				/>
			<path class="st4" d="M363.7,160.4L363.7,160.4c-6.3,0-11.4-5.1-11.4-11.4v-10.2H375V149C375,155.3,370,160.4,363.7,160.4z"/>
		</g>
		<g>
			<path class="st5" d="M250,160.4L250,160.4c-6.3,0-11.4-5.1-11.4-11.4v-10.2h22.7V149C261.4,155.3,256.3,160.4,250,160.4z"/>
			<path class="st5" d="M341,160.4L341,160.4c-6.3,0-11.4-5.1-11.4-11.4v-10.2h22.7V149C352.3,155.3,347.2,160.4,341,160.4z"/>
		</g>
		<path class="st4" d="M409.1,160.4L409.1,160.4c-6.3,0-11.4-5.1-11.4-11.4v-10.2h22.7V149C420.5,155.3,415.4,160.4,409.1,160.4z"/>
		<g>
			<path class="st5" d="M386.4,160.4L386.4,160.4c-6.3,0-11.4-5.1-11.4-11.4v-10.2h22.7V149C397.8,155.3,392.7,160.4,386.4,160.4z"
				/>
			<path class="st5" d="M204.6,160.4L204.6,160.4c-6.3,0-11.4-5.1-11.4-11.4v-10.2H216V149C216,155.3,210.9,160.4,204.6,160.4z"/>
			<path class="st5" d="M295.5,160.4L295.5,160.4c-6.3,0-11.4-5.1-11.4-11.4v-10.2h22.7V149C306.9,155.3,301.8,160.4,295.5,160.4z"
				/>
		</g>
		<g>
			<polygon class="st6" points="284.1,138.9 261.4,138.9 263.8,104.4 284.9,104.4 			"/>
			<polygon class="st6" points="329.6,138.9 306.9,138.9 306.1,104.4 327.2,104.4 			"/>
			<polygon class="st6" points="238.7,138.9 216,138.9 221.4,104.4 242.6,104.4 			"/>
			<polygon class="st6" points="193.2,138.9 170.5,138.9 179.1,104.4 200.3,104.4 			"/>
			<polygon class="st6" points="375,138.9 352.3,138.9 348.4,104.4 369.6,104.4 			"/>
		</g>
		<g>
			<polygon class="st7" points="261.4,138.9 238.7,138.9 242.6,104.4 263.8,104.4 			"/>
			<polygon class="st7" points="352.3,138.9 329.6,138.9 327.2,104.4 348.4,104.4 			"/>
		</g>
		<polygon class="st6" points="420.5,138.9 397.8,138.9 390.7,104.4 411.9,104.4 		"/>
		<g>
			<polygon class="st7" points="397.8,138.9 375,138.9 369.6,104.4 390.7,104.4 			"/>
			<polygon class="st7" points="216,138.9 193.2,138.9 200.3,104.4 221.4,104.4 			"/>
			<polygon class="st7" points="306.9,138.9 284.1,138.9 284.9,104.4 306.1,104.4 			"/>
		</g>
		<path class="st5" d="M416.2,302.6H174.8c-2.4,0-4.3-1.9-4.3-4.3l0,0c0-2.4,1.9-4.3,4.3-4.3h241.4c2.4,0,4.3,1.9,4.3,4.3l0,0
			C420.5,300.7,418.6,302.6,416.2,302.6z"/>
		<g class="st8">
			<rect x="179.1" y="285.4" class="st9" width="232.8" height="8.6"/>
		</g>
		<rect x="179.1" y="268.2" class="st1" width="232.8" height="17.2"/>
		<g>
			<path class="st10" d="M317.1,182v69H205v-69H317.1 M321.4,173.3H200.7c-2.4,0-4.3,1.9-4.3,4.3v77.6c0,2.4,1.9,4.3,4.3,4.3h120.7
				c2.4,0,4.3-1.9,4.3-4.3v-77.6C325.7,175.3,323.7,173.3,321.4,173.3L321.4,173.3z"/>
			<path class="st10" d="M390.3,173.3h-43.1c-2.4,0-4.3,1.9-4.3,4.3v107.8h51.7V177.6C394.6,175.3,392.7,173.3,390.3,173.3z"/>
		</g>
		<rect x="351.5" y="182" class="st2" width="34.5" height="69"/>
		<rect x="205" y="182" class="st11" width="112.1" height="8.6"/>
		<rect id="SVGCleanerId_0" x="351.5" y="182" class="st11" width="34.5" height="8.6"/>
		<polygon class="st11" points="282.6,250.9 265.3,250.9 213.6,182 230.8,182 		"/>
		<polygon class="st2" points="254.6,190.6 248.1,182 239.5,182 245.9,190.6 		"/>
		<polygon class="st3" points="386,216.4 360.2,182 351.5,182 386,227.9 		"/>
		<polygon class="st2" points="366.6,190.6 360.2,182 351.5,182 358,190.6 		"/>
		<g>
			<rect id="SVGCleanerId_0_1_" x="351.5" y="182" class="st11" width="34.5" height="8.6"/>
		</g>
		<polygon class="st3" points="386,216.4 360.2,182 351.5,182 386,227.9 		"/>
		<polygon class="st11" points="351.5,193.5 351.5,216.4 377.4,250.9 386,250.9 386,239.4 		"/>
	</g>
	<g>
		<path class="st12" d="M281,260.1c-6.8-4.2-28.9-9.6-59.9-9.6l-16.4-19.1c-3.4-4-8.5-6.3-13.8-6.3h-49c-5.2,0-10.2,1.9-14.2,5.2
			l-19.3,16.5l-20.4,3c-2.9,0.4-5.3,2.6-6,5.4l-2.4,9.8l54.5,25.4h152.5v-20.5C286.5,265.9,284.4,262.2,281,260.1z"/>
		<path class="st13" d="M286.5,272.2c0-7.3-10.9-14.5-61.7-14.5H83.1c-2,0-3.6,1.6-3.6,3.6v21.8l69,10.9h138V272.2L286.5,272.2z"/>
		<path class="st14" d="M286.5,286.8H116.2l-32.3-7.2c-1.9-0.4-3.9,0.8-4.3,2.8s0.8,3.9,2.8,4.3l32.7,7.3c0.3,0.1,0.5,0.1,0.8,0.1
			h170.7c2,0,3.6-1.6,3.6-3.6C290.1,288.4,288.5,286.8,286.5,286.8z"/>
		<circle class="st15" cx="253.8" cy="286.8" r="18.2"/>
		<path class="st16" d="M253.8,308.6c-12,0-21.8-9.8-21.8-21.8s9.8-21.8,21.8-21.8c12,0,21.8,9.8,21.8,21.8S265.8,308.6,253.8,308.6
			z M253.8,272.2c-8,0-14.5,6.5-14.5,14.5s6.5,14.5,14.5,14.5c8,0,14.5-6.5,14.5-14.5C268.3,278.8,261.8,272.2,253.8,272.2z"/>
		<circle class="st17" cx="253.8" cy="286.8" r="7.3"/>
		<circle class="st15" cx="115.8" cy="286.8" r="18.2"/>
		<path class="st16" d="M115.8,308.6c-12,0-21.8-9.8-21.8-21.8s9.8-21.8,21.8-21.8s21.8,9.8,21.8,21.8
			C137.6,298.8,127.8,308.6,115.8,308.6z M115.8,272.2c-8,0-14.5,6.5-14.5,14.5s6.5,14.5,14.5,14.5s14.5-6.5,14.5-14.5
			C130.3,278.8,123.8,272.2,115.8,272.2z"/>
		<circle class="st17" cx="115.8" cy="286.8" r="7.3"/>
		<g>
			<path class="st14" d="M224.7,279.5h-76.3c-2,0-3.6-1.6-3.6-3.6l0,0c0-2,1.6-3.6,3.6-3.6h76.3c2,0,3.6,1.6,3.6,3.6l0,0
				C228.4,277.9,226.8,279.5,224.7,279.5z"/>
			<path class="st14" d="M286.5,279.5h-3.6c-2,0-3.6-1.6-3.6-3.6l0,0c0-2,1.6-3.6,3.6-3.6h3.6c2,0,3.6,1.6,3.6,3.6l0,0
				C290.1,277.9,288.5,279.5,286.5,279.5z"/>
		</g>
		<path class="st14" d="M108.6,246.8l19.3-16.5c3.9-3.4,9-5.2,14.2-5.2h49c5.3,0,10.3,2.3,13.8,6.3l16.4,19.1h-86
			c-3.2,0-6.4-0.3-9.6-0.8L108.6,246.8z"/>
		<path class="st18" d="M187,231.3c-1.4-1.7-3.4-2.6-5.6-2.6h-33.5c-1.9,0-3.8,0.8-5.1,2.1l-10.9,10.9c-1,1-1.5,2.3-1.5,3.6l0,0
			c0,2.8,2.3,5.1,5.1,5.1h63.6c1.5,0,2.4-1.8,1.4-3L187,231.3z"/>
		<polygon class="st16" points="155.8,250.5 144.9,250.5 152.1,228.7 159.4,228.7 		"/>
		<path class="st15" d="M282.6,261.4h-3.4c-2,0-3.6,1.6-3.6,3.6s1.6,3.6,3.6,3.6h7.1C286,265.8,284.7,263.2,282.6,261.4z"/>
		<path class="st18" d="M204.8,231.4c-0.9-1-1.8-1.9-2.9-2.7H196c-1.5,0-2.4,1.8-1.4,3l13.5,16.2c1.4,1.7,3.4,2.6,5.6,2.6h7.5
			L204.8,231.4z"/>
		<path class="st14" d="M79.5,261.4v3.6h7.3c2,0,3.6-1.6,3.6-3.6s-1.6-3.6-3.6-3.6h-3.6C81.1,257.7,79.5,259.3,79.5,261.4z"/>
	</g>
</g>
</svg>
