<?xml version="1.0" encoding="utf-8"?>
<!-- Generator: Adobe Illustrator 23.0.2, SVG Export Plug-In . SVG Version: 6.00 Build 0)  -->
<svg version="1.1" id="Layer_1" xmlns="http://www.w3.org/2000/svg" xmlns:xlink="http://www.w3.org/1999/xlink" x="0px" y="0px"
	 viewBox="0 0 500 400" style="enable-background:new 0 0 500 400;" xml:space="preserve">
<style type="text/css">
	.st0{fill:#E32228;}
	.st1{fill:#FCFCFB;}
	.st2{fill:#FDF9F7;}
	.st3{fill:#FDF8F6;}
	.st4{fill:#FEFBFA;}
	.st5{fill:#ED8066;}
	.st6{fill:#088E4B;}
	.st7{fill:#AECBB0;}
	.st8{fill:#E53834;}
	.st9{fill:#E53A35;}
	.st10{fill:#E75043;}
	.st11{fill:#E32928;}
	.st12{fill:#EE856B;}
	.st13{fill:#E84F42;}
	.st14{fill:#E12326;}
	.st15{fill:#F9A41A;}
</style>
<g>
	<path class="st0" d="M249.9,314c-62.8-0.1-114.6-51.1-113.8-115.5c0.7-61.4,50.9-113.3,115.7-112.5
		c61.4,0.8,112.8,50.9,112.2,115.1C363.5,263.3,313.1,313.9,249.9,314z M225.1,104.6c-0.2-0.1-0.4-0.2-0.5-0.4
		c-1.2-1.6-2.4-3.3-3.6-4.9c-0.2-0.3-0.6-0.6-0.9-0.9c0,0-0.1-0.1-0.1-0.1c-0.2-0.2-0.4-0.5-0.6-0.7c0,0-0.1-0.1-0.1-0.1
		c-0.1-0.8-0.5-1-1.3-0.8c-2.3,0.7-4.6,1.4-7,2c-0.8,0.2-0.8,0.7-0.7,1.3c0.2,1,0.6,1.9,0.9,2.8c0.1,0.3,0.3,0.5,0.5,0.8
		c0.4,0.7,1.1,1.3,1.3,2c1,3.4,2,6.9,2.9,10.3c0.2,0.8,0.5,1.7,0.3,2.4c-0.3,0.9-0.2,1.6,0.1,2.4c0.2,0.7,0.5,1.4,0.6,2.2
		c0.2,0.9,0.6,1.1,1.4,0.8c1.7-0.5,3.3-1.1,5-1.5c2-0.5,2-0.5,1.5-2.4c0-0.2-0.1-0.3-0.1-0.5c-0.3-0.9-0.3-2.1-0.9-2.5
		c-1.4-1-1.4-2.5-1.9-3.8c-0.1-0.2,0.2-0.6,0.3-0.9c0,0,0.1,0.1,0.1,0.1c0,0.1,0,0.3,0.1,0.4c2,2.5,4.1,5.1,6.2,7.6
		c0.2,0.2,0.7,0.3,1,0.2c2-0.5,4-1.2,6-1.7c0.7-0.2,0.8-0.6,0.7-1.2c-0.5-1.9-1-3.9-1.5-5.8c-1.1-4-2.3-7.9-3.4-11.8
		c-0.1-0.4,0-0.8,0-1.2c0-0.6,0.1-1.2,0.1-1.8c-0.1-0.7-0.3-1.3-0.5-2c-0.3-1.3-0.8-1.5-2-1.2c-1.9,0.6-3.9,1.1-5.8,1.7
		c-0.3,0.1-0.8,0.6-0.8,0.8c0.3,1.3,0.5,2.8,1.3,3.8c1,1.4,1.3,2.9,1.7,4.5C225.2,104.5,225.2,104.6,225.1,104.6z M185.9,239.2
		c2.3,3.1,4.5,6.1,6.8,9.1c0.4,0.5,0.8,0.3,1.2,0c0.9-0.7,1.9-1,3.1-0.6c2.6,0.8,3.5,3.6,1.8,5.8c-0.5,0.7-0.4,1,0.2,1.5
		c2.6,2.1,5.1,4.1,7.6,6.2c0.6,0.5,0.8,0.2,1.2-0.2c1.4-1.4,3.2-1.7,4.6-0.8c1.5,1,2.1,2.8,1.4,4.6c-0.2,0.6-0.1,0.9,0.4,1.1
		c2.8,1.3,5.6,2.6,8.4,3.9c0.8,0.4,1.2,0.3,1.7-0.5c1-1.5,2.6-2,4-1.5c1.5,0.5,2.7,2,2.6,3.5c-0.1,1.1,0.3,1.5,1.3,1.6
		c3.5,0.6,7,1.2,10.4,1.8c0.6,0.1,0.8-0.1,1-0.7c0.5-1.9,2-3.1,3.7-3c1.4,0.1,3.2,1.2,3.5,3.2c0.1,0.3,0.6,0.8,0.9,0.8
		c3.3-0.2,6.5-0.6,9.8-0.9c0.5,0,0.8-0.3,0.8-0.9c0-1.9,1.1-3.3,2.9-3.7c1.6-0.4,3.1,0.4,4,2.1c0.3,0.6,0.7,0.8,1.3,0.6
		c0.8-0.3,1.6-0.5,2.4-0.8c2.9-1.1,5.7-2.2,8.6-3.3c0.5-0.2,0.9-0.4,0.6-1.2c-0.6-1.6,0.2-3.4,1.7-4.3c1.4-0.8,3.4-0.5,4.4,0.8
		c0.6,0.7,1,0.6,1.6,0.2c2.4-1.7,4.8-3.5,7.2-5.2c0.7-0.5,0.8-0.9,0.3-1.6c-1.1-1.6-0.8-3.3,0.8-4.7c1.4-1.2,3.2-1.3,4.6,0
		c0.6,0.5,0.9,0.5,1.4-0.1c1.9-2.3,3.9-4.6,5.8-7c1-1.3,1-1.3,0-2.7c-0.9-1.3-0.8-3,0.2-4.4c1-1.2,2.6-1.7,4-1.1
		c0.7,0.3,1,0.1,1.3-0.5c1.4-3,2.8-6.1,4.3-9.1c0.4-0.8,0.3-1.2-0.5-1.7c-1.4-0.9-2-2.7-1.5-4.1c0.6-1.7,1.9-2.6,3.8-2.5
		c0.9,0.1,1.1-0.4,1.2-1.1c0.6-3.1,1.1-6.2,1.7-9.4c0.2-0.8-0.1-1.2-0.9-1.5c-1.6-0.6-2.4-2-2.2-3.7c0.1-1.6,1.3-2.8,2.8-3.2
		c0.3-0.1,0.8-0.6,0.7-0.9c-0.3-3.5-0.6-7-0.9-10.5c-0.1-0.7-0.4-0.9-1.1-1c-1.7-0.1-2.7-1.1-3.3-2.6c-0.5-1.5-0.1-2.9,1.1-3.6
		c1.5-0.9,1.5-1.9,0.9-3.3c-1-2.4-1.8-4.8-2.6-7.2c-0.2-0.7-0.6-1-1.4-0.6c-0.5,0.2-1.2,0.3-1.8,0.1c-1.5-0.4-2.5-1.3-2.8-2.9
		c-0.3-1.5,0.2-2.8,1.4-3.7c0.5-0.3,0.9-0.6,0.4-1.2c-1.8-2.7-3.6-5.3-5.3-8c-0.3-0.5-0.6-0.6-1.1-0.2c-1.7,1.1-3.5,0.9-4.7-0.5
		c-1.3-1.4-1.3-3.4,0-4.9c0.5-0.6,0.4-0.9-0.1-1.4c-2.7-2.3-5.3-4.7-7.9-7c-0.5-0.4-0.7-0.4-1.2,0.1c-1.4,1.5-3.2,1.7-4.7,0.7
		c-1.5-0.9-2-2.8-1.3-4.5c0.3-0.6,0.2-1-0.4-1.3c-1.1-0.6-2.1-1.3-3.3-1.8c-2.1-1-4.2-2-6.3-3c-0.2,0.3-0.3,0.4-0.4,0.6
		c-1.1,1.9-2.7,2.6-4.5,2.1c-1.7-0.5-2.6-2.3-2.4-4.4c0-0.3-0.3-0.8-0.5-0.8c-3.4-0.8-6.9-1.5-10.3-2.3c-0.8-0.2-1,0.2-1.2,0.9
		c-0.4,1.6-2.2,2.8-3.7,2.7c-1.7-0.1-3.3-1.6-3.4-3.3c-0.1-0.9-0.4-1.1-1.2-1.1c-3.7,0.3-7.4,0.5-11.1,0.8c-0.2,0-0.6,0.5-0.7,0.8
		c-0.2,0.6,0,1.4-0.3,2c-0.6,1.4-1.8,2.2-3.4,2.2c-1.5,0-2.8-1-3.4-2.5c-0.2-0.5-0.3-1-1.1-0.7c-3.5,1.2-7,2.4-10.5,3.6
		c-0.6,0.2-0.6,0.5-0.5,1.1c0.2,1,0.3,2.1-0.1,2.9c-1.2,2.7-4.6,2.8-6.3,0.3c-0.3-0.4-0.5-0.8-1.1-0.4c-3,2.1-6.1,4.1-9.1,6.2
		c-0.5,0.3-0.5,0.6-0.1,1c1.4,1.7,1.3,3.7-0.2,5.1c-1.6,1.4-3.5,1.4-5.1-0.1c-0.5-0.5-0.8-0.6-1.3,0c-2.1,2.5-4.3,5.1-6.5,7.5
		c-0.7,0.8-0.7,1.2,0.1,1.9c1.4,1.2,1.6,3.4,0.4,4.8c-1.2,1.5-3.2,2-4.7,0.9c-0.6-0.4-0.8-0.2-1.1,0.3c-1.5,3-2.9,6.1-4.4,9.1
		c-0.3,0.6-0.8,1.4-0.7,1.8c0.2,0.5,1.1,0.8,1.6,1.2c1.4,1,1.9,2.9,1.2,4.4c-0.8,1.8-2.5,2.6-4.3,2c-0.9-0.3-1.1,0.3-1.2,0.9
		c-0.6,3.6-1.2,7.2-1.9,10.8c-0.2,0.9,0,1.3,1,1.4c2,0.3,3.3,2,3.2,3.8c-0.1,1.9-1.6,3.3-3.6,3.5c-0.7,0-0.9,0.3-0.8,0.9
		c0.3,3.3,0.6,6.6,0.9,9.9c0.1,0.9,0.4,1.6,1.5,1.1c0.2-0.1,0.6,0,0.8,0.1c1.7,0.4,2.9,1.7,3,3.3c0.1,1.8-0.7,3.1-2.6,3.8
		c-0.7,0.2-0.8,0.6-0.6,1.2c1.2,3.1,2.4,6.2,3.6,9.4c0.3,0.7,0.5,0.9,1.3,0.6c1.5-0.8,3.3-0.2,4.4,1.2c1,1.3,0.9,3.3-0.3,4.5
		C187.1,238.3,186.6,238.6,185.9,239.2z M207,292.3c-0.1-0.1-0.2-0.1-0.4-0.2c0.1-0.4,0.2-0.9,0.4-1.3c0.3-0.8,0.7-1.5,1.1-2.3
		c0.9-1.9,0.8-1.9,2.6-1c0.1,0,0.2,0.1,0.3,0.2c0.1,0.2,0.3,0.6,0.2,0.7c-0.7,1.4-1.2,3.1-2.3,4.2c-1.1,1.1-1.6,2.5-2.4,3.7
		c-0.4,0.6-0.2,0.9,0.4,1.2c2.4,1.2,4.7,2.3,7.1,3.5c0.5,0.3,0.9,0.2,1.1-0.3c0.5-1,1-2,1.5-3c0.1-0.2,0-0.5,0-0.7
		c0.1-0.6,0-1.2,0.2-1.6c1.4-3.1,2.9-6.2,4.4-9.3c0.5-1,0.8-2.1,1.6-2.7c1.4-1,1.9-2.5,2.7-3.9c0.4-0.6,0.2-1-0.4-1.3
		c-2.4-1.2-4.7-2.3-7.1-3.5c-0.3-0.1-0.9,0-1,0.2c-0.6,1-1.2,2.1-1.6,3.3c-0.2,0.5,0,1.2-0.1,1.7c-0.4,1-1,2-1.4,3
		c-0.2,0.5-0.5,0.6-1,0.3c-1.7-1-1.8-0.9-0.9-2.7c0.1-0.2,0.2-0.4,0.4-0.7c1.1-1.7,2.1-3.3,3.2-5c0.5-0.7,0.3-1.1-0.5-1.5
		c-2.3-1.1-4.5-2.2-6.7-3.3c-0.6-0.3-0.9-0.2-1.2,0.4c-0.6,1.4-1.8,2.5-1.3,4.3c0.1,0.3-0.2,0.8-0.3,1.1c-1.7,3.5-3.4,7-5.1,10.5
		c-0.3,0.7-0.9,1.2-1.4,1.8c-0.4,0.5-0.9,1-1.3,1.5c-0.4,0.6-0.6,1.3-1,1.9c-0.4,0.6-0.3,0.9,0.3,1.2c2.4,1.2,4.7,2.4,7.1,3.5
		c0.2,0.1,0.7,0.1,0.7,0C205.7,295,206.3,293.6,207,292.3z M314.6,267.5c0-0.4,0-0.6,0.1-0.8c0.9-1.4,0.5-2.7-0.2-4
		c-0.8-1.6-1.9-3-3.5-3.9c-0.8-0.4-1.9-0.8-2.7-0.6c-1.3,0.2-2.8,0.7-3.8,1.5c-3.5,2.7-6.8,5.5-10.2,8.3c-0.2,0.2-0.2,0.8-0.1,1
		c0.6,0.9,1.4,1.7,2.1,2.5c0.2,0.2,0.4,0.5,0.7,0.5c1,0,1.5,0.7,2.1,1.3c2.2,2.6,4.4,5.1,6.6,7.8c0.7,0.9,1.7,1.7,1.5,3
		c0,0.2,0.2,0.4,0.3,0.6c0.6,0.8,1.3,1.5,1.9,2.3c0.4,0.5,0.7,0.5,1.2,0.1c2.1-1.8,4.2-3.5,6.3-5.3c0.2-0.2,0.3-0.8,0.1-0.9
		c-1.1-1-1.7-2.7-3.4-3c-0.2,0-0.4-0.2-0.5-0.4c-0.7-0.8-1.5-1.6-2.2-2.5c-0.5-0.5-0.3-0.9,0.3-1.1c1.1-0.6,1.8-0.3,3,1
		c1.4,1.5,2.9,2.9,4.4,4.3c0.5,0.5,0.9,0.4,1.5,0c1.3-1.2,2.6-2.3,4-3.4c1.5-1.3,1.6-1.3,0.3-2.8c-0.5-0.6-1.2-1.2-1.8-1.8
		c-0.7-0.6-1.5-1-2.2-1.6c-0.7-0.7-1.3-1.5-2-2.2c-0.8-0.8-1.7-1-2.7-0.5C315.3,267.3,315,267.4,314.6,267.5z M329.9,248.6
		c0-0.9,0.2-1.7,0-2.5c-0.6-2.2-2.3-3.4-4.1-4.4c-1.9-1.1-3.8-1.2-5.6,0.2c-0.7,0.5-1.6,1.1-2.1,1.8c-2.7,3.4-5.3,6.8-7.9,10.2
		c-0.1,0.2,0,0.8,0.2,0.9c0.7,0.7,1.6,1.2,2.4,1.8c0.3,0.2,0.7,0.4,1.1,0.5c0.5,0.2,1.2,0.2,1.7,0.5c2.5,1.8,5,3.6,7.4,5.4
		c1.4,1.1,3.3,1.9,3.8,3.9c0,0.2,0.3,0.4,0.5,0.5c0.7,0.5,1.4,1,2.1,1.5c0.5,0.4,0.8,0.4,1.2-0.1c1.6-2.2,3.3-4.3,4.8-6.5
		c0.2-0.2,0.1-0.8,0-0.9c-1.3-0.8-2.2-2.4-4.1-2.2c-0.2,0-0.5-0.2-0.7-0.3c-0.9-0.6-1.8-1.3-2.7-1.9c-0.5-0.3-0.5-0.6,0-1
		c1-0.8,1.7-0.8,2.8-0.1c1.9,1.2,3.9,2.3,5.8,3.5c0.5,0.3,0.9,0.2,1.3-0.3c1-1.4,2-2.7,3-4c1.3-1.9,1.3-1.9-0.6-3.3
		c-0.6-0.4-1.2-0.7-1.8-1c-0.7-0.3-1.4-0.4-2-0.7c-0.7-0.4-1.4-1-2.1-1.5c-1.2-0.9-2.5-1.2-3.8-0.1
		C330.3,248.6,330.1,248.6,329.9,248.6z M246.8,91.9c0,0.1,0,0.2,0,0.2c-2.1,0-4.1,0-6.2,0c-0.3,0-0.9,0.3-0.9,0.5
		c0.2,1.6-0.7,3.3,0.7,4.8c0.3,0.3,0.5,1,0.5,1.5c0.1,4.1,0.2,8.1,0.2,12.2c0,0.4-0.3,0.9-0.5,1.3c-0.2,0.5-0.5,1.1-0.6,1.6
		c-0.1,0.6,0,1.3,0,1.9c0,1.6,0,1.6,1.6,1.5c0.5,0,0.9,0,1.4,0c4-0.2,8-0.3,12-0.7c2.6-0.3,4.7-2.7,4.7-5.2c0.1-4.5,0.1-9-0.1-13.5
		c-0.1-2.5-1.2-4.7-3.9-5.4c-1.3-0.4-2.7-0.6-4.1-0.6C250.1,91.8,248.4,91.9,246.8,91.9z M234.1,292.1c-0.6,0.5-1.1,0.8-1.6,1.3
		c-2,2-2,4.6-1.6,7.1c0.6,3.6,2.4,5.1,6,5.2c3.8,0.1,7.6,0.2,11.3,0.4c0.9,0,1.2-0.2,1.2-1.1c0-2.9,0.2-5.7,0.3-8.5
		c0-0.3,0.1-0.8,0.3-0.8c0.9-0.2,0.8-1,0.8-1.6c0-0.8,0-1.6,0-2.4c0-0.9-1.1-2.2-2-2.2c-2-0.1-4-0.2-6-0.2c-0.3,0-0.7,0.3-0.8,0.6
		c-0.2,0.7-0.6,0.8-1.2,0.6c-1.7-0.5-2.4-2.5-1.2-4c0.3-0.4,1-0.7,1.4-0.6c0.4,0,0.9,0.6,1,1c0.2,0.9,0.6,1.1,1.4,1.1
		c1.9,0,3.8,0.1,5.7,0.1c0.8,0,1-0.3,1-1c0-0.9-0.1-1.8,0-2.7c0.2-1.1-0.3-1.6-1.2-2c-2.2-1.1-4.5-1.6-6.8-1.9c-2.6-0.3-5-0.1-7.5,1
		C230.7,282.9,229.9,290.4,234.1,292.1z M188.8,285.3c2.2-0.2,5-1.8,6.6-4c2.2-2.9,2.2-5.8,0.1-8.8c-0.6-0.9-1.4-1.7-1.9-2.6
		c-0.6-1-1.1-2.1-0.4-3.3c0.4-0.7,1-0.9,1.7-0.6c0.8,0.3,1.1,0.9,0.8,1.6c-0.2,0.5-0.6,0.9-0.8,1.3c-0.1,0.3-0.2,0.8-0.1,1
		c1.5,1.3,3,2.6,4.6,3.8c0.2,0.2,0.8,0.1,1-0.1c1.1-1.2,2.1-2.4,3-3.6c0.2-0.3,0.3-0.8,0.1-1.2c-1.5-3.8-4-6.7-7.5-8.8
		c-1.4-0.9-3-1.6-4.6-1.3c-3.2,0.4-5,2.7-6.3,5.4c-1.2,2.3-0.3,4.4,1,6.3c0.7,1.1,1.6,2.2,2.2,3.4c0.9,1.6,0.7,2.5-0.6,3.8
		c-0.5,0.5-1,0.7-1.6,0.2c-0.6-0.5-1-1.1-0.6-1.9c0.2-0.5,0.5-1,0.9-1.3c0.7-0.6,0.5-1-0.1-1.5c-1.5-1.3-3-2.6-4.6-3.9
		c-0.4-0.4-0.8-0.4-1.1,0.1c-1,1.3-2.1,2.5-3.1,3.8c-0.6,0.6-0.7,1.3-0.3,2.1c1.7,4.1,4.6,7,8.5,9
		C186.5,284.7,187.7,285,188.8,285.3z M285.7,119.2c0-1.1,0.5-1.4,1.5-0.9c0.4,0.2,0.8,0.4,1.2,0.6c0.4,0.2,0.7,0.5,1.1,0.7
		c-0.3,0.4-0.6,0.8-0.9,1.2c-0.4,0.6-1,1.1-1.4,1.7c-0.3,0.5-0.5,1.2-0.8,1.7c-0.4,0.7-0.2,1.1,0.5,1.3c2.5,1.1,5,2.3,7.5,3.4
		c0.2,0.1,0.9-0.1,0.9-0.3c0.5-1.5,1.9-2.8,1.2-4.7c-0.2-0.5,0-1.1,0.1-1.7c0.2-1.1,0.6-2.3,0.9-3.4c1.1-4.6,2.3-9.1,3.4-13.7
		c0.2-0.7,0-1.1-0.7-1.4c-2.8-1.3-5.6-2.5-8.5-3.9c-0.6-0.3-1-0.3-1.4,0.4c-2.5,3.6-5,7.1-7.4,10.7c-1.1,1.5-2,3.4-3.3,4.5
		c-1.5,1.3-2.1,2.9-2.9,4.5c-0.1,0.2,0.1,0.8,0.4,1c2.1,1,4.2,2,6.4,3c0.2,0.1,0.9-0.1,0.9-0.3C284.9,122.3,286.3,121,285.7,119.2z
		 M285.1,295.5c-0.1,0-0.1,0-0.2,0c0,0.3-0.1,0.7,0,0.9c0.6,1.2,1.1,2.4,1.8,3.5c0.1,0.2,0.6,0.3,0.8,0.2c2.1-1,4.3-2.1,6.4-3.3
		c0.2-0.1,0.4-0.7,0.3-0.9c-0.9-1.3-1.1-3-2.7-3.9c-1-0.6-0.9-1.1,0.2-1.7c0.4-0.2,0.8-0.4,1.2-0.6c0.4-0.2,0.8-0.2,1.3-0.3
		c0.1,0.5,0.3,1.1,0.4,1.6c0.1,0.3-0.1,0.7,0,1c0.4,1,0.9,1.9,1.5,2.8c0.1,0.2,0.7,0.5,1,0.4c2.5-1.2,4.9-2.5,7.3-3.7
		c0.6-0.3,0.9-0.7,0.4-1.3c-0.2-0.3-0.3-0.7-0.6-1c-0.5-0.7-0.9-1.5-1.5-2.1c-0.7-0.8-1.7-1.3-2.3-2.2c-3.5-4.5-7-9-10.4-13.6
		c-0.4-0.5-0.7-0.6-1.2-0.3c-2.5,1.3-5,2.6-7.5,3.8c-1.8,0.9-1.8,0.9-1.2,2.8c1.5,4.9,3,9.8,4.4,14.7
		C284.7,293.5,284.9,294.5,285.1,295.5z M164.9,261.9c0.1,0,0.2,0,0.3-0.1c1.1-1.1,2.7-1.5,3.4-3.1c0.2-0.5,0.6-0.8,1-1.2
		c0.3,0.3,0.6,0.5,0.9,0.8c0.3,0.3,0.6,0.7,0.8,1c0.2,0.4,0.4,0.8,0.6,1.2c-0.5,0.2-0.9,0.5-1.4,0.7c-0.4,0.2-0.9,0.1-1.3,0.3
		c-0.8,0.5-1.6,1.1-2.4,1.8c-0.2,0.2-0.3,0.8-0.1,1c1.6,2.2,3.3,4.4,5,6.5c0.2,0.2,0.7,0.6,0.8,0.5c1.1-0.8,2.7-1.5,3.1-2.6
		c0.8-1.9,2.1-3.2,3.3-4.6c3.3-3.7,6.6-7.4,9.9-11.1c0.2-0.2,0.3-0.8,0.1-1.1c-2-2.7-4-5.4-6.1-8c-0.2-0.2-0.7-0.3-1-0.2
		c-3.9,2-7.8,4.1-11.8,6c-2.1,1-4.1,2.7-6.6,2.8c-0.3,0-0.5,0.2-0.7,0.4c-0.8,0.6-1.5,1.2-2.3,1.7c-0.6,0.4-0.6,0.8-0.2,1.3
		c1.4,1.8,2.8,3.6,4.2,5.4C164.6,261.7,164.8,261.8,164.9,261.9z M171.7,244c2-1.1,3.9-2.1,5.7-3.1c0.3-0.2,0.6-0.9,0.6-1.3
		c-0.1-4.1-1.5-7.7-3.9-11c-2.3-3.2-5.3-4.1-8.9-2.3c-3.7,1.8-7.2,3.8-10.8,5.9c-2.2,1.2-3.2,3.2-3.2,5.8c0,2,0.7,3.7,1.6,5.4
		c1.3,2.5,2.8,4.8,5.2,6.4c0.7,0.5,1.4,0.9,2.3,0.5c2-1.1,4-2.2,6-3.3c0.2-0.1,0.4-0.8,0.3-1c-0.9-1.8-1.9-3.6-2.9-5.4
		c-0.4-0.7-0.7-0.7-1.4-0.3c-0.9,0.5-1.8,1-2.7,1.5c-0.7,0.4-1.4,0.3-1.9-0.4c-0.5-0.7-0.1-1.3,0.3-1.8c0.3-0.3,0.6-0.5,1-0.7
		c2.5-1.4,5.1-2.8,7.6-4.1c0.9-0.5,1.8-1.1,2.8-1.3c0.5-0.1,1.3,0.3,1.6,0.8c0.2,0.2-0.1,1.1-0.5,1.5c-0.5,0.5-1.2,0.8-1.8,1.1
		c-0.6,0.3-0.9,0.5-0.4,1.2c0.5,0.7,0.8,1.5,1.2,2.2C170.3,241.4,171,242.6,171.7,244z M268.9,305.1c1.9-0.4,3.9-0.7,5.7-1.3
		c1.8-0.6,3.7-1.3,5.1-2.8c0.3-0.4,0.7-1,0.6-1.5c-0.4-2.2-0.9-4.5-1.4-6.7c-0.1-0.6-0.4-0.9-1.1-0.7c-1.9,0.5-3.7,0.9-5.6,1.2
		c-0.9,0.2-1.1,0.5-0.9,1.4c0.3,1.1,0.6,2.2,0.6,3.3c0,0.5-0.5,1.2-0.9,1.3c-0.3,0.1-1-0.3-1.4-0.6c-0.3-0.3-0.4-0.8-0.5-1.3
		c-0.6-2.5-1.1-5-1.6-7.5c-0.2-1.1-0.5-2.3-0.8-3.4c-0.2-0.9,0.4-2,1.2-2.1c1-0.2,1.4,0.5,1.6,1.4c0.1,0.5,0.2,1.1,0.3,1.6
		c0.1,0.6,0.4,1,1.1,0.8c2.1-0.4,4.1-0.9,6.2-1.3c0.2-0.1,0.6-0.6,0.5-0.8c-0.3-1.5-0.6-3-1-4.5c-0.4-1.9-0.8-2.3-2.8-2.5
		c-0.3,0-0.6-0.1-1-0.1c-3.8-0.4-7.4,0.1-10.8,1.8c-2.5,1.2-3.7,4-3.1,7.1c0.7,3.7,1.5,7.5,2.3,11.2c0.2,0.7,0.4,1.5,0.7,2.1
		C263.2,304,265.8,305,268.9,305.1z M334.2,230.3c-0.4,0.1-0.7,0.2-1,0.3c-2.1,0.2-3.8-0.7-5.6-1.6c-0.8-0.4-1.1-0.2-1.5,0.6
		c-1,2.1-2,4.3-3,6.4c-0.3,0.6-0.1,0.9,0.5,1.2c1.5,0.6,2.8,1.3,4.7,1.1c3.6-0.4,7.2-0.4,10.8-0.2c1.5,0.1,3.1,1.1,4.3,2.1
		c0.6,0.5,1.1,1.1,1.8,1.5c0.5,0.3,1.1,0.5,1.6,0.8c0.7,0.4,1,0.3,1.4-0.5c0.8-1.8,1.6-3.6,2.5-5.3c1.4-2.6,1.4-2.6-1.4-3.8
		c-0.5-0.2-1.2-0.7-1.6-0.5c-1,0.4-1.8,0-2.7-0.4c-1.6-0.6-2.9-1.5-3.9-3c-1.9-2.7-3.9-5.2-5.9-7.8c-0.3-0.4-0.7-0.7-1.1-0.9
		c-0.7-0.4-1.5-0.7-2.2-1c-0.6-0.3-1-0.2-1.2,0.5c-0.8,1.8-1.5,3.5-2.4,5.3c-0.6,1.2-0.5,1.2,0.7,1.9c1.5,0.8,3,1.9,4.5,2.8
		C333.7,229.6,333.9,229.9,334.2,230.3z M278.9,95.8c-0.3-0.2-0.6-0.6-0.9-0.7c-2.6-0.6-5.3-1.2-7.9-1.8c-0.7-0.2-1,0.1-1.1,0.8
		c-0.2,0.9-0.4,1.7-0.5,2.6c-0.1,0.4,0,0.8,0.1,1.1c0.1,0.6,0.3,1.1,0.2,1.6c-0.7,3.4-1.4,6.8-2.1,10.1c-0.2,1-0.3,2.2-0.9,2.8
		c-1.3,1.3-1.2,3-1.8,4.5c-0.2,0.6-0.1,1,0.5,1.2c2.7,0.6,5.5,1.3,8.2,1.8c0.3,0.1,0.8-0.3,0.9-0.5c0.2-1.5,1.3-3,0.4-4.7
		c-0.1-0.3-0.1-0.7,0-1c0.9-4,1.7-7.9,2.6-11.9c0.1-0.5,0.3-1.2,0.7-1.5C278.4,99.1,278.2,97.4,278.9,95.8z M202.7,109.1
		c0.1,0,0.2-0.1,0.2-0.1c0-0.3,0.1-0.7-0.1-0.9c-0.5-1.1-1.1-2.1-1.7-3.1c-0.1-0.2-0.7-0.2-1-0.1c-2,1.1-4,2.2-6,3.3
		c-1.9,1.1-2,1.1-1,2.9c0.4,0.7,0.8,1.4,1.4,2c0.5,0.7,1.3,1.2,1.8,1.9c1.2,1.9,2.3,3.8,3.3,5.7c1.1,2.2,3.1,4.1,2.8,6.9
		c0,0.1,0,0.1,0.1,0.2c0.5,1,1,2,1.6,2.9c0.2,0.2,0.8,0.5,1,0.3c2.5-1.3,4.9-2.7,7.4-4.1c0.2-0.1,0.5-0.6,0.4-0.7
		c-0.7-1.2-1.5-2.4-2.3-3.5c-0.5-0.7-1.3-1.1-1.7-1.8c-1.7-3-3.4-6-5.1-9C203.5,111,203.1,110,202.7,109.1z"/>
	<path class="st1" d="M185.9,239.2c0.7-0.6,1.1-0.9,1.5-1.4c1.2-1.3,1.3-3.2,0.3-4.5c-1-1.4-2.8-2-4.4-1.2c-0.8,0.4-1,0.2-1.3-0.6
		c-1.2-3.1-2.4-6.2-3.6-9.4c-0.3-0.6-0.1-1,0.6-1.2c1.8-0.7,2.7-2,2.6-3.8c-0.1-1.6-1.3-2.9-3-3.3c-0.3-0.1-0.6-0.2-0.8-0.1
		c-1.2,0.5-1.4-0.1-1.5-1.1c-0.3-3.3-0.6-6.6-0.9-9.9c-0.1-0.6,0.2-0.9,0.8-0.9c2-0.1,3.4-1.6,3.6-3.5c0.1-1.8-1.2-3.5-3.2-3.8
		c-1-0.1-1.2-0.5-1-1.4c0.6-3.6,1.2-7.2,1.9-10.8c0.1-0.6,0.2-1.2,1.2-0.9c1.8,0.6,3.5-0.3,4.3-2c0.7-1.5,0.2-3.4-1.2-4.4
		c-0.6-0.4-1.4-0.7-1.6-1.2c-0.2-0.5,0.4-1.2,0.7-1.8c1.5-3,2.9-6.1,4.4-9.1c0.2-0.5,0.5-0.7,1.1-0.3c1.6,1,3.5,0.6,4.7-0.9
		c1.1-1.5,1-3.6-0.4-4.8c-0.8-0.7-0.9-1.1-0.1-1.9c2.2-2.5,4.4-5,6.5-7.5c0.5-0.6,0.8-0.5,1.3,0c1.6,1.6,3.5,1.6,5.1,0.1
		c1.5-1.3,1.6-3.4,0.2-5.1c-0.4-0.4-0.4-0.7,0.1-1c3-2.1,6.1-4.1,9.1-6.2c0.6-0.4,0.8,0,1.1,0.4c1.7,2.5,5.1,2.3,6.3-0.3
		c0.4-0.8,0.3-2,0.1-2.9c-0.1-0.6-0.1-0.9,0.5-1.1c3.5-1.2,7-2.4,10.5-3.6c0.8-0.3,0.9,0.2,1.1,0.7c0.6,1.6,1.8,2.5,3.4,2.5
		c1.6,0,2.7-0.8,3.4-2.2c0.3-0.6,0.1-1.3,0.3-2c0.1-0.3,0.4-0.8,0.7-0.8c3.7-0.3,7.4-0.5,11.1-0.8c0.8-0.1,1.2,0.2,1.2,1.1
		c0.1,1.8,1.6,3.2,3.4,3.3c1.5,0.1,3.3-1.1,3.7-2.7c0.2-0.8,0.5-1.1,1.2-0.9c3.4,0.7,6.9,1.5,10.3,2.3c0.2,0.1,0.5,0.6,0.5,0.8
		c-0.2,2.1,0.7,3.9,2.4,4.4c1.8,0.6,3.5-0.2,4.5-2.1c0.1-0.2,0.2-0.3,0.4-0.6c2.1,1,4.2,2,6.3,3c1.1,0.6,2.2,1.2,3.3,1.8
		c0.6,0.3,0.7,0.6,0.4,1.3c-0.7,1.7-0.2,3.6,1.3,4.5c1.6,1,3.3,0.8,4.7-0.7c0.4-0.4,0.7-0.5,1.2-0.1c2.6,2.4,5.3,4.7,7.9,7
		c0.5,0.5,0.6,0.8,0.1,1.4c-1.3,1.5-1.2,3.4,0,4.9c1.2,1.4,3,1.6,4.7,0.5c0.5-0.3,0.8-0.3,1.1,0.2c1.8,2.7,3.5,5.3,5.3,8
		c0.5,0.7,0,0.9-0.4,1.2c-1.2,0.9-1.7,2.2-1.4,3.7c0.3,1.6,1.3,2.5,2.8,2.9c0.5,0.1,1.3,0.1,1.8-0.1c0.8-0.4,1.1-0.1,1.4,0.6
		c0.9,2.4,1.6,4.9,2.6,7.2c0.6,1.4,0.6,2.3-0.9,3.3c-1.2,0.7-1.6,2.2-1.1,3.6c0.5,1.6,1.6,2.5,3.3,2.6c0.7,0,1,0.3,1.1,1
		c0.3,3.5,0.6,7,0.9,10.5c0,0.3-0.4,0.8-0.7,0.9c-1.6,0.5-2.7,1.7-2.8,3.2c-0.1,1.7,0.7,3.1,2.2,3.7c0.8,0.3,1,0.7,0.9,1.5
		c-0.6,3.1-1.1,6.2-1.7,9.4c-0.1,0.6-0.3,1.1-1.2,1.1c-1.9-0.1-3.2,0.8-3.8,2.5c-0.5,1.5,0,3.2,1.5,4.1c0.8,0.5,0.9,1,0.5,1.7
		c-1.4,3-2.9,6.1-4.3,9.1c-0.3,0.6-0.6,0.8-1.3,0.5c-1.4-0.7-3.1-0.2-4,1.1c-1.1,1.4-1.2,3.1-0.2,4.4c1,1.4,1,1.4,0,2.7
		c-1.9,2.3-3.9,4.6-5.8,7c-0.5,0.6-0.8,0.6-1.4,0.1c-1.4-1.2-3.2-1.2-4.6,0c-1.5,1.3-1.9,3.1-0.8,4.7c0.5,0.7,0.5,1.1-0.3,1.6
		c-2.4,1.7-4.8,3.4-7.2,5.2c-0.6,0.4-1,0.5-1.6-0.2c-1-1.3-3-1.6-4.4-0.8c-1.5,0.8-2.3,2.6-1.7,4.3c0.3,0.8-0.1,1-0.6,1.2
		c-2.8,1.1-5.7,2.2-8.6,3.3c-0.8,0.3-1.6,0.5-2.4,0.8c-0.6,0.2-1,0-1.3-0.6c-0.9-1.7-2.4-2.5-4-2.1c-1.7,0.4-2.9,1.8-2.9,3.7
		c0,0.6-0.2,0.9-0.8,0.9c-3.3,0.3-6.5,0.6-9.8,0.9c-0.3,0-0.8-0.5-0.9-0.8c-0.4-2-2.1-3.1-3.5-3.2c-1.7-0.1-3.1,1.1-3.7,3
		c-0.2,0.6-0.4,0.8-1,0.7c-3.5-0.6-6.9-1.2-10.4-1.8c-0.9-0.2-1.4-0.5-1.3-1.6c0.2-1.5-1.1-3-2.6-3.5c-1.4-0.5-3,0-4,1.5
		c-0.5,0.8-0.9,0.9-1.7,0.5c-2.8-1.3-5.6-2.6-8.4-3.9c-0.5-0.2-0.6-0.6-0.4-1.1c0.7-1.8,0.2-3.6-1.4-4.6c-1.5-1-3.3-0.7-4.6,0.8
		c-0.4,0.4-0.6,0.7-1.2,0.2c-2.5-2.1-5.1-4.2-7.6-6.2c-0.6-0.5-0.7-0.8-0.2-1.5c1.7-2.2,0.8-5-1.8-5.8c-1.2-0.4-2.2,0-3.1,0.6
		c-0.4,0.3-0.8,0.6-1.2,0C190.5,245.3,188.2,242.3,185.9,239.2z M287.3,147.3c-0.1,0.1-0.1,0.1-0.2,0.2c0,0-0.1,0.1-0.1,0.1
		c-0.2,0.2-0.5,0.4-0.7,0.6c-0.1,0.1-0.2,0.2-0.3,0.3c-0.2,0.1-0.3,0.3-0.5,0.4c-0.3,0.3-0.6,0.7-0.9,1c-0.4,0.5-0.8,0.9-1.2,1.4
		c0,0,0,0.1-0.1,0.1c-0.2,0.3-0.4,0.6-0.6,0.9l0,0c-1.3,1-1.8,2.4-2.3,3.9c0,0.1,0,0.1-0.1,0.1c-0.3,0.5-0.7,1.1-1,1.6
		c0,0.1,0,0.1-0.1,0.1c-0.1,0.2-0.2,0.3-0.4,0.5c0,0.1,0,0.1-0.1,0.1c-0.7,0.7-1.4,1.4-2.1,2.1c-0.1,0.1-0.2,0.2-0.4,0.3
		c-0.2,0.1-0.3,0.2-0.5,0.4c0,0-0.1,0.1-0.1,0.1c-1.8,0.5-3.7,0.9-5.4,1.6c-1.1,0.4-2,1.2-3,1.8c0,0-0.1,0.1-0.1,0.1
		c-0.3,0.3-0.6,0.5-0.9,0.8c-0.3,0.4-0.7,0.7-1,1.1c-0.2,0.2-0.4,0.5-0.6,0.7c0,0-0.1,0.1-0.1,0.1c-1.7,1.6-2.5,3.8-3.3,5.9
		c0,0.1,0,0.1-0.1,0.1c-0.5,0.6-0.9,1.2-1.4,1.8c-0.3,0.3-0.6,0.6-0.8,0.8c-0.1,0-0.2,0-0.3,0c-1.5,0.8-1.5,0.8-2.4-0.8
		c0-0.1-0.1-0.1-0.1-0.2c-1.4-2.8-2.2-5.8-2.4-9c-0.1-2.2,0.5-4.2,1-6.3c0-0.1,0-0.1,0.1-0.1c0.4-0.8,0.9-1.6,1-2.4
		c0.4-3.6-0.8-6.9-2.1-10.1c-0.6-1.6-1.2-3.1-1.5-4.7c-0.5-2.9-0.9-5.8-0.5-8.8c0-0.3-0.2-0.6-0.3-0.9c-0.2,0.2-0.5,0.4-0.7,0.6l0,0
		c-0.3,0.2-0.7,0.4-0.8,0.6c-0.6,1.3-1.4,2.6-1.7,4c-1,4.1-0.8,8.2-0.3,12.3c0.3,2.4,1,4.7,0.5,7.1c-0.3,1.6-0.9,3.1-1.3,4.7
		c-0.1,0.1-0.1,0.2-0.2,0.2c-0.1,0.2-0.3,0.4-0.4,0.6c0,0,0,0.1-0.1,0.1c-0.2,0.2-0.5,0.4-0.6,0.6c-0.4,1.5-1,3.1-1.1,4.6
		c-0.2,3.4,0.5,6.7,1.6,9.9c0.1,0.2-0.2,0.5-0.2,0.7c-0.1-0.1-0.3-0.2-0.4-0.3c-0.2-0.1-0.3-0.2-0.5-0.4c-0.1,0-0.1,0-0.1-0.1
		c-0.5-0.3-0.9-0.7-1.4-1c-0.1-0.1-0.2-0.2-0.4-0.3c-0.2-0.2-0.5-0.4-0.7-0.6c-0.2-0.2-0.4-0.3-0.6-0.5c-0.2-0.2-0.5-0.4-0.7-0.6
		c-0.1-0.1-0.2-0.2-0.4-0.3c-0.2-0.2-0.5-0.4-0.7-0.6c-0.4-0.4-0.8-0.7-1.2-1.1c-0.4-0.4-0.8-0.9-1.3-1.3c-0.1-0.1-0.2-0.2-0.3-0.3
		c-0.3-0.3-0.5-0.6-0.8-0.9c-0.1-0.1-0.2-0.2-0.3-0.3c-0.1-0.2-0.2-0.3-0.4-0.5c0,0-0.1-0.1-0.1-0.1c-0.4-0.9-1-1.8-1.2-2.8
		c-0.3-1.4-0.3-2.8-0.5-4.2c-0.2-1.5-0.6-3-1.9-4c0,0-0.1-0.1-0.1-0.1c-0.1-0.2-0.2-0.3-0.4-0.5c0,0-0.1-0.1-0.1-0.1
		c-0.1-0.2-0.2-0.3-0.3-0.5c-0.1-0.1-0.2-0.2-0.3-0.3c-0.3-0.4-0.7-0.8-1-1.2c-0.4-0.4-0.8-0.8-1.2-1.2c-0.5-0.4-1-0.9-1.5-1.3
		c-0.3-0.2-0.5-0.5-0.8-0.7c-0.7-0.7-1.4-1.4-2.1-2.1c-0.1-0.1-0.2-0.2-0.3-0.3c-0.3-0.4-0.7-0.8-1-1.2c0,0-0.1-0.1-0.1-0.1
		c-0.2-0.2-0.4-0.5-0.6-0.7c0,0-0.1-0.1-0.1-0.1c0-0.1,0.1-0.2,0-0.3c-1.3-1.8-2.5-3.7-3-5.9c0-0.2-0.4-0.5-0.6-0.4
		c-0.2,0-0.5,0.3-0.6,0.5c-0.8,2.4-0.7,4.8,0.3,7.2c0.4,1,0.9,1.8,1.4,2.7c0,0,0.1,0.1,0.1,0.1c0.3,1.3,1,2.4,2.1,3.3l0,0
		c0.4,0.4,0.7,0.9,1.1,1.3c0,0,0.1,0.1,0.1,0.1c0.8,0.9,1.7,1.8,2.5,2.7c0.1,0.1,0.2,0.2,0.3,0.3c0.1,0.3,0.1,0.6,0.3,0.9
		c1.2,2.1,1.4,4.4,1.1,6.7c-0.4,3.4,0,6.5,1.7,9.5c0.6,1,1.5,1.9,2.2,2.9c0.1,0.1,0.2,0.2,0.3,0.4c0.9,0.9,1.9,1.9,2.8,2.8
		c0.1,0,0.1,0,0.1,0.1c0,0.3,0,0.6,0.1,0.9c0,0-0.1,0.1-0.1,0.1c-1.2-0.3-2.4-0.6-3.6-0.9c0,0-0.1,0-0.1-0.1
		c-0.2-0.1-0.3-0.3-0.5-0.4c-0.9-0.9-1.8-1.7-2.7-2.6c0-0.1-0.1-0.3-0.1-0.4c-1.7-0.9-3.3-1.9-5-2.5c-1.2-0.4-2.8-0.3-4,0.2
		c-2.1,1-4.2,0.9-6.2,0.2c-2.3-0.8-4.5-2-6.6-3.1c-2.5-1.3-4.5-3.3-7.4-3.9c-2.3-0.5-4.5-0.5-6.7,0.3c-0.3,0.1-0.4,0.4-0.7,0.7
		c0.3,0.1,0.6,0.3,0.9,0.3c0.9,0.1,1.9,0.1,2.7,0.4c1,0.3,1.9,0.9,2.9,1.3c0.8,0.8,1.6,1.6,2.3,2.4c0.2,0.3,0.4,0.6,0.6,0.9
		c0.1,0.1,0.2,0.2,0.3,0.4c0.3,0.3,0.5,0.6,0.8,0.9c0,0,0.1,0.1,0.1,0.1c0.6,0.7,1.2,1.3,1.8,2c0.1,0.1,0.1,0.1,0.2,0.2
		c0.4,0.3,0.8,0.7,1.1,1c0.1,0,0.1,0.1,0.1,0.1c0.4,0.3,0.8,0.6,1.2,0.9c0,0,0.1,0,0.1,0.1c0.7,0.4,1.3,0.8,2,1.2
		c0.1,0,0.1,0,0.1,0.1c0.1,0.1,0.2,0.3,0.3,0.4c1.9,1.1,4,1.5,6.2,1.5c2.9,0,5.6,0.9,7.8,2.8c0.7,0.6,1.4,1.1,2.1,1.7
		c0.2,0.2,0.3,0.4,0.5,0.6c0.6,0.7,1.1,1.5,1.7,2.2l0,0c-0.2,0.4-0.2,0.8-0.5,1c-0.5,0.6-1.1,1-1.7,1.5c0,0-0.1,0.1-0.1,0.1
		c-0.2,0-0.3,0-0.5,0.1c-1.6,0.7-3.2,1.6-4.9,2.1c-2.9,1-5.8,1-8.7-0.5c-2.3-1.2-4.7-1.4-7.2-1c-2.9,0.5-5.4,1.9-7.6,3.8
		c-0.1,0.1-0.2,0.1-0.3,0.2c-1,0.3-2,0.7-3.1,1c-2.1,0.6-4.2,1.3-6.4,0.4c-0.2-0.1-0.5,0-0.9,0c0.2,0.9,0.5,1.4,1.4,1.4
		c0.1,0,0.1,0,0.1,0.1c0.2,0.1,0.3,0.2,0.5,0.3c0.1,0,0.1,0,0.1,0.1c0.2,0.1,0.5,0.2,0.7,0.4c0.1,0,0.1,0,0.1,0.1
		c0.3,0.2,0.6,0.5,0.9,0.6c4,1.4,8.1,1,12-0.4c3.3-1.2,6.5-1.8,9.8-0.3c0.1,0.1,0.3,0,0.5,0c0.1,0,0.1,0,0.1,0.1
		c1.2,1.5,2.9,2,4.7,2.2c2.9,0.4,5.8,0.1,8.5-1.2c0.6-0.3,1.5-0.5,2-0.3c0.6,0.2,1.1,0.9,1.4,1.5c0.4,0.7-0.5,0.8-0.9,1.1
		c-0.2,0.2-0.4,0.4-0.6,0.7c-0.1,0.1-0.2,0.2-0.4,0.3c-0.5,0.6-1,1.1-1.6,1.7c-0.1,0.1-0.1,0.2-0.2,0.2c-0.1,0.2-0.3,0.4-0.4,0.6
		l0,0c-0.4,0.5-0.8,1.1-1.2,1.6c-0.2,0.3-0.5,0.5-0.7,0.8c-0.1,0.1-0.1,0.1-0.2,0.2c-0.1,0.1-0.3,0.3-0.4,0.4
		c-0.1,0.1-0.3,0.3-0.4,0.4c-0.1,0.1-0.1,0.1-0.2,0.2c-0.1,0.1-0.1,0.1-0.2,0.2c-0.1,0.1-0.2,0.2-0.3,0.3c-0.2,0.1-0.5,0.1-0.6,0.3
		c-1.5,1.2-3.1,1.9-5,1.6c-0.6-0.1-1.3-0.2-1.8,0c-1.1,0.4-2.1,0.9-3.1,1.4c0,0-0.1,0.1-0.1,0.1c-0.4,0.3-0.8,0.5-1.2,0.8
		c0,0-0.1,0.1-0.1,0.1c-0.4,0.3-0.8,0.7-1.2,1c-0.4,0.4-0.9,0.9-1.3,1.3c-0.6,0.8-1.2,1.6-1.8,2.4c0,0.1,0,0.1-0.1,0.1
		c-0.4,0.6-0.8,1.2-1.2,1.8c0,0,0,0.1-0.1,0.1c-0.1,0.2-0.2,0.3-0.4,0.5c0,0.1,0,0.1-0.1,0.1c-0.3,0.5-0.7,0.9-1,1.4
		c-0.3,0.3-0.6,0.7-0.9,1c-0.1,0.1-0.1,0.1-0.2,0.2c-0.1,0.1-0.2,0.2-0.3,0.3c-0.4,0.3-0.8,0.7-1.2,1c0,0-0.1,0.1-0.1,0.1
		c-0.1,0-0.2,0-0.3,0c-1.6,1.2-3.4,2.1-5.4,2.3c-0.2,0-0.4,0.2-0.4,0.4c0,0.2,0.1,0.4,0.3,0.5c0.6,0.2,1.2,0.5,1.8,0.5
		c2.6,0.2,5-0.7,7.3-1.9c1-0.5,1.9-1.3,2.9-1.9c0,0,0.1-0.1,0.1-0.1c0.7-0.5,1.3-0.9,2-1.4l0,0c0.3-0.2,0.6-0.4,0.8-0.6c0,0,0,0,0,0
		c1.1-1,2.1-2,3.2-3l0,0c0.4-0.2,0.8-0.3,1.2-0.5c1.8-1,3.8-1.6,5.9-1.1c1.8,0.5,3.5,0.5,5.2-0.2c1.4-0.5,2.9-1,3.7-2.4
		c0,0,0.1-0.1,0.1-0.1c0.4-0.4,0.9-0.9,1.3-1.3c0,0,0.1-0.1,0.1-0.1c0.5-0.5,1-1,1.5-1.5c0,0,0,0,0,0c0.3-0.1,0.5-0.2,0.8-0.3
		c1.1-0.5,2.3-1,3.5-1.5c0.2-0.1,0.5,0.2,0.8,0.4l0,0c-0.2,0.1-0.3,0.2-0.5,0.3c-0.2,0.2-0.4,0.4-0.6,0.6c-0.4,0.5-1,1-1.3,1.6
		c-1.6,2.9-1.2,6.4-2.2,9.5c-0.1,0.1-0.1,0.2-0.2,0.3c-0.2,0.2-0.4,0.5-0.5,0.7c-0.3,0.3-0.6,0.6-0.8,0.8c-1,0.6-2.1,1.2-3.1,1.8
		c0,0-0.1,0.1-0.1,0.1c-0.3,0.3-0.6,0.5-0.9,0.8c-0.3,0.3-0.6,0.6-0.8,0.9c-0.1,0.2-0.3,0.3-0.4,0.5c-0.1,0.1-0.2,0.2-0.3,0.3
		c-0.3,0.3-0.6,0.5-0.9,0.9c-1.5,2.4-1.9,5.1-2.3,7.8c-0.4,3.5-1.3,6.9-3.1,10c-0.3,0.5-0.5,1.1-0.7,1.6c0,0,0,0.1-0.1,0.1
		c-0.4,0.3-0.7,0.6-1.1,0.9c-0.1,0.1-0.1,0.4,0,0.6c0,0.1,0.4,0.2,0.5,0.1c1.1-0.7,2.6-0.9,3.2-2.2c0,0,0.1-0.1,0.1-0.1c1-1,2-2,3-3
		c0,0,0-0.1,0.1-0.1c0.2-0.3,0.4-0.6,0.6-0.9l0,0c0.6-0.7,1.3-1.4,1.7-2.2c1.4-2.7,2.7-5.4,4-8.2c0-0.1,0-0.1,0.1-0.1
		c0.4-0.5,0.8-1.1,1.2-1.6c0.3-0.3,0.6-0.6,0.8-0.8c1.4-0.5,2.7-1.1,4.1-1.7c0.5-0.2,0.9-0.7,1.4-1c0.1-0.1,0.2-0.2,0.4-0.3
		c0.2-0.1,0.3-0.3,0.5-0.4c0.2-0.1,0.3-0.3,0.5-0.4c0.1-0.1,0.2-0.2,0.3-0.3c0.4-0.4,0.7-0.8,1.1-1.2c0.2-0.2,0.4-0.5,0.6-0.7
		c0.1-0.1,0.2-0.2,0.3-0.4c0.3-0.4,0.8-0.7,1-1.2c0.8-2.1,1.5-4.3,2.3-6.5c0.3-0.8,0.5-1.5,0.8-2.2c0.1-0.1,0.2-0.2,0.3-0.4
		c0.3-0.3,0.6-0.6,0.9-0.9c0,0,0.1-0.1,0.1-0.1c0.6-0.1,1.1-0.3,1.7-0.4c0.2,0.2,0.3,0.4,0.5,0.6c0.4,2.5-0.1,4.8-1.1,7.1
		c-0.9,2.1-1.5,4.2-1.2,6.5c0.2,1.5,0.5,3.1,1.7,4.2c0.1,0.1,0.2,0.2,0.3,0.4c0.1,0.2,0.2,0.3,0.4,0.5c0.1,0.1,0.2,0.2,0.3,0.4
		c0.3,0.3,0.5,0.6,0.8,0.9l0,0c0.8,1.8,1.3,3.6,1.1,5.7c-0.2,1.6-0.3,3.2-0.5,4.8c-0.4,2.9-0.1,5.8,0.5,8.7c0.3,1.4,0.5,2.9,1.8,3.8
		l0,0c0.3,0.4,0.6,0.7,0.9,1.1c0.1,0.1,0.3,0.3,0.4,0.4c0.4,0.3,0.8,0.6,1.2,0.9c-0.1-1.3-0.5-2.4-0.5-3.5
		c-0.3-3.9,0.7-7.6,2.3-11.1c0.5-1.1,1.2-2.1,1.6-3.3c1.1-3.2,0.8-6.3-1-9.2c-0.4-0.7-1-1.5-1.1-2.3c-0.4-2.1-0.2-4.2,0.6-6.3
		c0.7-1.9,1.5-3.9,2.2-5.8c0.3-0.7,0.5-1.4,0.7-2c0.6,0.3,1.1,0.6,1.6,0.9l0,0c0.3,0.3,0.5,0.7,0.8,0.9c1.3,0.8,2.6,1.5,3.9,2.4
		c1.7,1.1,3.4,2.4,5.1,3.6c0.1,0.1,0.2,0.2,0.3,0.3c0.1,0.8,0.4,1.5,0.4,2.3c-0.1,2.4,0.5,4.6,1.6,6.7c0.3,0.6,0.9,1.1,1.3,1.6
		c0,0,0.1,0.1,0.1,0.1c0.2,0.2,0.4,0.5,0.6,0.7l0,0c0.1,0.1,0.1,0.1,0.2,0.2c0.1,0.1,0.1,0.1,0.2,0.2c0.4,0.4,0.9,0.8,1.3,1.2l0,0
		c0,0.1,0,0.3,0,0.3c1.7,1,3.4,1.9,5.1,2.9c0.1,0,0.1,0,0.1,0.1c0.2,0.2,0.5,0.4,0.7,0.5c0.1,0.1,0.2,0.2,0.3,0.3
		c0.2,0.2,0.5,0.4,0.7,0.6c0.3,0.2,0.5,0.5,0.8,0.7c0.1,0.1,0.1,0.1,0.2,0.2c0,0,0.1,0.1,0.1,0.1c0.3,0.3,0.5,0.6,0.8,0.9l0,0
		c0.1,0.1,0.1,0.1,0.2,0.2c0,0,0.1,0.1,0.1,0.1c0.4,1,0.8,1.9,1.3,2.9c0.1,0.2,0.4,0.4,0.6,0.5c0.2-0.2,0.4-0.4,0.5-0.6
		c0.1-1.1,0.3-2.1,0.2-3.2c-0.2-1.5-0.4-3.2-1.6-4.3c0,0-0.1-0.1-0.1-0.1c-0.3-0.5-0.7-1.1-1-1.6c0,0-0.1-0.1-0.1-0.1
		c-0.2-0.2-0.4-0.5-0.6-0.7c0,0-0.1-0.1-0.1-0.1c-0.2-0.2-0.4-0.5-0.6-0.7c-0.6-0.6-1.3-1.3-1.9-1.9c-0.4-0.4-0.8-0.7-1.3-1.1l0,0
		c-0.7-0.7-1.5-1.4-2.2-2.1l0,0c-0.2-0.2-0.4-0.5-0.6-0.7c0,0-0.1-0.1-0.1-0.1c-0.2-0.5-0.4-0.9-0.5-1.4c-0.2-1.1-0.6-2.2-0.5-3.2
		c0.4-2.4,0-4.8-0.8-7c-0.6-1.8-1.6-3.3-3.6-3.8c-0.1,0-0.1,0-0.1-0.1c-0.3-0.4-0.6-0.7-0.8-1.1c-0.4-0.8-0.8-1.6-1.1-2.5
		c-0.1-0.2,0.4-0.7,0.6-0.7c3.5-0.3,6.9-0.4,10.3,0.8c1.1,0.4,2.1,0.9,3.1,1.3c0.2,0.2,0.4,0.4,0.6,0.6c0.1,0.2,0.2,0.3,0.4,0.5
		c0,0,0.1,0.1,0.1,0.1c0.1,0.2,0.2,0.3,0.3,0.5c0.2,0.2,0.3,0.4,0.5,0.6c0.3,0.4,0.7,0.8,1,1.1c0.2,0.2,0.4,0.4,0.6,0.6
		c1,0.8,2,1.6,3.1,2.3c2.5,1.5,5.4,1.5,8.3,1.8c3.4,0.3,6.5,1.2,9.6,2.6c0.4,0.2,0.8,0.3,1.2,0.4c0.1,0,0.1,0,0.1,0.1
		c0.2,0.1,0.3,0.2,0.5,0.3c0.1,0,0.1,0,0.1,0.1c0.3,0.2,0.6,0.4,0.8,0.6c0.1-0.2,0.3-0.4,0.2-0.5c-0.6-1-1.2-2.1-1.9-3.1
		c-0.1-0.1-0.2-0.2-0.3-0.4c-0.2-0.2-0.4-0.5-0.6-0.7c-0.4-0.4-0.9-0.9-1.3-1.3c-0.2-0.1-0.3-0.3-0.5-0.4c-0.1-0.1-0.2-0.2-0.4-0.3
		c-1.1-0.7-2.1-1.6-3.3-2c-2.1-0.8-4.4-1.3-6.6-2c-1.1-0.4-2.2-0.8-3.3-1.2c-0.1,0-0.1,0-0.1-0.1c-0.5-0.3-1.1-0.7-1.6-1
		c0,0-0.1,0-0.1-0.1c-0.4-0.3-0.8-0.7-1.2-1c-0.1-0.1-0.2-0.2-0.3-0.3c-0.1-0.1-0.3-0.3-0.4-0.4c-0.1-0.1-0.2-0.2-0.3-0.4
		c-0.1-0.2-0.2-0.3-0.4-0.5c0,0-0.1-0.1-0.1-0.1c-0.3-0.8-0.6-1.7-1-2.4c-0.3-0.6-0.9-1.1-1.3-1.7c-0.4-0.4-0.7-0.7-1.1-1.1
		c-0.6-1.2-1.8-1.4-2.8-1.7c-1.5-0.4-3-0.5-4.5-0.9c-0.9-0.2-1.8-0.7-2.7-1c0,0-0.1,0-0.1-0.1c-0.1-0.3-0.3-0.6-0.4-0.7
		c2.8-1.3,5.5-2.7,8.3-3.9c1.2-0.5,2.6-0.8,3.9-0.9c1.7-0.2,3.2,0.5,4.8,1.1c3.6,1.4,7.2,0.6,10.6-0.7c2.4-0.9,4.7-2.1,7.2-2.9
		c2.4-0.7,4.9-1,7.5-0.6c0.3,0.1,0.7-0.2,1-0.3c-0.2-0.4-0.4-0.7-0.7-1.1l0,0c-0.2-0.2-0.4-0.5-0.6-0.7l0,0
		c-0.2-0.2-0.5-0.4-0.7-0.6c-0.1,0-0.1,0-0.1-0.1c-1.1-0.5-2.1-1.5-3.2-1.6c-3.1-0.3-6.3-0.3-9.4,0.7c-1.9,0.6-3.8,1.3-5.7,1.5
		c-2.8,0.3-5.5-0.6-8-2.1c-1.8-1.2-3.8-1.7-6-1.3c-1.9,0.4-3.9,0.7-5.9,1c-0.7,0.1-1.6,0.3-2.1-0.6l0,0c0.4-0.3,0.9-0.7,1.3-1
		c0.3-0.3,0.7-0.6,1-0.9c0.4-0.4,0.7-0.7,1.1-1.1c0.2-0.2,0.3-0.4,0.5-0.6c0.4-0.4,0.7-0.8,1.1-1.3c0,0,0,0,0,0
		c0.3-0.4,0.7-0.7,1-1.1c0.4-0.4,0.8-0.7,1.2-1.1c0.2-0.1,0.3-0.3,0.5-0.4l0,0c0.5-0.2,0.9-0.5,1.4-0.7c1-0.4,2.1-0.8,3.2-1
		c1.2-0.2,2.5,0.1,3.8-0.1c1.7-0.3,3.4-0.7,4.7-2.1c0.1-0.1,0.2-0.2,0.4-0.3c0.2-0.1,0.3-0.2,0.5-0.4c0,0,0.1-0.1,0.1-0.1
		c0.6-0.6,1.2-1.1,1.7-1.7c0.1-0.1,0.2-0.2,0.3-0.3c0.5-0.7,1.1-1.5,1.6-2.2c0-0.1,0.1-0.1,0.1-0.1c0.1-0.1,0.1-0.1,0.2-0.2
		c0.1-0.2,0.3-0.3,0.4-0.5c0.7-0.7,1.4-1.4,2.1-2.2c0.2-0.1,0.3-0.3,0.5-0.4c0.1-0.1,0.2-0.2,0.3-0.3l0,0c0,0,0,0,0,0
		c0.4-0.3,0.8-0.6,1.1-1c0,0,0,0,0,0c0.4-0.2,0.8-0.4,1.2-0.6c1.4-0.7,2.9-1.4,4.3-2.2c0.3-0.2,0.6-0.5,0.9-0.7
		c-0.3-0.2-0.7-0.5-1-0.6c-3.5-0.8-6.7-0.1-9.7,1.6c-0.8,0.5-1.5,1.1-2.2,1.7c-0.7,0.7-1.4,1.3-2,2c-0.2,0.2-0.5,0.4-0.7,0.6
		c-0.2,0.2-0.4,0.3-0.6,0.5c-0.2,0.1-0.3,0.2-0.5,0.4c0,0-0.1,0.1-0.1,0.1c-0.2,0.1-0.3,0.2-0.5,0.3c0,0-0.1,0.1-0.1,0.1
		c-0.4,0.1-0.7,0.2-1.1,0.4c-2.5,1.5-5,2.1-7.9,1.3c-1.2-0.3-2.7-0.3-4-0.2c-1.6,0.2-3.2,0.8-4.3,2.2c0,0-0.1,0.1-0.1,0.1
		c-0.4,0.3-0.8,0.7-1.1,1c-0.1,0.1-0.2,0.2-0.3,0.3c-0.2,0.1-0.5,0.2-0.7,0.3c-1.7,1.3-3.4,2.5-5.5,2.9c-0.6,0.1-1.3,0-2,0
		c0.3-0.7,0.6-1.2,0.8-1.6c0-0.1,0.1-0.1,0.1-0.1c0.2-0.3,0.6-0.5,0.7-0.8c1.3-3.1,2.6-6.2,3.9-9.3c0-0.1,0-0.1,0-0.2
		c0-0.1,0-0.1,0.1-0.1c0.1-0.2,0.2-0.3,0.4-0.5c0.4-0.4,0.8-0.9,1.3-1.3c0.1-0.1,0.2-0.1,0.2-0.2c0,0,0,0,0,0
		c0.7-0.3,1.4-0.6,2.1-0.8c0.9-0.3,2-0.4,2.8-0.9c1.4-0.9,2.7-1.9,3.2-3.7c0-0.1,0-0.1,0.1-0.1c1.2-1.1,1.7-2.6,1.9-4.1
		c0-0.1,0-0.1,0.1-0.1c0.1-0.2,0.3-0.3,0.4-0.5c0.5-1.5,0.9-3.1,1.4-4.6c0.4-1.1,0.9-2.2,1.4-3.3c0-0.1,0.1-0.2,0.1-0.3
		c0-0.1,0.1-0.1,0.1-0.2c0,0,0,0,0,0c0.1-0.2,0.2-0.3,0.3-0.5c0-0.1,0-0.1,0.1-0.1c0.1-0.2,0.2-0.3,0.4-0.5c0,0,0,0,0,0
		c0.4-0.4,0.7-0.9,1.1-1.3c0.4-0.5,0.9-1,1.3-1.4c0.1-0.1,0.1-0.1,0.2-0.2c0.1-0.1,0.2-0.2,0.3-0.3c0.5-0.3,0.9-0.6,1.4-0.9
		c0-0.1-0.1-0.2-0.1-0.4c-0.3-0.1-0.7-0.2-1-0.2c-0.8,0.1-1.5,0.3-2.2,0.6c-0.9,0.4-1.6,1-2.5,1.5c0,0-0.1,0.1-0.1,0.1
		C287.6,147.1,287.4,147.2,287.3,147.3L287.3,147.3z"/>
	<path class="st2" d="M207,292.3c-0.7,1.3-1.3,2.6-2,3.9c-0.1,0.1-0.5,0.1-0.7,0c-2.4-1.2-4.7-2.4-7.1-3.5c-0.6-0.3-0.8-0.6-0.3-1.2
		c0.4-0.6,0.6-1.3,1-1.9c0.3-0.5,0.8-1,1.3-1.5c0.5-0.6,1.1-1.2,1.4-1.8c1.7-3.5,3.4-7,5.1-10.5c0.2-0.3,0.4-0.8,0.3-1.1
		c-0.4-1.7,0.8-2.9,1.3-4.3c0.2-0.6,0.6-0.7,1.2-0.4c2.2,1.1,4.4,2.3,6.7,3.3c0.8,0.4,0.9,0.7,0.5,1.5c-1.1,1.7-2.1,3.3-3.2,5
		c-0.1,0.2-0.2,0.4-0.4,0.7c-0.9,1.8-0.8,1.8,0.9,2.7c0.5,0.3,0.8,0.2,1-0.3c0.5-1,1-2,1.4-3c0.2-0.5,0-1.2,0.1-1.7
		c0.4-1.1,1-2.2,1.6-3.3c0.1-0.2,0.7-0.3,1-0.2c2.4,1.1,4.7,2.3,7.1,3.5c0.6,0.3,0.8,0.6,0.4,1.3c-0.8,1.4-1.3,2.9-2.7,3.9
		c-0.8,0.6-1.2,1.8-1.6,2.7c-1.5,3.1-3,6.2-4.4,9.3c-0.2,0.5-0.2,1.1-0.2,1.6c0,0.2,0.1,0.5,0,0.7c-0.5,1-1,2-1.5,3
		c-0.3,0.5-0.6,0.6-1.1,0.3c-2.3-1.2-4.7-2.4-7.1-3.5c-0.6-0.3-0.8-0.6-0.4-1.2c0.8-1.2,1.3-2.6,2.4-3.7c1.1-1.1,1.6-2.8,2.3-4.2
		c0.1-0.2-0.1-0.5-0.2-0.7c0-0.1-0.2-0.1-0.3-0.2c-1.8-0.9-1.8-0.9-2.6,1c-0.3,0.8-0.7,1.5-1.1,2.3c-0.2,0.4-0.3,0.9-0.4,1.3
		C206.8,292.2,206.9,292.3,207,292.3z"/>
	<path class="st2" d="M314.6,267.5c0.4-0.2,0.6-0.2,0.9-0.3c1-0.5,2-0.3,2.7,0.5c0.7,0.7,1.3,1.5,2,2.2c0.7,0.6,1.5,1,2.2,1.6
		c0.7,0.5,1.3,1.1,1.8,1.8c1.3,1.5,1.2,1.5-0.3,2.8c-1.4,1.1-2.7,2.2-4,3.4c-0.5,0.5-1,0.5-1.5,0c-1.5-1.4-3-2.8-4.4-4.3
		c-1.2-1.3-1.9-1.6-3-1c-0.5,0.3-0.8,0.6-0.3,1.1c0.7,0.8,1.5,1.6,2.2,2.5c0.1,0.2,0.3,0.4,0.5,0.4c1.8,0.3,2.3,2,3.4,3
		c0.1,0.1,0,0.7-0.1,0.9c-2.1,1.8-4.2,3.6-6.3,5.3c-0.5,0.4-0.8,0.3-1.2-0.1c-0.6-0.8-1.3-1.5-1.9-2.3c-0.2-0.2-0.4-0.4-0.3-0.6
		c0.2-1.4-0.8-2.2-1.5-3c-2.2-2.6-4.4-5.2-6.6-7.8c-0.6-0.7-1.1-1.3-2.1-1.3c-0.2,0-0.5-0.3-0.7-0.5c-0.7-0.8-1.5-1.7-2.1-2.5
		c-0.2-0.2-0.1-0.9,0.1-1c3.4-2.8,6.7-5.7,10.2-8.3c1.1-0.8,2.5-1.2,3.8-1.5c0.9-0.1,1.9,0.2,2.7,0.6c1.6,0.9,2.7,2.3,3.5,3.9
		c0.6,1.3,1,2.6,0.2,4C314.6,266.9,314.7,267.1,314.6,267.5z M305.8,265.7c-0.2,0-0.5,0.1-0.8,0.2c-1.2,0.6-1.3,0.9-0.4,1.9
		c0.7,0.8,1.3,1.6,2,2.3c0.2,0.2,0.8,0.3,0.9,0.2c0.7-0.6,1.3-1.3,1-2.4C308.1,266.8,306.8,265.7,305.8,265.7z"/>
	<path class="st2" d="M329.9,248.6c0.2-0.1,0.4-0.1,0.6-0.2c1.3-1.1,2.6-0.8,3.8,0.1c0.7,0.5,1.4,1.1,2.1,1.5c0.6,0.3,1.4,0.4,2,0.7
		c0.6,0.3,1.3,0.6,1.8,1c1.9,1.4,1.9,1.4,0.6,3.3c-1,1.4-2,2.7-3,4c-0.4,0.5-0.7,0.6-1.3,0.3c-1.9-1.2-3.9-2.3-5.8-3.5
		c-1.1-0.7-1.8-0.7-2.8,0.1c-0.5,0.4-0.5,0.6,0,1c0.9,0.6,1.8,1.3,2.7,1.9c0.2,0.1,0.5,0.3,0.7,0.3c1.9-0.2,2.8,1.4,4.1,2.2
		c0.2,0.1,0.2,0.7,0,0.9c-1.6,2.2-3.3,4.3-4.8,6.5c-0.4,0.6-0.7,0.5-1.2,0.1c-0.7-0.5-1.4-1-2.1-1.5c-0.2-0.1-0.5-0.3-0.5-0.5
		c-0.5-2-2.3-2.8-3.8-3.9c-2.4-1.9-4.9-3.7-7.4-5.4c-0.4-0.3-1.1-0.3-1.7-0.5c-0.4-0.1-0.8-0.3-1.1-0.5c-0.8-0.6-1.6-1.2-2.4-1.8
		c-0.2-0.2-0.3-0.8-0.2-0.9c2.6-3.4,5.2-6.9,7.9-10.2c0.6-0.7,1.4-1.2,2.1-1.8c1.8-1.3,3.7-1.3,5.6-0.2c1.8,1.1,3.5,2.3,4.1,4.4
		C330,246.9,329.9,247.8,329.9,248.6z M324.4,252c0-1.2-1.3-2.5-2.4-2.9c-1-0.4-1.6,0.3-2.2,0.9c-0.5,0.4-0.5,0.8,0.1,1.2
		c1,0.7,1.9,1.5,2.9,2.2c0.2,0.1,0.7,0.1,0.8,0C324,252.8,324.2,252.2,324.4,252z"/>
	<path class="st3" d="M246.8,91.9c1.7,0,3.4-0.1,5,0c1.4,0.1,2.8,0.3,4.1,0.6c2.7,0.8,3.8,2.9,3.9,5.4c0.2,4.5,0.2,9,0.1,13.5
		c0,2.5-2.2,5-4.7,5.2c-4,0.4-8,0.5-12,0.7c-0.5,0-0.9,0-1.4,0c-1.6,0.1-1.6,0.1-1.6-1.5c0-0.6-0.1-1.3,0-1.9
		c0.1-0.6,0.4-1.1,0.6-1.6c0.2-0.4,0.5-0.9,0.5-1.3c0-4.1-0.1-8.1-0.2-12.2c0-0.5-0.1-1.2-0.5-1.5c-1.4-1.4-0.5-3.2-0.7-4.8
		c0-0.1,0.6-0.5,0.9-0.5c2.1,0,4.1,0,6.2,0C246.8,92.1,246.8,92,246.8,91.9z M252,105.8c-0.1,0-0.2,0-0.2,0c0-2.1,0-4.2,0-6.3
		c0-1.5-0.6-2-2.1-2c-0.6,0-0.8,0.3-0.8,0.8c0.1,4.3,0.3,8.5,0.4,12.8c0,0.7,0.3,0.9,0.9,0.8c1.1-0.1,1.8-0.7,1.9-1.9
		C252,108.7,252,107.2,252,105.8z"/>
	<path class="st3" d="M234.1,292.1c-4.2-1.6-3.4-9.1,0.5-10.8c2.5-1.1,4.9-1.3,7.5-1c2.4,0.3,4.7,0.9,6.8,1.9c0.8,0.4,1.3,0.9,1.2,2
		c-0.1,0.9-0.1,1.8,0,2.7c0,0.7-0.2,1-1,1c-1.9-0.1-3.8-0.1-5.7-0.1c-0.8,0-1.2-0.2-1.4-1.1c-0.1-0.4-0.6-1-1-1
		c-0.5-0.1-1.1,0.2-1.4,0.6c-1.2,1.5-0.5,3.5,1.2,4c0.6,0.2,1,0.1,1.2-0.6c0.1-0.3,0.5-0.6,0.8-0.6c2,0,4,0.1,6,0.2
		c0.9,0,2,1.3,2,2.2c0,0.8,0,1.6,0,2.4c0,0.7,0.1,1.4-0.8,1.6c-0.2,0-0.3,0.5-0.3,0.8c-0.1,2.8-0.2,5.7-0.3,8.5
		c0,0.9-0.3,1.2-1.2,1.1c-3.8-0.2-7.6-0.3-11.3-0.4c-3.7-0.1-5.5-1.5-6-5.2c-0.4-2.5-0.3-5.1,1.6-7.1
		C232.9,292.9,233.5,292.5,234.1,292.1z M241.9,297.8c0-0.7,0.2-1.3,0.1-1.9c0-0.3-0.3-0.8-0.6-0.9c-0.9-0.3-2,0.1-2.3,1
		c-0.2,1.1-0.2,2.3-0.1,3.4c0.1,0.8,1.2,1.2,2.2,1c0.9-0.2,0.6-0.9,0.6-1.5C241.9,298.5,241.9,298.1,241.9,297.8z"/>
	<path class="st4" d="M219.4,97.5c0,0,0,0.1,0.1,0.1c0.2,0.2,0.4,0.5,0.6,0.7c0,0.1,0,0.1,0.1,0.1c0,0.1,0,0.3,0.1,0.4
		c1.7,2.3,3.4,4.7,5.1,7c0.2,0.2,0.5,0.4,0.7,0.5c0.1,0,0.2-0.1,0.2-0.1c-0.3-1-0.5-2.1-0.9-3.1c-0.8-2.1-1.6-4.2-2.5-6.2
		c-0.2-0.6-0.1-1,0.5-1.1c1.9-0.6,3.9-1.1,5.8-1.7c0.6-0.2,1,0,1.1,0.6c0.2,0.9,0.5,1.7,0.7,2.6c0.1,0.3,0,0.7,0,1
		c0,0.6-0.3,1.3-0.1,1.9c0.7,2.9,1.6,5.7,2.4,8.5c0.8,2.9,1.6,5.8,2.4,8.6c0.2,0.6,0.1,1-0.6,1.2c-1.9,0.5-3.7,1-5.6,1.5
		c-0.3,0.1-0.8-0.2-1.1-0.4c-0.7-0.7-1.3-1.6-2-2.4c-1.4-1.7-2.8-3.3-4.2-5c0,0,0-0.1-0.1-0.1c-0.3-0.4-0.6-0.8-0.9-1.1
		c-0.1,0.1-0.3,0.2-0.4,0.2c0.2,0.9,0.4,1.8,0.7,2.6c0.3,0.8,0.4,1.8,1,2.3c0.8,0.8,1.3,1.7,1.5,2.7c0.1,0.6,0.2,1.1,0.5,1.6
		c0.3,0.6,0.2,0.9-0.5,1.1c-1.9,0.5-3.7,1.1-5.6,1.7c-0.5,0.2-0.9,0.2-1.1-0.6c-0.1-0.8-0.4-1.6-0.6-2.4c-0.1-0.4-0.3-0.9-0.2-1.2
		c0.6-0.9,0.3-1.8,0.1-2.7c-0.8-2.8-1.6-5.7-2.4-8.5c-0.5-1.7-0.4-3.6-2.2-4.7c-0.1-0.1-0.2-0.3-0.2-0.5c-0.3-1.1-0.6-2.1-0.9-3.3
		c0.4-0.2,0.8-0.4,1.3-0.5c1.9-0.5,3.8-1.1,5.7-1.5C218.3,97.3,218.9,97.5,219.4,97.5z"/>
	<path class="st3" d="M188.8,285.3c-1.1-0.4-2.3-0.6-3.3-1.1c-3.9-2-6.8-4.9-8.5-9c-0.3-0.8-0.2-1.4,0.3-2.1
		c1.1-1.2,2.1-2.5,3.1-3.8c0.4-0.5,0.7-0.5,1.1-0.1c1.5,1.3,3,2.6,4.6,3.9c0.6,0.5,0.8,0.9,0.1,1.5c-0.4,0.3-0.7,0.8-0.9,1.3
		c-0.4,0.8,0,1.4,0.6,1.9c0.6,0.5,1.1,0.3,1.6-0.2c1.4-1.2,1.6-2.2,0.6-3.8c-0.7-1.2-1.5-2.3-2.2-3.4c-1.3-2-2.1-4-1-6.3
		c1.4-2.6,3.1-5,6.3-5.4c1.7-0.2,3.2,0.5,4.6,1.3c3.4,2.1,6,5,7.5,8.8c0.1,0.3,0.1,0.9-0.1,1.2c-1,1.2-2,2.4-3,3.6
		c-0.2,0.2-0.8,0.3-1,0.1c-1.6-1.2-3.1-2.5-4.6-3.8c-0.2-0.1-0.1-0.7,0.1-1c0.2-0.5,0.7-0.9,0.8-1.3c0.3-0.7,0-1.3-0.8-1.6
		c-0.7-0.3-1.3-0.1-1.7,0.6c-0.7,1.2-0.2,2.3,0.4,3.3c0.6,0.9,1.3,1.7,1.9,2.6c2.1,3,2.1,5.9-0.1,8.8
		C193.8,283.6,191,285.1,188.8,285.3z"/>
	<path class="st2" d="M285.7,119.2c0.6,1.8-0.9,3-1.3,4.6c-0.1,0.2-0.7,0.4-0.9,0.3c-2.1-0.9-4.3-1.9-6.4-3c-0.2-0.1-0.5-0.8-0.4-1
		c0.8-1.6,1.4-3.2,2.9-4.5c1.4-1.2,2.3-3,3.3-4.5c2.5-3.6,5-7.1,7.4-10.7c0.4-0.6,0.8-0.7,1.4-0.4c2.8,1.3,5.6,2.6,8.5,3.9
		c0.7,0.3,0.9,0.7,0.7,1.4c-1.2,4.6-2.3,9.1-3.4,13.7c-0.3,1.1-0.6,2.3-0.9,3.4c-0.1,0.6-0.3,1.2-0.1,1.7c0.7,1.9-0.7,3.2-1.2,4.7
		c-0.1,0.2-0.7,0.4-0.9,0.3c-2.5-1.1-5-2.3-7.5-3.4c-0.6-0.3-0.9-0.7-0.5-1.3c0.3-0.5,0.5-1.2,0.8-1.7c0.4-0.6,0.9-1.1,1.4-1.7
		c0.3-0.4,0.6-0.8,0.9-1.2c-0.4-0.2-0.7-0.5-1.1-0.7c-0.4-0.2-0.8-0.4-1.2-0.6C286.2,117.9,285.7,118.1,285.7,119.2z M292.9,108.1
		c-0.1-0.1-0.3-0.1-0.4-0.2c-0.2,0.3-0.5,0.6-0.7,0.9c-0.9,1.3-1.7,2.6-2.6,3.9c-0.2,0.3-0.4,0.8-0.3,0.9c0.5,0.4,1,0.7,1.6,0.8
		c0.2,0,0.6-0.4,0.7-0.8c0.4-1.3,0.7-2.7,1.1-4C292.5,109.2,292.7,108.7,292.9,108.1z"/>
	<path class="st2" d="M285.1,295.5c-0.2-1-0.4-2-0.7-3c-1.5-4.9-3-9.8-4.4-14.7c-0.6-1.9-0.5-1.9,1.2-2.8c2.5-1.3,5-2.5,7.5-3.8
		c0.6-0.3,0.9-0.2,1.2,0.3c3.5,4.5,6.9,9.1,10.4,13.6c0.6,0.8,1.6,1.4,2.3,2.2c0.6,0.6,1,1.4,1.5,2.1c0.2,0.3,0.3,0.7,0.6,1
		c0.5,0.7,0.2,1-0.4,1.3c-2.4,1.2-4.9,2.5-7.3,3.7c-0.2,0.1-0.8-0.1-1-0.4c-0.6-0.9-1-1.9-1.5-2.8c-0.1-0.3,0-0.7,0-1
		c-0.1-0.5-0.2-1.1-0.4-1.6c-0.4,0.1-0.9,0.2-1.3,0.3c-0.4,0.2-0.8,0.4-1.2,0.6c-1.1,0.5-1.2,1.1-0.2,1.7c1.6,0.9,1.8,2.6,2.7,3.9
		c0.1,0.2-0.1,0.8-0.3,0.9c-2.1,1.1-4.2,2.2-6.4,3.3c-0.2,0.1-0.7,0-0.8-0.2c-0.6-1.1-1.2-2.3-1.8-3.5c-0.1-0.3,0-0.6,0-0.9
		C285,295.5,285,295.5,285.1,295.5z M288,280.9L288,280.9c-0.2-0.7-0.4-1.2-1.4-1.2c0.6,1.9,1.2,3.6,1.8,5.4c0.5,1.4,0.7,1.5,2,0.7
		c0.8-0.5,0.8-0.7,0.1-1.3c0,0,0-0.1-0.1-0.1c-0.2-0.2-0.4-0.5-0.6-0.7c0,0,0-0.1-0.1-0.1c-0.1-0.2-0.2-0.3-0.4-0.5
		c-0.1-0.1-0.2-0.2-0.3-0.4c-0.1-0.2-0.2-0.3-0.4-0.5c0,0,0-0.1-0.1-0.1c-0.1-0.2-0.2-0.3-0.4-0.5c0-0.1,0-0.1-0.1-0.1
		C288.2,281.2,288.1,281.1,288,280.9z"/>
	<path class="st2" d="M164.9,261.9c-0.1-0.1-0.4-0.3-0.5-0.4c-1.4-1.8-2.8-3.6-4.2-5.4c-0.4-0.5-0.4-0.9,0.2-1.3
		c0.8-0.5,1.5-1.2,2.3-1.7c0.2-0.2,0.5-0.4,0.7-0.4c2.6-0.1,4.5-1.8,6.6-2.8c4-1.9,7.9-4,11.8-6c0.2-0.1,0.8,0,1,0.2
		c2.1,2.6,4.1,5.3,6.1,8c0.2,0.2,0.1,0.8-0.1,1.1c-3.3,3.7-6.6,7.4-9.9,11.1c-1.3,1.4-2.6,2.7-3.3,4.6c-0.5,1.1-2,1.8-3.1,2.6
		c-0.1,0.1-0.6-0.3-0.8-0.5c-1.7-2.2-3.4-4.3-5-6.5c-0.1-0.2-0.1-0.8,0.1-1c0.7-0.7,1.5-1.3,2.4-1.8c0.4-0.2,0.9-0.2,1.3-0.3
		c0.5-0.2,0.9-0.5,1.4-0.7c-0.2-0.4-0.4-0.8-0.6-1.2c-0.2-0.4-0.5-0.7-0.8-1c-0.3-0.3-0.6-0.5-0.9-0.8c-0.3,0.4-0.8,0.7-1,1.2
		c-0.6,1.6-2.3,2-3.4,3.1C165.2,261.9,165.1,261.9,164.9,261.9z M180.2,251.9c0-0.1-0.1-0.1-0.1-0.2c-0.2,0-0.5,0-0.7,0.1
		c-1.6,0.9-3.2,1.7-4.7,2.6c-0.2,0.1-0.6,0.6-0.5,0.6c0.3,0.5,0.7,1,1.2,1.5c0.1,0.1,0.6-0.2,0.8-0.4c1-1,1.9-1.9,2.8-2.9
		C179.3,252.8,179.7,252.4,180.2,251.9z"/>
	<path class="st3" d="M171.7,244c-0.7-1.3-1.4-2.6-2.1-3.9c-0.4-0.7-0.8-1.5-1.2-2.2c-0.5-0.7-0.2-0.9,0.4-1.2
		c0.6-0.3,1.3-0.6,1.8-1.1c0.3-0.4,0.7-1.2,0.5-1.5c-0.3-0.4-1.2-0.9-1.6-0.8c-1,0.2-1.9,0.8-2.8,1.3c-2.5,1.4-5.1,2.7-7.6,4.1
		c-0.3,0.2-0.7,0.4-1,0.7c-0.5,0.5-0.9,1.1-0.3,1.8c0.5,0.7,1.2,0.7,1.9,0.4c0.9-0.5,1.9-0.9,2.7-1.5c0.6-0.4,1-0.3,1.4,0.3
		c1,1.8,2,3.6,2.9,5.4c0.1,0.2,0,0.9-0.3,1c-2,1.1-4,2.2-6,3.3c-0.8,0.4-1.6,0-2.3-0.5c-2.3-1.6-3.9-3.9-5.2-6.4
		c-0.9-1.7-1.5-3.4-1.6-5.4c-0.1-2.6,1-4.5,3.2-5.8c3.5-2,7.1-4,10.8-5.9c3.6-1.8,6.5-1,8.9,2.3c2.4,3.3,3.8,6.9,3.9,11
		c0,0.4-0.3,1.1-0.6,1.3C175.6,241.9,173.7,242.9,171.7,244z"/>
	<path class="st3" d="M268.9,305.1c-3.1-0.1-5.7-1.1-7.1-4c-0.3-0.7-0.5-1.4-0.7-2.1c-0.8-3.7-1.6-7.4-2.3-11.2
		c-0.6-3.1,0.7-5.9,3.1-7.1c3.4-1.7,7.1-2.2,10.8-1.8c0.3,0,0.6,0.1,1,0.1c2,0.2,2.4,0.6,2.8,2.5c0.3,1.5,0.7,3,1,4.5
		c0,0.2-0.3,0.8-0.5,0.8c-2,0.5-4.1,0.9-6.2,1.3c-0.7,0.2-1-0.2-1.1-0.8c-0.1-0.5-0.1-1.1-0.3-1.6c-0.2-0.8-0.6-1.5-1.6-1.4
		c-0.8,0.1-1.4,1.2-1.2,2.1c0.2,1.1,0.5,2.3,0.8,3.4c0.5,2.5,1,5,1.6,7.5c0.1,0.4,0.2,1,0.5,1.3c0.4,0.3,1.1,0.7,1.4,0.6
		c0.4-0.2,1-0.9,0.9-1.3c-0.1-1.1-0.3-2.2-0.6-3.3c-0.2-0.9,0-1.2,0.9-1.4c1.9-0.3,3.8-0.8,5.6-1.2c0.7-0.2,1,0.1,1.1,0.7
		c0.5,2.2,1,4.5,1.4,6.7c0.1,0.5-0.3,1.1-0.6,1.5c-1.3,1.6-3.2,2.2-5.1,2.8C272.8,304.4,270.8,304.7,268.9,305.1z"/>
	<path class="st3" d="M334.2,230.3c-0.3-0.4-0.5-0.7-0.7-0.8c-1.5-1-2.9-2-4.5-2.8c-1.2-0.7-1.3-0.7-0.7-1.9
		c0.8-1.7,1.6-3.5,2.4-5.3c0.3-0.7,0.6-0.8,1.2-0.5c0.7,0.4,1.5,0.7,2.2,1c0.4,0.2,0.8,0.6,1.1,0.9c2,2.6,4,5.2,5.9,7.8
		c1,1.4,2.4,2.3,3.9,3c0.8,0.3,1.6,0.7,2.7,0.4c0.4-0.1,1,0.3,1.6,0.5c2.8,1.2,2.7,1.1,1.4,3.8c-0.9,1.7-1.7,3.5-2.5,5.3
		c-0.3,0.8-0.7,0.9-1.4,0.5c-0.5-0.3-1.1-0.5-1.6-0.8c-0.7-0.3-1.2-1-1.8-1.5c-1.3-1-2.8-2-4.3-2.1c-3.6-0.2-7.2-0.2-10.8,0.2
		c-1.9,0.2-3.2-0.5-4.7-1.1c-0.6-0.2-0.8-0.5-0.5-1.2c1-2.1,2-4.2,3-6.4c0.3-0.8,0.7-0.9,1.5-0.6c1.7,0.9,3.5,1.8,5.6,1.6
		C333.5,230.6,333.7,230.4,334.2,230.3z"/>
	<path class="st3" d="M278.9,95.8c-0.6,1.6-0.4,3.2-1.7,4.4c-0.4,0.4-0.6,1-0.7,1.5c-0.9,4-1.8,7.9-2.6,11.9c-0.1,0.3-0.1,0.8,0,1
		c0.8,1.7-0.2,3.1-0.4,4.7c0,0.2-0.6,0.5-0.9,0.5c-2.8-0.6-5.5-1.2-8.2-1.8c-0.6-0.1-0.8-0.6-0.5-1.2c0.6-1.5,0.6-3.2,1.8-4.5
		c0.6-0.6,0.7-1.8,0.9-2.8c0.7-3.4,1.5-6.7,2.1-10.1c0.1-0.5-0.1-1.1-0.2-1.6c0-0.4-0.1-0.8-0.1-1.1c0.1-0.9,0.4-1.7,0.5-2.6
		c0.1-0.7,0.5-0.9,1.1-0.8c2.6,0.6,5.3,1.2,7.9,1.8C278.3,95.2,278.6,95.6,278.9,95.8z"/>
	<path class="st2" d="M202.7,109.1c0.4,0.9,0.8,1.9,1.2,2.8c1.7,3,3.3,6,5.1,9c0.4,0.7,1.2,1.2,1.7,1.8c0.8,1.1,1.6,2.3,2.3,3.5
		c0.1,0.1-0.2,0.6-0.4,0.7c-2.4,1.4-4.9,2.8-7.4,4.1c-0.2,0.1-0.8-0.1-1-0.3c-0.6-0.9-1.1-1.9-1.6-2.9c0-0.1-0.1-0.1-0.1-0.2
		c0.4-2.8-1.7-4.7-2.8-6.9c-1-2-2.1-3.9-3.3-5.7c-0.4-0.7-1.2-1.2-1.8-1.9c-0.5-0.6-1-1.3-1.4-2c-1-1.9-0.9-1.9,1-2.9
		c2-1.1,4-2.3,6-3.3c0.3-0.1,0.9-0.1,1,0.1c0.6,1,1.2,2,1.7,3.1c0.1,0.3,0.1,0.6,0.1,0.9C202.9,109,202.8,109,202.7,109.1z"/>
	<path class="st5" d="M222.3,112.2c1.4,1.7,2.8,3.3,4.2,5c0.7,0.8,1.3,1.6,2,2.4c0.2,0.3,0.8,0.5,1.1,0.4c1.9-0.4,3.7-1,5.6-1.5
		c0.7-0.2,0.8-0.6,0.6-1.2c-0.8-2.9-1.6-5.8-2.4-8.6c-0.8-2.8-1.6-5.7-2.4-8.5c-0.1-0.6,0.1-1.2,0.1-1.9c0-0.3,0.1-0.7,0-1
		c-0.2-0.9-0.5-1.7-0.7-2.6c-0.2-0.6-0.5-0.8-1.1-0.6c-1.9,0.6-3.9,1.1-5.8,1.7c-0.6,0.2-0.7,0.6-0.5,1.1c0.9,2.1,1.7,4.1,2.5,6.2
		c0.4,1,0.6,2.1,0.9,3.1c-0.1,0-0.2,0.1-0.2,0.1c-0.2-0.2-0.6-0.3-0.7-0.5c-1.7-2.3-3.4-4.6-5.1-7c-0.1-0.1-0.1-0.3-0.1-0.4
		c0.3,0.3,0.6,0.5,0.9,0.9c1.2,1.6,2.4,3.3,3.6,4.9c0.1,0.2,0.3,0.2,0.5,0.4c0.1,0.1,0.1,0.2,0.2,0.2c0-0.1-0.1-0.2-0.1-0.3
		c-0.4-1.6-0.7-3.1-1.7-4.5c-0.7-1-0.9-2.5-1.3-3.8c0-0.2,0.5-0.7,0.8-0.8c1.9-0.6,3.9-1.1,5.8-1.7c1.3-0.4,1.7-0.1,2,1.2
		c0.2,0.7,0.4,1.3,0.5,2c0.1,0.6,0,1.2-0.1,1.8c0,0.4-0.1,0.9,0,1.2c1.1,4,2.3,7.9,3.4,11.8c0.5,1.9,1,3.8,1.5,5.8
		c0.2,0.6,0,1-0.7,1.2c-2,0.5-4,1.2-6,1.7c-0.3,0.1-0.9,0-1-0.2c-2.1-2.5-4.1-5.1-6.2-7.6C222.3,112.5,222.3,112.3,222.3,112.2z"/>
	<path class="st5" d="M219.4,97.5c-0.5-0.1-1.1-0.2-1.6-0.1c-1.9,0.5-3.8,1-5.7,1.5c-0.4,0.1-0.8,0.3-1.3,0.5
		c0.3,1.2,0.6,2.2,0.9,3.3c0,0.2,0.1,0.4,0.2,0.5c1.8,1.1,1.7,3,2.2,4.7c0.9,2.8,1.6,5.7,2.4,8.5c0.3,0.9,0.6,1.7-0.1,2.7
		c-0.2,0.2,0.1,0.8,0.2,1.2c0.2,0.8,0.5,1.6,0.6,2.4c0.1,0.8,0.5,0.8,1.1,0.6c1.9-0.5,3.7-1.1,5.6-1.7c0.7-0.2,0.8-0.5,0.5-1.1
		c-0.2-0.5-0.3-1.1-0.5-1.6c-0.2-1.1-0.7-1.9-1.5-2.7c-0.5-0.6-0.7-1.5-1-2.3c-0.3-0.9-0.5-1.7-0.7-2.6c0.1-0.1,0.3-0.2,0.4-0.2
		c0.3,0.4,0.6,0.8,0.9,1.1c-0.1,0.3-0.4,0.7-0.3,0.9c0.5,1.3,0.6,2.8,1.9,3.8c0.6,0.4,0.6,1.7,0.9,2.5c0.1,0.2,0.1,0.3,0.1,0.5
		c0.5,1.9,0.5,1.9-1.5,2.4c-1.7,0.4-3.3,1-5,1.5c-0.8,0.3-1.3,0.1-1.4-0.8c-0.1-0.7-0.4-1.4-0.6-2.2c-0.2-0.8-0.3-1.5-0.1-2.4
		c0.2-0.7,0-1.6-0.3-2.4c-0.9-3.4-1.9-6.9-2.9-10.3c-0.2-0.7-0.8-1.3-1.3-2c-0.2-0.3-0.4-0.5-0.5-0.8c-0.3-0.9-0.6-1.9-0.9-2.8
		c-0.1-0.6-0.1-1.1,0.7-1.3c2.3-0.6,4.6-1.3,7-2C218.8,96.5,219.3,96.7,219.4,97.5z"/>
	<path class="st5" d="M220,98.4c-0.2-0.2-0.4-0.5-0.6-0.7C219.7,97.9,219.8,98.1,220,98.4z"/>
	<path class="st6" d="M246,238.9c-0.1-0.1-0.2-0.2-0.3-0.4c0-0.1,0-0.3,0-0.4c-1.7-3.4-1.4-6.8-0.1-10.2c0.4-1.2,0.9-2.4,1.1-3.6
		c0.2-1.2,0.6-2.5-0.4-3.7c-0.2-0.2-0.3-0.4-0.5-0.6c-0.8-0.8-1.2-0.1-1.7,0.4c-0.1,0-0.1,0-0.1,0.1c-0.3,0.3-0.6,0.6-0.9,0.9
		c-0.1,0.1-0.2,0.2-0.3,0.4c-0.4,0.6-0.8,1.2-1.1,1.9c-0.6,1.6-1,3.3-1.5,5c-0.4,1.1-0.9,2-1.4,3c-0.1,0.1-0.2,0.2-0.3,0.4
		c-0.2,0.2-0.4,0.5-0.6,0.7c-0.4,0.4-0.7,0.8-1.1,1.2c-0.1,0.1-0.2,0.2-0.3,0.3c-0.2,0.1-0.3,0.3-0.5,0.4c-0.2,0.1-0.3,0.3-0.5,0.4
		c-0.1,0.1-0.2,0.2-0.4,0.3c-1.5,0.6-2.9,1.2-4.3,1.8c-0.4,0.2-0.7,0.6-1.1,0.9c-0.3,0.3-0.6,0.6-0.8,0.8c-0.4,0.5-0.8,1.1-1.2,1.6
		c0,0-0.1,0.1-0.1,0.1c-0.3,0.4-0.6,0.7-0.8,1.1c-0.9,1.8-1.7,3.7-2.6,5.5c-0.7,1.3-1.5,2.5-2.3,3.8c0,0,0,0,0,0
		c-0.2,0.3-0.4,0.6-0.6,0.9c0,0-0.1,0.1-0.1,0.1c-1,1-2,2-3,3c-0.1,0-0.1,0-0.1,0.1c-0.9,0.5-1.8,1-2.7,1.6c0-0.1-0.1-0.1-0.1-0.2
		c0.1-0.3,0.2-0.5,0.3-0.8c0,0,0.1-0.1,0.1-0.1c0.2-0.2,0.5-0.4,0.6-0.7c1.8-2.7,2.7-5.8,3.3-8.9c0.4-2.4,0.8-4.8,1.3-7.1
		c0.3-1.2,1.1-2.4,1.6-3.5c0.1-0.1,0.2-0.2,0.3-0.3c0.1-0.2,0.3-0.3,0.4-0.5c0.3-0.3,0.6-0.6,0.8-0.9c0.3-0.3,0.6-0.5,0.9-0.8
		c0.1,0,0.1,0,0.1-0.1c1-0.6,2.1-1.2,3.1-1.8c0.3-0.3,0.6-0.6,0.8-0.8c0.2-0.2,0.4-0.5,0.5-0.7c0.1-0.1,0.1-0.2,0.2-0.3
		c0.3-0.7,0.8-1.3,0.9-2.1c0.5-3.1,0.7-6.3,2.6-9c0.2-0.2,0.4-0.4,0.6-0.6c0.2-0.1,0.3-0.2,0.5-0.3c0,0,0,0,0,0
		c0.2-0.2,0.4-0.3,0.7-0.5c-0.3-0.1-0.5-0.4-0.8-0.3c-1.9,0.1-3.6,0.8-4.9,2.3l0,0c-0.5,0.5-1,1-1.5,1.5c0,0-0.1,0.1-0.1,0.1
		c-0.4,0.4-0.9,0.9-1.3,1.3c-0.1,0-0.1,0-0.1,0.1c-0.2,0.1-0.4,0.1-0.6,0.2c-2.5,1.9-5.2,2.6-8.4,1.9c-2.6-0.6-5.1,0.2-7.1,2.1
		c0,0,0,0,0,0c-1.1,1-2.1,2-3.2,3c0,0,0,0,0,0c-0.3,0.2-0.6,0.4-0.8,0.6c0,0,0,0,0,0c-0.7,0.5-1.3,0.9-2,1.4c-0.1,0-0.1,0-0.1,0.1
		c-2.1,0.9-4.2,1.9-6.3,2.8c-1.6,0.7-3.4,0.5-5.1,0.2c0.3-0.2,0.6-0.3,0.9-0.4c1.5-0.6,3.2-1.1,4.2-2.5c0.1,0,0.1,0,0.1-0.1
		c0.4-0.3,0.8-0.7,1.2-1c0.1-0.1,0.2-0.2,0.3-0.3c0.1-0.1,0.1-0.1,0.2-0.2c0.3-0.3,0.6-0.7,0.9-1c0.3-0.5,0.7-0.9,1-1.4
		c0,0,0.1-0.1,0.1-0.1c0.1-0.2,0.2-0.3,0.4-0.5c0,0,0.1-0.1,0.1-0.1c0.4-0.6,0.8-1.2,1.2-1.8c0,0,0.1-0.1,0.1-0.1
		c0.6-0.8,1.2-1.6,1.8-2.4c0.4-0.4,0.9-0.9,1.3-1.3c0.4-0.3,0.8-0.7,1.2-1c0,0,0.1,0,0.1-0.1c0.4-0.3,0.8-0.5,1.2-0.8
		c0.1,0,0.1,0,0.1-0.1c2.1-0.9,4.2-1,6.4-1.1c1.6,0,3.1-0.9,4.1-2.3c0.1-0.1,0.2-0.2,0.3-0.3c0.1-0.1,0.1-0.1,0.2-0.2
		c0.1-0.1,0.1-0.1,0.2-0.2c0.1-0.1,0.3-0.3,0.4-0.4c0.1-0.1,0.3-0.3,0.4-0.4c0.1-0.1,0.1-0.1,0.2-0.2c0.2-0.3,0.5-0.5,0.7-0.8
		c0.4-0.5,0.8-1.1,1.2-1.6c0,0,0,0,0,0c0.1-0.2,0.3-0.4,0.4-0.6c0.1-0.1,0.1-0.2,0.2-0.2c0.5-0.6,1-1.1,1.6-1.7
		c0.1-0.1,0.2-0.2,0.4-0.3c0.6-0.2,1.2-0.4,1.7-0.7c0.2-0.1,0.4-0.5,0.3-0.8c-0.2-1.7-1.8-2.6-3.4-2.1c-0.4,0.1-0.8,0.3-1.2,0.4
		c-3.6,1.4-7.3,1.7-11,0.1c-0.6-0.3-1.1-0.6-1.7-0.8c0,0-0.1-0.1-0.1-0.1c-0.2-0.1-0.3-0.3-0.5-0.4c-2.8-1.4-5.7-1.1-8.6-0.2
		c-2.3,0.7-4.6,1.2-6.9,1.5c-2.4,0.4-4.9-0.1-7.2-0.9c0,0-0.1-0.1-0.1-0.1c-0.2-0.1-0.5-0.2-0.7-0.4c0,0-0.1-0.1-0.1-0.1
		c-0.2-0.1-0.3-0.2-0.5-0.3c0,0-0.1-0.1-0.1-0.1c-0.1-0.2-0.2-0.5-0.3-0.6c1.2,0,2.3,0.1,3.4,0c2.1-0.2,4.1-0.9,5.9-2.2
		c0.1-0.1,0.2-0.1,0.3-0.2c0.8-0.4,1.6-0.8,2.4-1.3c3.9-2.4,8-3.2,12.4-1.1c0.6,0.3,1.2,0.6,1.8,0.7c3.1,0.9,6,0.3,8.8-0.9
		c1.2-0.5,2.3-1.3,3.5-2c0.1,0,0.1,0,0.1-0.1c0.8-0.5,1.7-1,2.4-1.5c0.5-0.4,0.2-0.8-0.3-1l0,0c-0.6-0.7-1.1-1.5-1.7-2.2
		c-0.2-0.2-0.3-0.4-0.5-0.6c0-0.1-0.1-0.3-0.2-0.4c-2.7-2.7-5.8-4.6-9.8-4.6c-0.6,0-1.2,0-1.8-0.1c-1.6-0.4-3.2-0.9-4.8-1.4
		c0,0-0.1-0.1-0.1-0.1c-0.7-0.4-1.3-0.8-2-1.2c0,0-0.1-0.1-0.1-0.1c-0.4-0.3-0.8-0.6-1.2-0.9c0,0-0.1-0.1-0.1-0.1
		c-0.4-0.3-0.8-0.7-1.1-1c-0.1-0.1-0.1-0.1-0.2-0.2c-0.6-0.7-1.2-1.3-1.8-2c0,0-0.1-0.1-0.1-0.1c-0.3-0.3-0.5-0.6-0.8-0.9
		c-0.1-0.1-0.2-0.2-0.3-0.4c-0.2-0.3-0.4-0.6-0.6-0.9c-0.8-0.8-1.6-1.6-2.3-2.4c-1.2-1.5-3-1.9-4.8-2.4c0.3-0.2,0.6-0.4,1-0.4
		c3.5-0.5,6.6,0.5,9.5,2.4c2.9,2,5.8,3.7,9.2,4.8c1.9,0.6,3.9,0.9,5.8,0.1c1.9-0.9,3.8-0.8,5.7-0.1c1.4,0.6,2.7,1.4,4,2.1
		c0.9,0.9,1.8,1.7,2.7,2.6c0.2,0.1,0.3,0.3,0.5,0.4c0,0,0.1,0.1,0.1,0.1c1.1,1.2,2.5,1.6,3.6,0.9c0.1,0,0.1,0,0.1-0.1
		c0.6-0.3,0.6-0.6-0.1-0.9c0,0-0.1-0.1-0.1-0.1c-0.9-0.9-1.9-1.9-2.8-2.8c-0.1-0.1-0.2-0.2-0.3-0.4c-0.2-0.3-0.3-0.6-0.5-0.9
		c-2.4-3.4-3.7-7.1-2.9-11.4c0.2-1.1,0.2-2.4,0-3.5c-0.3-1.5-0.6-3.1-1.8-4.2c-0.1-0.1-0.2-0.2-0.3-0.3c-0.8-0.9-1.7-1.8-2.5-2.7
		c0-0.1,0-0.1-0.1-0.1c-0.4-0.4-0.7-0.9-1.1-1.3c0,0,0,0,0,0c-0.7-1.1-1.4-2.2-2.1-3.3c0-0.1,0-0.1-0.1-0.1
		c-0.1-0.3-0.1-0.5-0.3-0.8c-1.1-2.4-1.8-4.9-1.4-7.5c0.1-0.5,0.3-1.1,0.4-1.6c0.1,0,0.2,0,0.4,0c0.1,0.4,0.2,0.7,0.4,1.1
		c0.8,1.8,1.5,3.7,3,5c0,0,0,0.1,0.1,0.1c0.2,0.2,0.4,0.5,0.6,0.7c0,0.1,0,0.1,0.1,0.1c0.3,0.4,0.7,0.8,1,1.2
		c0.1,0.1,0.2,0.2,0.3,0.3c0.7,0.7,1.4,1.4,2.1,2.1c0.3,0.2,0.5,0.5,0.8,0.7c0.5,0.4,1,0.9,1.5,1.3c0.4,0.4,0.8,0.8,1.2,1.2
		c0.3,0.4,0.7,0.8,1,1.2c0.1,0.1,0.2,0.2,0.3,0.3c0.1,0.2,0.2,0.3,0.3,0.5c0,0.1,0,0.1,0.1,0.1c0.1,0.2,0.2,0.3,0.4,0.5
		c0,0.1,0,0.1,0.1,0.1c0,0.1,0,0.3,0.1,0.4c1.1,1.9,1.6,3.9,1.5,6.2c-0.1,1.7,0.7,3.2,2,4.4c0,0.1,0,0.1,0.1,0.1
		c0.1,0.2,0.2,0.3,0.4,0.5c0.1,0.1,0.2,0.2,0.3,0.3c0.3,0.3,0.5,0.6,0.8,0.9c0.1,0.1,0.2,0.2,0.3,0.3c0.4,0.4,0.8,0.9,1.3,1.3
		c0.4,0.4,0.8,0.7,1.2,1.1c0.2,0.2,0.5,0.4,0.7,0.6c0.1,0.1,0.2,0.2,0.4,0.3c0.2,0.2,0.5,0.4,0.7,0.6c0.2,0.2,0.4,0.3,0.6,0.5
		c0.2,0.2,0.5,0.4,0.7,0.6c0.1,0.1,0.2,0.2,0.4,0.3c0.5,0.3,0.9,0.7,1.4,1c0,0,0.1,0.1,0.1,0.1c0.2,0.1,0.3,0.2,0.5,0.4
		c0.1,0.1,0.3,0.2,0.4,0.3c0,0.1,0.1,0.3,0.1,0.4c-0.7,0.2-1.4,0.5-2.1,0.7c-9.2,3.3-14.5,12.7-12.2,22.4c1.3,5.7,4.8,10,10,12.5
		c6,2.9,12.1,2.8,17.9-0.6c5.4-3.1,8.5-7.9,9.4-14c0.8-5.5-0.8-10.5-4.4-14.7c-2.9-3.4-6.6-5.6-11-6.4c-2.2-0.4-4.5-0.4-6.7-0.1
		c-0.3-1.2-0.7-2.3-1-3.5c-1.1-4.2-1.5-8.5,0.4-12.6c0,0,0.1-0.1,0.1-0.1c0.1-0.2,0.3-0.4,0.4-0.6c0.1-0.1,0.1-0.2,0.2-0.2
		c0.2-0.1,0.4-0.2,0.4-0.4c0.5-1.7,1.3-3.4,1.4-5.2c0.1-2.6-0.4-5.2-0.7-7.7c-0.4-3.3-0.3-6.5,0.2-9.8c0.3-2,1.2-3.9,2.3-5.6l0,0
		c0.2,0.2,0.6,0.4,0.6,0.6c0,1.3-0.2,2.6-0.1,3.8c0.2,3,0.6,6,1.8,8.8c1.8,4.2,3.5,8.5,1.8,13.1c0,0-0.1,0.1-0.1,0.1
		c-0.2,0.2-0.5,0.4-0.5,0.6c-0.3,1.4-0.8,2.8-0.9,4.3c-0.2,4.3,1.2,8.2,3.1,12c0.3,0.6,0.8,0.7,1.3,0.4c0.4-0.3,0.8-0.7,1.2-1
		c0.3-0.3,0.6-0.6,0.8-0.8c0.5-0.6,0.9-1.2,1.4-1.8c0,0,0.1-0.1,0.1-0.1c1.1-2,2.2-3.9,3.3-5.9c0,0,0.1-0.1,0.1-0.1
		c0.2-0.2,0.4-0.5,0.6-0.7c0.3-0.4,0.7-0.7,1-1.1c0.3-0.3,0.6-0.5,0.9-0.8c0,0,0.1,0,0.1-0.1c0.1,0,0.3,0,0.4-0.1
		c1.4-1,3-1.4,4.8-1.7c1.1-0.2,2.2-1,3.3-1.5c0.1,0,0.1,0,0.1-0.1c0.2-0.1,0.3-0.2,0.5-0.4c0.1-0.1,0.2-0.2,0.4-0.3
		c0.7-0.7,1.4-1.4,2.1-2.1c0,0,0.1-0.1,0.1-0.1c0.1-0.2,0.2-0.3,0.4-0.5c0,0,0.1-0.1,0.1-0.1c0.3-0.5,0.7-1.1,1-1.6
		c0,0,0.1-0.1,0.1-0.1c0.8-1.3,1.5-2.6,2.3-3.9c0,0,0,0,0,0c0.2-0.3,0.4-0.6,0.6-0.9c0,0,0.1-0.1,0.1-0.1c0.4-0.5,0.8-0.9,1.2-1.4
		c0.3-0.3,0.6-0.7,0.9-1c0.2-0.1,0.3-0.3,0.5-0.4c0.1-0.1,0.2-0.2,0.3-0.3c0.2-0.2,0.5-0.4,0.7-0.6c0.1,0,0.1,0,0.1-0.1
		c0.1-0.1,0.1-0.1,0.2-0.2c0,0,0,0,0,0c0.2-0.1,0.3-0.2,0.5-0.4c0.1,0,0.1,0,0.1-0.1c1.6-0.6,3.1-1.6,5-1.6
		c-0.3,0.4-0.4,0.7-0.6,0.9c-0.1,0.1-0.2,0.2-0.3,0.3c-0.1,0.1-0.1,0.1-0.2,0.2c-0.4,0.5-0.9,1-1.3,1.4c-0.4,0.4-0.7,0.9-1.1,1.3
		c0,0,0,0,0,0c-0.1,0.2-0.2,0.3-0.4,0.5c0,0-0.1,0.1-0.1,0.1c-0.1,0.2-0.2,0.3-0.3,0.5c0,0,0,0,0,0c0,0.1-0.1,0.1-0.1,0.2
		c0,0.1-0.1,0.2-0.1,0.3c-0.2,0.2-0.4,0.3-0.5,0.5c-1.4,2.5-2.3,5.1-2.6,7.9c0,0-0.1,0.1-0.1,0.1c-0.6,1.4-1.2,2.8-1.9,4.1
		c0,0-0.1,0.1-0.1,0.1c-0.2,0.2-0.4,0.5-0.6,0.7c-1.3,1.8-2.9,3.2-5.3,3.4c-0.8,0.1-1.5,0.8-2.2,1.2c0,0,0,0,0,0
		c-0.1,0.1-0.2,0.1-0.2,0.2c-0.4,0.4-0.8,0.9-1.3,1.3c-0.1,0.2-0.2,0.3-0.4,0.5c0,0-0.1,0.1-0.1,0.1c-0.2,0.3-0.5,0.5-0.7,0.8
		c-0.6,1.2-1.1,2.5-1.6,3.7c-0.8,2-1.6,3.9-2.4,5.9c0,0-0.1,0.1-0.1,0.1c-0.3,0.3-0.7,0.6-1,0.9c-0.6,0.5-0.4,0.9,0.3,1.1
		c0.4,0.1,0.8,0.2,1.2,0.1c2.8-0.4,5-1.8,7-3.8c0.1-0.1,0.2-0.2,0.3-0.3c0.4-0.3,0.8-0.7,1.1-1c0.1,0,0.1,0,0.1-0.1
		c0.1,0,0.2,0,0.3,0c2.9-2.1,5.9-2.2,9.3-1.4c2.9,0.7,5.4-0.5,7.6-2.3c0,0,0.1,0,0.1-0.1c0.2-0.1,0.3-0.2,0.5-0.3
		c0.1,0,0.1,0,0.1-0.1c0.2-0.1,0.3-0.2,0.5-0.4c0.2-0.2,0.4-0.3,0.6-0.5c0.2-0.2,0.5-0.4,0.7-0.6c0.7-0.7,1.4-1.3,2-2
		c1.7-0.8,3.3-1.8,5-2.5c2.3-0.9,4.7-0.9,7.2-0.2c-0.3,0.2-0.6,0.3-0.9,0.5c-1.6,1-3.2,2-4.8,3c0,0,0,0,0,0c-0.4,0.3-0.8,0.6-1.1,1
		l0,0c0,0,0,0,0,0c-0.1,0.1-0.2,0.2-0.3,0.3c-0.2,0.1-0.3,0.3-0.5,0.4c-0.7,0.7-1.4,1.4-2.1,2.2c-0.1,0.2-0.3,0.3-0.4,0.5
		c-0.1,0.1-0.1,0.1-0.2,0.2c0,0-0.1,0.1-0.1,0.1c-0.5,0.7-1.1,1.5-1.6,2.2c-0.1,0.1-0.2,0.2-0.3,0.3c-0.6,0.6-1.2,1.1-1.7,1.7
		c0,0-0.1,0-0.1,0.1c-0.2,0.1-0.3,0.2-0.5,0.4c-0.1,0.1-0.2,0.2-0.4,0.3c-2.9,1.6-5.9,1.9-9.1,1.8c-1.5,0-2.9,0.9-3.9,2.1l0,0
		c-0.2,0.1-0.3,0.3-0.5,0.4c-0.4,0.4-0.8,0.7-1.2,1.1c-0.3,0.4-0.7,0.7-1,1.1c0,0,0,0,0,0c-0.4,0.4-0.7,0.8-1.1,1.3
		c-0.2,0.2-0.3,0.4-0.5,0.6c-0.4,0.4-0.7,0.7-1.1,1.1c-0.3,0.3-0.7,0.6-1,0.9c-0.4,0.3-0.9,0.7-1.3,1c0,0,0,0,0,0
		c-0.7,0.3-0.4,0.6,0,0.8c0.4,0.2,0.9,0.3,1.4,0.2c1.7-0.2,3.5-0.2,5.2-0.7c2.9-0.9,5.5-0.4,7.9,1.2c1.9,1.2,4,1.7,6.2,1.8
		c2.2,0.2,4.2-0.7,6.2-1.2c4.5-1.2,9-1.9,13.5,0.2c0,0,0.1,0.1,0.1,0.1c0.2,0.2,0.5,0.4,0.7,0.6l0,0c0.2,0.2,0.4,0.5,0.6,0.7
		c0,0,0,0,0,0c0,0.3,0.1,0.6,0.1,0.9c-0.2,0-0.4,0.1-0.5,0c-3.5-0.4-6.9,0.1-10.2,1.5c-2.2,1-4.4,1.9-6.6,2.6
		c-3.2,1-6.5,1.1-9.7-0.5c-1.1-0.6-2.6-0.6-3.8-0.6c-2.3,0.1-4.2,1.3-6.3,2.3c-2.1,1-4.3,1.8-6.6,2.7c0.4,0.3,0.8,0.6,1.3,1
		c0,0,0.1,0.1,0.1,0.1c1.1,1.2,2.6,1.6,4,1.7c2.2,0.2,4.1,0.8,5.9,1.8c0.4,0.4,0.7,0.7,1.1,1.1c0.4,0.7,0.7,1.4,1.1,2.1
		c0.4,0.7,0.8,1.4,1.1,2.1c0,0.1,0,0.1,0.1,0.1c0.1,0.2,0.2,0.3,0.4,0.5c0.1,0.1,0.2,0.2,0.3,0.4c0.1,0.1,0.3,0.3,0.4,0.4
		c0.1,0.1,0.2,0.2,0.3,0.3c0.4,0.3,0.8,0.7,1.2,1c0,0,0.1,0.1,0.1,0.1c0.5,0.3,1.1,0.7,1.6,1c0,0,0.1,0.1,0.1,0.1
		c0.7,0.4,1.4,1,2.2,1.2c2.5,0.8,5.1,1.5,7.6,2.4c1.2,0.4,2.3,1.1,3.4,1.7c0.1,0.1,0.2,0.2,0.4,0.3c0.2,0.1,0.3,0.3,0.5,0.4
		c0.4,0.4,0.9,0.9,1.3,1.3c0.2,0.2,0.4,0.5,0.6,0.7c0.1,0.1,0.2,0.2,0.3,0.4c0.4,0.8,0.8,1.5,1.1,2.3c0.1,0.2-0.2,0.5-0.3,0.7
		c0,0-0.1-0.1-0.1-0.1c-0.2-0.1-0.3-0.2-0.5-0.3c0,0-0.1-0.1-0.1-0.1c-0.3-0.2-0.5-0.5-0.8-0.6c-3.8-2-7.9-2.8-12.1-2.9
		c-2-0.1-3.9-0.5-5.6-1.4c-1.2-0.6-2.4-1.4-3.6-2.1c-0.2-0.2-0.4-0.4-0.6-0.6c-0.3-0.4-0.7-0.8-1-1.1c-0.2-0.2-0.3-0.4-0.5-0.6
		c-0.1-0.2-0.2-0.3-0.3-0.5c0-0.1,0-0.1-0.1-0.1c-0.1-0.2-0.2-0.3-0.4-0.5c-0.2-0.2-0.4-0.4-0.6-0.6c-0.8-0.5-1.6-1.2-2.5-1.6
		c-3.6-1.4-7.3-1.3-11.1-1c-0.3,0-0.8,0.6-0.8,0.9c0,1.7,0.9,2.9,2.3,3.7c0,0,0.1,0.1,0.1,0.1c0.2,0.2,0.5,0.4,0.7,0.6
		c0.7,0.7,1.5,1.3,2,2.1c1.3,2.3,1.6,4.9,1.3,7.5c-0.2,1.9,0,3.7,1.4,5.1c0,0.1,0,0.1,0.1,0.1c0.2,0.2,0.4,0.5,0.6,0.7c0,0,0,0,0,0
		c0.7,0.7,1.5,1.4,2.2,2.1c0,0,0,0,0,0c0.4,0.4,0.8,0.7,1.3,1.1c0.6,0.6,1.3,1.3,1.9,1.9c0.2,0.2,0.4,0.5,0.6,0.7c0,0,0,0.1,0.1,0.1
		c0.2,0.2,0.4,0.5,0.6,0.7c0,0.1,0,0.1,0.1,0.1c0.3,0.5,0.7,1.1,1,1.6c0,0.1,0,0.1,0.1,0.1c0.4,1.2,0.8,2.3,1.1,3.5
		c0.3,1.2,0.4,2.5-0.1,3.9c-0.7-1-1.2-1.9-1.8-2.8c0-0.1-0.1-0.1-0.1-0.1c-0.1-0.1-0.1-0.1-0.2-0.2c0,0,0,0,0,0
		c-0.3-0.3-0.5-0.6-0.8-0.9c0-0.1,0-0.1-0.1-0.1c-0.1-0.1-0.1-0.1-0.2-0.2c-0.3-0.2-0.5-0.5-0.8-0.7c-0.2-0.2-0.5-0.4-0.7-0.6
		c-0.1-0.1-0.2-0.2-0.3-0.3c-0.2-0.2-0.5-0.4-0.7-0.5c0,0-0.1-0.1-0.1-0.1c-1.7-1.1-3.4-2.1-5.2-3.2c0,0,0,0,0,0
		c-0.4-0.4-0.9-0.8-1.3-1.2c-0.1-0.1-0.1-0.1-0.2-0.2c-0.1-0.1-0.1-0.1-0.2-0.2l0,0c-0.2-0.2-0.4-0.5-0.6-0.7c0-0.1,0-0.1-0.1-0.1
		c0-0.1,0-0.2-0.1-0.3c-1.8-2.5-2.6-5.3-2.4-8.4c0-0.6-0.6-1.3-0.9-1.9c-0.1-0.1-0.2-0.2-0.3-0.3c-0.3-0.4-0.6-1-1-1.3
		c-2.9-1.9-5.9-3.7-8.8-5.6c0,0,0,0,0,0c-0.2-0.2-0.4-0.5-0.6-0.7c-1-0.9-1.2-0.8-1.6,0.4c-1,2.6-2,5.2-2.8,7.9
		c-0.8,2.6-1,5.3,0.6,7.8c1.9,3.2,2.1,6.6,0.7,10c-0.9,2.2-1.9,4.4-2.7,6.7c-0.9,2.9-1.5,5.9-0.4,9c0.2,0.7-0.2,0.6-0.6,0.6
		c-0.1-0.1-0.3-0.3-0.4-0.4c-0.3-0.4-0.6-0.7-0.9-1.1c0,0,0,0,0,0c-0.6-1.7-1.3-3.3-1.6-5c-0.7-4.1-0.3-8.3,0.2-12.4
		c0.3-2,0-4-1.6-5.5l0,0c-0.3-0.3-0.5-0.6-0.8-0.9c-0.1-0.1-0.2-0.2-0.3-0.4C246.3,239.3,246.1,239.1,246,238.9z"/>
	<path class="st7" d="M251.7,265.1c0.4,0,0.9,0.1,0.6-0.6c-1.1-3.1-0.5-6.1,0.4-9c0.7-2.3,1.7-4.5,2.7-6.7c1.4-3.5,1.2-6.8-0.7-10
		c-1.6-2.5-1.4-5.2-0.6-7.8c0.8-2.7,1.9-5.3,2.8-7.9c0.4-1.2,0.7-1.3,1.6-0.4c0.2,0.2,0.4,0.5,0.6,0.7c-0.5-0.3-1-0.5-1.6-0.9
		c-0.2,0.7-0.5,1.4-0.7,2c-0.7,1.9-1.5,3.9-2.2,5.8c-0.8,2-0.9,4.2-0.6,6.3c0.1,0.8,0.6,1.6,1.1,2.3c1.8,2.9,2.1,6,1,9.2
		c-0.4,1.1-1.1,2.2-1.6,3.3c-1.6,3.5-2.5,7.2-2.3,11.1c0.1,1.1,0.5,2.2,0.5,3.5C252.5,265.7,252.1,265.4,251.7,265.1z"/>
	<path class="st7" d="M274.9,206.6c-0.5-0.4-0.9-0.7-1.3-1c2.3-0.9,4.6-1.7,6.6-2.7c2-1,4-2.2,6.3-2.3c1.3,0,2.7,0,3.8,0.6
		c3.2,1.6,6.4,1.5,9.7,0.5c2.3-0.7,4.5-1.6,6.6-2.6c3.3-1.4,6.7-1.9,10.2-1.5c0.1,0,0.3,0,0.5,0c0-0.3-0.1-0.6-0.1-0.9
		c0.2,0.4,0.4,0.7,0.7,1.1c-0.3,0.1-0.7,0.3-1,0.3c-2.5-0.4-5.1-0.1-7.5,0.6c-2.5,0.8-4.8,2-7.2,2.9c-3.5,1.3-7,2-10.6,0.7
		c-1.6-0.6-3.1-1.3-4.8-1.1c-1.3,0.2-2.7,0.4-3.9,0.9c-2.8,1.2-5.5,2.6-8.3,3.9C274.6,206,274.7,206.3,274.9,206.6z"/>
	<path class="st7" d="M227.4,180.1c-1.3-0.7-2.6-1.5-4-2.1c-1.9-0.7-3.8-0.8-5.7,0.1c-1.9,0.9-3.8,0.5-5.8-0.1
		c-3.3-1-6.3-2.8-9.2-4.8c-2.9-2-6-2.9-9.5-2.4c-0.3,0-0.6,0.2-1,0.4c1.8,0.5,3.5,0.9,4.8,2.4c-0.9-0.5-1.9-1-2.9-1.3
		c-0.9-0.3-1.8-0.2-2.7-0.4c-0.3,0-0.6-0.2-0.9-0.3c0.2-0.2,0.4-0.6,0.7-0.7c2.2-0.7,4.4-0.7,6.7-0.3c2.9,0.6,4.9,2.6,7.4,3.9
		c2.2,1.1,4.3,2.3,6.6,3.1c2,0.7,4.1,0.8,6.2-0.2c1.1-0.5,2.8-0.5,4-0.2c1.8,0.5,3.4,1.6,5,2.5C227.3,179.8,227.3,180,227.4,180.1z"
		/>
	<path class="st7" d="M315.8,195.3c-4.5-2-9-1.4-13.5-0.2c-2.1,0.6-4.1,1.4-6.2,1.2c-2.2-0.2-4.3-0.6-6.2-1.8
		c-2.5-1.6-5-2.1-7.9-1.2c-1.6,0.5-3.4,0.5-5.2,0.7c-0.4,0-0.9-0.1-1.4-0.2c-0.5-0.2-0.8-0.5,0-0.8c0.5,0.9,1.4,0.7,2.1,0.6
		c2-0.2,3.9-0.6,5.9-1c2.2-0.5,4.2,0.1,6,1.3c2.5,1.6,5.1,2.4,8,2.1c1.9-0.2,3.9-0.9,5.7-1.5c3.1-1,6.3-1,9.4-0.7
		C313.7,193.8,314.7,194.7,315.8,195.3z"/>
	<path class="st7" d="M250.5,133.6c-1.1,1.7-2,3.5-2.3,5.6c-0.5,3.2-0.6,6.5-0.2,9.8c0.3,2.6,0.8,5.2,0.7,7.7c0,1.7-0.9,3.5-1.4,5.2
		c0,0.2-0.3,0.3-0.4,0.4c0.4-1.6,1-3.1,1.3-4.7c0.5-2.4-0.2-4.7-0.5-7.1c-0.5-4.1-0.7-8.2,0.3-12.3c0.4-1.4,1.1-2.7,1.7-4
		C249.8,134,250.2,133.9,250.5,133.6z"/>
	<path class="st7" d="M224.2,195.8c-1.1,0.7-2.2,1.5-3.5,2c-2.8,1.2-5.8,1.8-8.8,0.9c-0.6-0.2-1.2-0.5-1.8-0.7
		c-4.3-2.1-8.4-1.3-12.4,1.1c-0.8,0.5-1.6,0.9-2.4,1.3c2.2-1.9,4.7-3.3,7.6-3.8c2.5-0.4,4.9-0.2,7.2,1c2.8,1.5,5.8,1.5,8.7,0.5
		c1.7-0.6,3.3-1.4,4.9-2.1C223.9,195.8,224,195.8,224.2,195.8z"/>
	<path class="st7" d="M254.5,160c1.7-4.7,0.1-9-1.8-13.1c-1.2-2.9-1.6-5.8-1.8-8.8c-0.1-1.3,0.1-2.6,0.1-3.8c0-0.2-0.4-0.4-0.6-0.6
		c0.2-0.2,0.5-0.4,0.7-0.6c0.1,0.3,0.4,0.6,0.3,0.9c-0.4,3,0,5.9,0.5,8.8c0.3,1.6,0.9,3.2,1.5,4.7c1.3,3.3,2.5,6.5,2.1,10.1
		C255.5,158.4,254.9,159.2,254.5,160z"/>
	<path class="st7" d="M247.5,240.7c1.6,1.5,1.8,3.5,1.6,5.5c-0.5,4.1-1,8.3-0.2,12.4c0.3,1.7,1.1,3.3,1.6,5
		c-1.3-0.9-1.5-2.4-1.8-3.8c-0.6-2.9-0.9-5.8-0.5-8.7c0.2-1.6,0.3-3.2,0.5-4.8C248.8,244.3,248.3,242.5,247.5,240.7z"/>
	<path class="st7" d="M187.7,204.3c2.4,0.8,4.8,1.2,7.2,0.9c2.3-0.3,4.7-0.9,6.9-1.5c2.9-0.8,5.8-1.2,8.6,0.2
		c0.2,0.1,0.3,0.3,0.5,0.4c-0.2,0-0.4,0-0.5,0c-3.3-1.5-6.5-0.9-9.8,0.3c-3.9,1.4-7.9,1.8-12,0.4C188.3,204.8,188,204.5,187.7,204.3
		z"/>
	<path class="st7" d="M286.9,223.1c1.2,0.7,2.3,1.5,3.6,2.1c1.8,0.9,3.6,1.3,5.6,1.4c4.2,0.1,8.3,1,12.1,2.9
		c0.3,0.2,0.5,0.4,0.8,0.6c-0.4-0.1-0.8-0.2-1.2-0.4c-3.1-1.3-6.3-2.3-9.6-2.6c-2.8-0.2-5.7-0.2-8.3-1.8
		C288.8,224.8,287.9,223.9,286.9,223.1z"/>
	<path class="st7" d="M211,204.3c0.6,0.3,1.1,0.6,1.7,0.8c3.7,1.6,7.3,1.3,11-0.1c0.4-0.2,0.8-0.3,1.2-0.4c1.6-0.5,3.2,0.5,3.4,2.1
		c0,0.2-0.1,0.7-0.3,0.8c-0.5,0.3-1.1,0.5-1.7,0.7c0.2-0.2,0.4-0.5,0.6-0.7c0.4-0.3,1.2-0.4,0.9-1.1c-0.3-0.6-0.8-1.3-1.4-1.5
		c-0.6-0.2-1.5,0-2,0.3c-2.7,1.4-5.6,1.6-8.5,1.2C214,206.4,212.2,205.8,211,204.3z"/>
	<path class="st7" d="M222.6,235.3c-0.6,1.2-1.3,2.3-1.6,3.5c-0.6,2.3-0.9,4.7-1.3,7.1c-0.6,3.2-1.6,6.2-3.3,8.9
		c-0.2,0.3-0.4,0.5-0.6,0.7c0.2-0.5,0.4-1.1,0.7-1.6c1.8-3.1,2.7-6.5,3.1-10c0.3-2.7,0.8-5.4,2.3-7.8
		C221.9,235.8,222.3,235.6,222.6,235.3z"/>
	<path class="st7" d="M225.9,159.9c1.2,1.1,1.5,2.7,1.8,4.2c0.2,1.1,0.2,2.4,0,3.5c-0.7,4.3,0.5,7.9,2.9,11.4
		c0.2,0.3,0.3,0.6,0.5,0.9c-0.7-1-1.6-1.9-2.2-2.9c-1.7-2.9-2.1-6.1-1.7-9.5c0.3-2.3,0.1-4.6-1.1-6.7
		C226,160.5,226,160.2,225.9,159.9z"/>
	<path class="st7" d="M198.1,230.9c-1.1,1.4-2.7,1.9-4.2,2.5c-0.3,0.1-0.6,0.2-0.9,0.4c1.7,0.4,3.4,0.5,5.1-0.2
		c2.1-0.9,4.2-1.9,6.3-2.8c-1,0.6-1.9,1.4-2.9,1.9c-2.3,1.2-4.7,2.1-7.3,1.9c-0.6,0-1.2-0.3-1.8-0.5c-0.1-0.1-0.3-0.3-0.3-0.5
		c0-0.1,0.3-0.3,0.4-0.4c2-0.2,3.8-1.1,5.4-2.3C197.8,230.9,198,230.9,198.1,230.9z"/>
	<path class="st7" d="M305.7,172c1.6-1,3.2-2,4.8-3c0.3-0.2,0.6-0.2,0.9-0.5c-2.4-0.7-4.9-0.7-7.2,0.2c-1.7,0.7-3.3,1.7-5,2.5
		c0.7-0.6,1.4-1.3,2.2-1.7c3-1.7,6.3-2.4,9.7-1.6c0.4,0.1,0.7,0.4,1,0.6c-0.3,0.2-0.6,0.5-0.9,0.7c-1.4,0.7-2.9,1.4-4.3,2.2
		C306.5,171.6,306.1,171.8,305.7,172z"/>
	<path class="st7" d="M271.3,221.2c-1.5-0.8-2.3-2.1-2.3-3.7c0-0.3,0.5-0.9,0.8-0.9c3.7-0.4,7.5-0.4,11.1,1c0.9,0.3,1.7,1,2.5,1.6
		c-1-0.4-2-0.9-3.1-1.3c-3.4-1.2-6.8-1.1-10.3-0.8c-0.2,0-0.6,0.6-0.6,0.7c0.3,0.8,0.7,1.7,1.1,2.5
		C270.6,220.5,271,220.8,271.3,221.2z"/>
	<path class="st7" d="M258.7,176.3c-0.4,0.4-0.7,0.7-1.2,1c-0.5,0.4-1,0.3-1.3-0.4c-1.9-3.8-3.4-7.7-3.1-12c0.1-1.4,0.6-2.9,0.9-4.3
		c0.1-0.2,0.3-0.4,0.5-0.6c-0.6,2-1.2,4.1-1,6.3c0.2,3.2,1,6.2,2.4,9c0,0.1,0.1,0.1,0.1,0.2c0.9,1.6,0.9,1.6,2.4,0.8
		C258.4,176.3,258.6,176.3,258.7,176.3z"/>
	<path class="st7" d="M246.3,220.7c1,1.1,0.6,2.5,0.4,3.7c-0.2,1.2-0.6,2.4-1.1,3.6c-1.3,3.4-1.6,6.8,0.1,10.2c0.1,0.1,0,0.3,0,0.4
		c-1.2-1.2-1.5-2.7-1.7-4.2c-0.3-2.3,0.3-4.4,1.2-6.5C246.2,225.5,246.7,223.2,246.3,220.7z"/>
	<path class="st7" d="M294.7,175.3c-2.2,1.8-4.8,3-7.6,2.3c-3.4-0.8-6.4-0.8-9.3,1.4c-0.1,0.1-0.2,0-0.3,0c1.1-1.4,2.7-2,4.3-2.2
		c1.3-0.2,2.7-0.2,4,0.2c2.9,0.8,5.5,0.2,7.9-1.3C293.9,175.5,294.3,175.4,294.7,175.3z"/>
	<path class="st7" d="M222.3,148.3c-1.5-1.4-2.2-3.2-3-5c-0.1-0.3-0.3-0.7-0.4-1.1c-0.1,0-0.2,0-0.4,0c-0.1,0.5-0.3,1.1-0.4,1.6
		c-0.3,2.7,0.3,5.1,1.4,7.5c0.1,0.2,0.2,0.5,0.3,0.8c-0.5-0.9-1.1-1.8-1.4-2.7c-0.9-2.3-1.1-4.8-0.3-7.2c0.1-0.2,0.4-0.5,0.6-0.5
		c0.2,0,0.6,0.2,0.6,0.4c0.5,2.2,1.7,4.1,3,5.9C222.4,148.1,222.4,148.2,222.3,148.3z"/>
	<path class="st7" d="M210.4,225.7c2.1-1.8,4.5-2.7,7.1-2.1c3.2,0.7,5.9,0,8.4-1.9c0.2-0.1,0.4-0.2,0.6-0.2
		c-0.8,1.4-2.3,1.9-3.7,2.4c-1.7,0.6-3.4,0.6-5.2,0.2c-2-0.5-4,0.2-5.9,1.1C211.3,225.4,210.9,225.5,210.4,225.7z"/>
	<path class="st7" d="M207.8,184c1.6,0.5,3.2,0.9,4.8,1.4c0.6,0.1,1.2,0.1,1.8,0.1c4,0,7.1,1.8,9.8,4.6c0.1,0.1,0.1,0.3,0.2,0.4
		c-0.7-0.6-1.5-1.1-2.1-1.7c-2.3-1.9-4.9-2.9-7.8-2.8c-2.2,0-4.3-0.5-6.2-1.5C208,184.3,207.9,184.1,207.8,184z"/>
	<path class="st7" d="M276.8,236.7c-1.4-1.5-1.6-3.2-1.4-5.1c0.3-2.6,0-5.2-1.3-7.5c-0.5-0.8-1.3-1.4-2-2.1
		c-0.2-0.2-0.4-0.4-0.7-0.6c2,0.5,3,2,3.6,3.8c0.8,2.3,1.1,4.6,0.8,7c-0.2,1,0.3,2.1,0.5,3.2C276.3,235.8,276.6,236.2,276.8,236.7z"
		/>
	<path class="st7" d="M246.1,163.3c-1.9,4.2-1.6,8.4-0.4,12.6c0.3,1.2,0.7,2.3,1,3.5c-0.3,0.1-0.6,0.1-0.8,0.2
		c0-0.1-0.1-0.3-0.1-0.4c0.1-0.2,0.3-0.5,0.2-0.7c-1.2-3.2-1.9-6.5-1.6-9.9c0.1-1.6,0.7-3.1,1.1-4.6
		C245.5,163.6,245.8,163.5,246.1,163.3z"/>
	<path class="st7" d="M283.2,185.5c1.1-1.2,2.4-2.1,3.9-2.1c3.2,0.1,6.3-0.2,9.1-1.8c-1.3,1.4-3,1.8-4.7,2.1
		c-1.2,0.2-2.5-0.1-3.8,0.1c-1.1,0.2-2.1,0.6-3.2,1C284.2,185,283.7,185.2,283.2,185.5z"/>
	<path class="st7" d="M305.9,224.6c-1.1-0.6-2.2-1.2-3.4-1.7c-2.5-0.9-5.1-1.5-7.6-2.4c-0.8-0.3-1.4-0.8-2.2-1.2
		c1.1,0.4,2.2,0.9,3.3,1.2c2.2,0.7,4.4,1.2,6.6,2C303.9,223,304.9,223.9,305.9,224.6z"/>
	<path class="st7" d="M195.1,200.6c-1.8,1.2-3.8,1.9-5.9,2.2c-1.1,0.1-2.2,0-3.4,0c0.1,0.2,0.2,0.4,0.3,0.6c-0.8,0-1.2-0.5-1.4-1.4
		c0.4,0,0.7-0.1,0.9,0c2.2,0.9,4.3,0.2,6.4-0.4C193.1,201.3,194.1,200.9,195.1,200.6z"/>
	<path class="st7" d="M233.3,218c-1.8,2.7-2.1,5.9-2.6,9c-0.1,0.7-0.6,1.4-0.9,2.1c1-3.1,0.6-6.5,2.2-9.5
		C232.4,219,232.9,218.5,233.3,218z"/>
	<path class="st7" d="M284.3,250.7c0.6,0.9,1.1,1.7,1.8,2.8c0.5-1.4,0.4-2.7,0.1-3.9c-0.3-1.2-0.7-2.4-1.1-3.5
		c1.2,1.2,1.4,2.8,1.6,4.3c0.1,1-0.1,2.1-0.2,3.2c0,0.2-0.3,0.4-0.5,0.6c-0.2-0.2-0.5-0.3-0.6-0.5
		C285.1,252.7,284.7,251.7,284.3,250.7z"/>
	<path class="st7" d="M269.4,230.6c0.3,0.6,0.9,1.3,0.9,1.9c-0.2,3.1,0.6,5.8,2.4,8.4c0.1,0.1,0,0.2,0.1,0.3c-0.5-0.5-1-1-1.3-1.6
		c-1.1-2.1-1.7-4.3-1.6-6.7C269.8,232.1,269.5,231.3,269.4,230.6z"/>
	<path class="st7" d="M235.6,169.9c-1.2-1.2-2-2.8-2-4.4c0.1-2.3-0.4-4.3-1.5-6.2c-0.1-0.1-0.1-0.3-0.1-0.4c1.2,1,1.6,2.5,1.9,4
		c0.2,1.4,0.2,2.8,0.5,4.2C234.7,168.1,235.2,169,235.6,169.9z"/>
	<path class="st7" d="M222,251c0.8-1.3,1.6-2.5,2.3-3.8c0.9-1.8,1.7-3.7,2.6-5.5c0.2-0.4,0.5-0.7,0.8-1.1c-1.3,2.7-2.6,5.5-4,8.2
		C223.3,249.6,222.6,250.3,222,251z"/>
	<path class="st7" d="M275.8,180.4c-1.9,2-4.2,3.4-7,3.8c-0.4,0.1-0.8,0-1.2-0.1c-0.7-0.2-0.9-0.6-0.3-1.1c0.3-0.3,0.7-0.6,1-0.9
		c-0.2,0.5-0.5,1-0.8,1.6c0.7,0,1.4,0.1,2,0c2.1-0.4,3.8-1.6,5.5-2.9C275.3,180.6,275.6,180.5,275.8,180.4z"/>
	<path class="st7" d="M259.2,223.4c2.9,1.8,5.9,3.7,8.8,5.6c0.4,0.3,0.7,0.8,1,1.3c-1.7-1.2-3.4-2.4-5.1-3.6
		c-1.3-0.8-2.6-1.6-3.9-2.4C259.7,224.1,259.5,223.7,259.2,223.4z"/>
	<path class="st7" d="M219.9,215.3c-1.1,1.4-2.5,2.2-4.1,2.3c-2.2,0-4.4,0.2-6.4,1.1c1-0.5,2-1,3.1-1.4c0.5-0.2,1.2-0.1,1.8,0
		c1.9,0.2,3.6-0.5,5-1.6C219.4,215.4,219.7,215.4,219.9,215.3z"/>
	<path class="st7" d="M268.5,181.9c0.8-2,1.6-3.9,2.4-5.9c0.5-1.2,1-2.5,1.6-3.7c0.1-0.3,0.4-0.5,0.7-0.8c0,0.1,0,0.2,0,0.2
		c-1.3,3.1-2.6,6.2-3.9,9.3C269.1,181.3,268.8,181.6,268.5,181.9z"/>
	<path class="st7" d="M238.9,231.7c0.5-1,1.1-2,1.4-3c0.6-1.6,1-3.3,1.5-5c0.2-0.7,0.7-1.3,1.1-1.9c-0.3,0.7-0.6,1.5-0.8,2.2
		c-0.7,2.2-1.5,4.3-2.3,6.5C239.7,231,239.2,231.3,238.9,231.7z"/>
	<path class="st7" d="M275,169.4c0.7-0.4,1.5-1.1,2.2-1.2c2.4-0.3,3.9-1.6,5.3-3.4c0.2-0.2,0.4-0.5,0.6-0.7
		c-0.4,1.8-1.8,2.8-3.2,3.7c-0.8,0.5-1.9,0.6-2.8,0.9C276.5,168.8,275.8,169.1,275,169.4z"/>
	<path class="st7" d="M284.9,210.3c-1.8-1-3.8-1.7-5.9-1.8c-1.4-0.1-2.9-0.5-4-1.7c0.9,0.3,1.7,0.8,2.7,1c1.5,0.4,3,0.5,4.5,0.9
		C283.2,208.9,284.4,209.1,284.9,210.3z"/>
	<path class="st7" d="M275.6,161.5c-1.1,0.5-2.1,1.3-3.3,1.5c-1.7,0.3-3.3,0.7-4.8,1.7c-0.1,0.1-0.3,0.1-0.4,0.1
		c1-0.6,1.9-1.4,3-1.8C271.9,162.4,273.8,162,275.6,161.5z"/>
	<path class="st7" d="M285.2,159.6c0.3-2.8,1.3-5.5,2.6-7.9c0.1-0.2,0.3-0.3,0.5-0.5c-0.5,1.1-1,2.2-1.4,3.3
		c-0.5,1.5-0.9,3.1-1.4,4.6C285.5,159.2,285.3,159.4,285.2,159.6z"/>
	<path class="st7" d="M292.4,146.2c0.2-0.3,0.3-0.5,0.6-0.9c-1.9,0.1-3.4,1-5,1.6c0.8-0.5,1.6-1.1,2.5-1.5c0.7-0.3,1.5-0.5,2.2-0.6
		c0.3-0.1,0.7,0.1,1,0.2c0,0.1,0.1,0.2,0.1,0.4C293.3,145.6,292.8,145.9,292.4,146.2z"/>
	<path class="st7" d="M229.5,218.4c1.3-1.6,3-2.2,4.9-2.3c0.2,0,0.5,0.2,0.8,0.3c-0.2,0.2-0.4,0.3-0.7,0.5c-0.3-0.1-0.6-0.4-0.8-0.3
		c-1.2,0.5-2.3,1-3.5,1.5C230,218.2,229.8,218.3,229.5,218.4z"/>
	<path class="st7" d="M215.6,255.7c-0.1,0.3-0.2,0.5-0.3,0.8c0,0.1,0.1,0.1,0.1,0.2c0.9-0.5,1.8-1,2.7-1.6c-0.7,1.3-2.1,1.5-3.2,2.2
		c-0.1,0.1-0.4,0-0.5-0.1c-0.1-0.2-0.1-0.5,0-0.6C214.8,256.3,215.2,256,215.6,255.7z"/>
	<path class="st7" d="M229.8,238.1c0.4-0.3,0.7-0.7,1.1-0.9c1.4-0.6,2.9-1.2,4.3-1.8c-0.5,0.4-0.9,0.8-1.4,1
		C232.6,237,231.2,237.5,229.8,238.1z"/>
	<path class="st7" d="M264.3,167.7c-1.1,2-2.2,3.9-3.3,5.9C261.9,171.4,262.6,169.3,264.3,167.7z"/>
	<path class="st7" d="M275.1,243.6c1.7,1.1,3.4,2.1,5.2,3.2c-1.7-1-3.4-1.9-5.1-2.9C275.1,243.9,275.1,243.8,275.1,243.6z"/>
	<path class="st7" d="M309.7,230.7c0.1-0.2,0.4-0.5,0.3-0.7c-0.3-0.8-0.7-1.6-1.1-2.3c0.6,1,1.3,2,1.9,3.1c0.1,0.1-0.1,0.3-0.2,0.5
		C310.3,231,310,230.8,309.7,230.7z"/>
	<path class="st7" d="M283.2,163.9c0.6-1.4,1.2-2.8,1.9-4.1C285,161.3,284.5,162.7,283.2,163.9z"/>
	<path class="st7" d="M288.3,215.5c-0.4-0.7-0.8-1.4-1.1-2.1c-0.4-0.7-0.8-1.4-1.1-2.1c0.4,0.6,1,1.1,1.3,1.7
		C287.7,213.8,288,214.7,288.3,215.5z"/>
	<path class="st7" d="M207.2,228.7c1.1-1,2.1-2,3.2-3C209.4,226.7,208.3,227.7,207.2,228.7z"/>
	<path class="st7" d="M218.3,255c1-1,2-2,3-3C220.3,253,219.3,254,218.3,255z"/>
	<path class="st7" d="M282.6,152.3c-0.8,1.3-1.5,2.6-2.3,3.9C280.7,154.7,281.3,153.3,282.6,152.3z"/>
	<path class="st7" d="M231.5,180.3c0.9,0.9,1.9,1.9,2.8,2.8C233.3,182.1,232.4,181.2,231.5,180.3z"/>
	<path class="st7" d="M226.5,193.2c0.5,0.2,0.8,0.6,0.3,1c-0.8,0.6-1.6,1-2.4,1.5c0.6-0.5,1.2-1,1.7-1.5
		C226.3,193.9,226.3,193.5,226.5,193.2z"/>
	<path class="st7" d="M234.3,184.1c-1.2,0.7-2.6,0.3-3.6-0.9C231.9,183.5,233.1,183.8,234.3,184.1z"/>
	<path class="st7" d="M223.1,156.9c0.8,0.9,1.7,1.8,2.5,2.7C224.8,158.7,223.9,157.8,223.1,156.9z"/>
	<path class="st7" d="M219.9,152.2c0.7,1.1,1.4,2.2,2.1,3.3C220.9,154.6,220.2,153.6,219.9,152.2z"/>
	<path class="st7" d="M228.3,230.9c-1,0.6-2.1,1.2-3.1,1.8C226.2,232.1,227.2,231.5,228.3,230.9z"/>
	<path class="st7" d="M278.7,158.7c-0.7,0.7-1.4,1.4-2.1,2.1C277.3,160.1,278,159.4,278.7,158.7z"/>
	<path class="st7" d="M279.6,239.6c-0.7-0.7-1.5-1.4-2.2-2.1C278.1,238.2,278.9,238.9,279.6,239.6z"/>
	<path class="st7" d="M301.6,175.8c0.7-0.7,1.4-1.4,2.1-2.2C303.1,174.4,302.4,175.1,301.6,175.8z"/>
	<path class="st7" d="M226.5,152.9c-0.7-0.7-1.4-1.4-2.1-2.1C225.1,151.5,225.8,152.2,226.5,152.9z"/>
	<path class="st7" d="M205.5,221.8c-0.6,0.8-1.2,1.6-1.8,2.4C204.3,223.5,204.9,222.7,205.5,221.8z"/>
	<path class="st7" d="M224.8,191c0.6,0.7,1.1,1.5,1.7,2.2C225.9,192.4,225.4,191.7,224.8,191z"/>
	<path class="st7" d="M201.1,178.3c0.6,0.7,1.2,1.3,1.8,2C202.3,179.7,201.7,179,201.1,178.3z"/>
	<path class="st7" d="M299.3,178.9c0.5-0.7,1.1-1.5,1.6-2.2C300.4,177.4,299.9,178.1,299.3,178.9z"/>
	<path class="st7" d="M297.3,180.9c0.6-0.6,1.2-1.1,1.7-1.7C298.4,179.8,297.9,180.3,297.3,180.9z"/>
	<path class="st7" d="M204.4,230.8c0.7-0.5,1.3-0.9,2-1.4C205.7,229.8,205,230.3,204.4,230.8z"/>
	<path class="st7" d="M260.9,173.6c-0.5,0.6-0.9,1.2-1.4,1.8C260,174.9,260.4,174.3,260.9,173.6z"/>
	<path class="st7" d="M225.9,208.6c-0.5,0.6-1,1.1-1.6,1.7C224.8,209.7,225.4,209.2,225.9,208.6z"/>
	<path class="st7" d="M228,220c0.5-0.5,1-1,1.5-1.5C229,219,228.5,219.5,228,220z"/>
	<path class="st7" d="M205.7,182.7c0.7,0.4,1.3,0.8,2,1.2C207.1,183.5,206.4,183.1,205.7,182.7z"/>
	<path class="st7" d="M203.6,224.4c-0.4,0.6-0.8,1.2-1.2,1.8C202.8,225.6,203.2,225,203.6,224.4z"/>
	<path class="st7" d="M227.8,240.5c0.4-0.5,0.8-1.1,1.2-1.6C228.6,239.4,228.2,240,227.8,240.5z"/>
	<path class="st7" d="M228.8,154.9c-0.5-0.4-1-0.9-1.5-1.3C227.8,154,228.3,154.5,228.8,154.9z"/>
	<path class="st7" d="M223.7,211.1c-0.4,0.5-0.8,1.1-1.2,1.6C222.9,212.2,223.3,211.7,223.7,211.1z"/>
	<path class="st7" d="M226.6,221.4c0.4-0.4,0.9-0.9,1.3-1.3C227.5,220.5,227.1,220.9,226.6,221.4z"/>
	<path class="st7" d="M280.2,156.3c-0.3,0.5-0.7,1.1-1,1.6C279.5,157.4,279.9,156.9,280.2,156.3z"/>
	<path class="st7" d="M238.7,173.5c-0.4-0.4-0.8-0.9-1.3-1.3C237.9,172.6,238.3,173,238.7,173.5z"/>
	<path class="st7" d="M284.5,149.9c-0.4,0.5-0.8,0.9-1.2,1.4C283.7,150.8,284.1,150.4,284.5,149.9z"/>
	<path class="st7" d="M273.8,242.4c0.4,0.4,0.9,0.8,1.3,1.2C274.7,243.2,274.2,242.8,273.8,242.4z"/>
	<path class="st7" d="M285.1,245.9c-0.3-0.5-0.7-1.1-1-1.6C284.4,244.8,284.8,245.4,285.1,245.9z"/>
	<path class="st7" d="M244.2,220.5c0.5-0.5,0.9-1.2,1.7-0.4C245.3,220.2,244.7,220.3,244.2,220.5z"/>
	<path class="st7" d="M292.7,219.3c-0.5-0.3-1.1-0.7-1.6-1C291.6,218.6,292.1,218.9,292.7,219.3z"/>
	<path class="st7" d="M280.9,240.7c-0.4-0.4-0.8-0.7-1.3-1.1C280,240,280.5,240.3,280.9,240.7z"/>
	<path class="st7" d="M244.7,178.4c-0.5-0.3-0.9-0.7-1.4-1C243.8,177.7,244.3,178,244.7,178.4z"/>
	<path class="st7" d="M275.5,192.9c0.4-0.3,0.9-0.7,1.3-1C276.4,192.2,275.9,192.6,275.5,192.9z"/>
	<path class="st7" d="M201.8,227c-0.3,0.5-0.7,0.9-1,1.4C201.2,227.9,201.5,227.4,201.8,227z"/>
	<path class="st7" d="M222,155.5c0.4,0.4,0.7,0.9,1.1,1.3C222.7,156.4,222.3,155.9,222,155.5z"/>
	<path class="st7" d="M289.4,149.5c0.4-0.4,0.7-0.9,1.1-1.3C290.1,148.6,289.8,149,289.4,149.5z"/>
	<path class="st7" d="M279.4,189.3c0.4-0.4,0.7-0.8,1.1-1.3C280.1,188.5,279.7,188.9,279.4,189.3z"/>
	<path class="st7" d="M230.9,157.3c-0.3-0.4-0.7-0.8-1-1.2C230.3,156.5,230.6,156.9,230.9,157.3z"/>
	<path class="st7" d="M199.4,229.8c-0.4,0.3-0.8,0.7-1.2,1C198.6,230.5,199,230.2,199.4,229.8z"/>
	<path class="st7" d="M277.3,179.1c-0.4,0.3-0.8,0.7-1.1,1C276.5,179.8,276.9,179.4,277.3,179.1z"/>
	<path class="st7" d="M203.1,180.6c0.4,0.3,0.8,0.7,1.1,1C203.9,181.2,203.5,180.9,203.1,180.6z"/>
	<path class="st7" d="M290.9,218.2c-0.4-0.3-0.8-0.7-1.2-1C290.2,217.5,290.6,217.9,290.9,218.2z"/>
	<path class="st7" d="M204.4,181.7c0.4,0.3,0.8,0.6,1.2,0.9C205.2,182.3,204.8,182,204.4,181.7z"/>
	<path class="st7" d="M280.5,188.1c0.3-0.4,0.7-0.7,1-1.1C281.2,187.3,280.8,187.7,280.5,188.1z"/>
	<path class="st7" d="M285.2,221.4c0.3,0.4,0.7,0.8,1,1.1C285.9,222.1,285.5,221.8,285.2,221.4z"/>
	<path class="st7" d="M304.6,173c0.4-0.3,0.8-0.6,1.1-1C305.3,172.3,305,172.7,304.6,173z"/>
	<path class="st7" d="M207.9,219.5c-0.4,0.3-0.8,0.7-1.2,1C207.2,220.2,207.5,219.9,207.9,219.5z"/>
	<path class="st7" d="M277.8,191c0.4-0.4,0.7-0.7,1.1-1.1C278.5,190.3,278.2,190.6,277.8,191z"/>
	<path class="st7" d="M224.1,150.4c-0.3-0.4-0.7-0.8-1-1.2C223.4,149.6,223.8,150,224.1,150.4z"/>
	<path class="st7" d="M209.2,218.7c-0.4,0.3-0.8,0.5-1.2,0.8C208.4,219.2,208.8,218.9,209.2,218.7z"/>
	<path class="st7" d="M250.4,263.6c0.3,0.4,0.6,0.7,0.9,1.1C251,264.3,250.7,264,250.4,263.6z"/>
	<path class="st7" d="M237.1,171.8c-0.3-0.3-0.5-0.6-0.8-0.9C236.6,171.2,236.9,171.5,237.1,171.8z"/>
	<path class="st7" d="M243.2,221.4c0.3-0.3,0.6-0.6,0.9-0.9C243.8,220.9,243.5,221.2,243.2,221.4z"/>
	<path class="st7" d="M225.1,232.8c-0.3,0.3-0.6,0.5-0.9,0.8C224.4,233.3,224.7,233.1,225.1,232.8z"/>
	<path class="st7" d="M200.2,177.3c0.3,0.3,0.5,0.6,0.8,0.9C200.7,177.9,200.5,177.6,200.2,177.3z"/>
	<path class="st7" d="M246.7,239.8c0.3,0.3,0.5,0.6,0.8,0.9C247.2,240.4,246.9,240.1,246.7,239.8z"/>
	<path class="st7" d="M283.3,249.4c0.3,0.3,0.5,0.6,0.8,0.9C283.8,250,283.5,249.7,283.3,249.4z"/>
	<path class="st7" d="M267,165c-0.3,0.3-0.6,0.5-0.9,0.8C266.4,165.5,266.7,165.2,267,165z"/>
	<path class="st7" d="M283.2,151.4c-0.2,0.3-0.4,0.6-0.6,0.9C282.8,152,283,151.7,283.2,151.4z"/>
	<path class="st7" d="M199.3,176c0.2,0.3,0.4,0.6,0.6,0.9C199.7,176.6,199.5,176.3,199.3,176z"/>
	<path class="st7" d="M221.4,251.8c0.2-0.3,0.4-0.6,0.6-0.9C221.8,251.3,221.6,251.6,221.4,251.8z"/>
	<path class="st7" d="M206.4,229.4c0.3-0.2,0.6-0.4,0.8-0.6C207,228.9,206.7,229.2,206.4,229.4z"/>
	<path class="st7" d="M234.4,183.1c0.6,0.2,0.6,0.5,0.1,0.9C234.4,183.7,234.4,183.4,234.4,183.1z"/>
	<path class="st7" d="M240.6,175.2c-0.2-0.2-0.5-0.4-0.7-0.6C240.2,174.8,240.4,175,240.6,175.2z"/>
	<path class="st7" d="M223,149.1c-0.2-0.2-0.4-0.5-0.6-0.7C222.6,148.7,222.8,148.9,223,149.1z"/>
	<path class="st7" d="M297.2,173.3c-0.2,0.2-0.5,0.4-0.7,0.6C296.7,173.7,297,173.5,297.2,173.3z"/>
	<path class="st7" d="M272.8,241.3c0.2,0.2,0.4,0.5,0.6,0.7C273.2,241.7,273,241.5,272.8,241.3z"/>
	<path class="st7" d="M308.7,227.3c-0.2-0.2-0.4-0.5-0.6-0.7C308.3,226.8,308.5,227,308.7,227.3z"/>
	<path class="st7" d="M283.4,243.3c-0.2-0.2-0.4-0.5-0.6-0.7C283,242.9,283.2,243.1,283.4,243.3z"/>
	<path class="st7" d="M280.4,246.9c0.2,0.2,0.5,0.4,0.7,0.5C280.9,247.3,280.7,247.1,280.4,246.9z"/>
	<path class="st7" d="M265,166.8c-0.2,0.2-0.4,0.5-0.6,0.7C264.6,167.3,264.8,167.1,265,166.8z"/>
	<path class="st7" d="M241.7,176c-0.2-0.2-0.5-0.4-0.7-0.6C241.2,175.6,241.5,175.8,241.7,176z"/>
	<path class="st7" d="M281.5,247.8c0.2,0.2,0.5,0.4,0.7,0.6C282,248.2,281.7,248,281.5,247.8z"/>
	<path class="st7" d="M229.7,229.3c-0.2,0.2-0.4,0.5-0.5,0.7C229.3,229.8,229.5,229.6,229.7,229.3z"/>
	<path class="st7" d="M284,244.2c-0.2-0.2-0.4-0.5-0.6-0.7C283.6,243.7,283.8,243.9,284,244.2z"/>
	<path class="st7" d="M238,232.8c0.2-0.2,0.4-0.5,0.6-0.7C238.4,232.3,238.2,232.5,238,232.8z"/>
	<path class="st7" d="M286.9,147.6c-0.2,0.2-0.5,0.4-0.7,0.6C286.4,148,286.7,147.8,286.9,147.6z"/>
	<path class="st7" d="M317.2,196.6c-0.2-0.2-0.4-0.5-0.6-0.7C316.8,196.2,317,196.4,317.2,196.6z"/>
	<path class="st7" d="M316.6,195.9c-0.2-0.2-0.5-0.4-0.7-0.6C316.2,195.5,316.4,195.7,316.6,195.9z"/>
	<path class="st7" d="M277.4,237.5c-0.2-0.2-0.4-0.5-0.6-0.7C277,237,277.2,237.3,277.4,237.5z"/>
	<path class="st7" d="M243,177.1c-0.2-0.2-0.5-0.4-0.7-0.6C242.5,176.7,242.7,176.9,243,177.1z"/>
	<path class="st7" d="M224.1,210.5c-0.1,0.2-0.3,0.4-0.4,0.6C223.8,210.9,224,210.7,224.1,210.5z"/>
	<path class="st7" d="M246.6,162.5c-0.1,0.2-0.3,0.4-0.4,0.6C246.3,162.9,246.4,162.7,246.6,162.5z"/>
	<path class="st7" d="M186.9,203.9c0.2,0.1,0.5,0.2,0.7,0.4C187.3,204.1,187.1,204,186.9,203.9z"/>
	<path class="st7" d="M235.6,235.1c0.2-0.1,0.3-0.3,0.5-0.4C236,234.8,235.8,235,235.6,235.1z"/>
	<path class="st7" d="M223.3,234.5c-0.1,0.2-0.3,0.3-0.4,0.5C223,234.8,223.1,234.6,223.3,234.5z"/>
	<path class="st7" d="M295.3,174.8c-0.2,0.1-0.3,0.2-0.5,0.3C294.9,175.1,295.1,174.9,295.3,174.8z"/>
	<path class="st7" d="M231.6,158.1c-0.1-0.2-0.2-0.3-0.3-0.5C231.3,157.8,231.5,158,231.6,158.1z"/>
	<path class="st7" d="M246,238.9c0.1,0.2,0.2,0.3,0.4,0.5C246.3,239.3,246.1,239.1,246,238.9z"/>
	<path class="st7" d="M236.1,170.5c-0.1-0.2-0.2-0.3-0.4-0.5C235.8,170.2,235.9,170.4,236.1,170.5z"/>
	<path class="st7" d="M273.2,171.4c0.1-0.2,0.2-0.3,0.4-0.5C273.4,171,273.3,171.2,273.2,171.4z"/>
	<path class="st7" d="M309.1,230.2c0.2,0.1,0.3,0.2,0.5,0.3C309.5,230.4,309.3,230.3,309.1,230.2z"/>
	<path class="st7" d="M230.6,183.1c-0.2-0.1-0.3-0.3-0.5-0.4C230.2,182.8,230.4,183,230.6,183.1z"/>
	<path class="st7" d="M245.3,178.8c-0.2-0.1-0.3-0.2-0.5-0.4C245,178.6,245.2,178.7,245.3,178.8z"/>
	<path class="st7" d="M202.3,226.3c-0.1,0.2-0.2,0.3-0.4,0.5C202,226.7,202.2,226.5,202.3,226.3z"/>
	<path class="st7" d="M288.6,150.6c0.1-0.2,0.2-0.3,0.3-0.5C288.8,150.2,288.7,150.4,288.6,150.6z"/>
	<path class="st7" d="M306.8,225.3c-0.2-0.1-0.3-0.3-0.5-0.4C306.5,225,306.6,225.1,306.8,225.3z"/>
	<path class="st7" d="M279.1,158c-0.1,0.2-0.2,0.3-0.4,0.5C278.9,158.4,279,158.2,279.1,158z"/>
	<path class="st7" d="M276.2,161.1c-0.2,0.1-0.3,0.2-0.5,0.4C275.9,161.3,276,161.2,276.2,161.1z"/>
	<path class="st7" d="M287.8,147c-0.2,0.1-0.3,0.2-0.5,0.4C287.4,147.2,287.6,147.1,287.8,147z"/>
	<path class="st7" d="M282.7,185.9c0.2-0.1,0.3-0.3,0.5-0.4C283.1,185.6,282.9,185.7,282.7,185.9z"/>
	<path class="st7" d="M284.4,220.3c0.1,0.2,0.2,0.3,0.3,0.5C284.6,220.6,284.5,220.5,284.4,220.3z"/>
	<path class="st7" d="M283.9,219.7c0.1,0.2,0.2,0.3,0.4,0.5C284.2,220,284,219.8,283.9,219.7z"/>
	<path class="st7" d="M234.5,217c-0.2,0.1-0.3,0.2-0.5,0.3C234.1,217.2,234.3,217.1,234.5,217z"/>
	<path class="st7" d="M289.5,216.9c-0.1-0.1-0.3-0.3-0.4-0.4C289.2,216.6,289.3,216.8,289.5,216.9z"/>
	<path class="st7" d="M288.8,216.1c-0.1-0.2-0.2-0.3-0.4-0.5C288.5,215.8,288.6,216,288.8,216.1z"/>
	<path class="st7" d="M221.1,214.1c-0.1,0.1-0.3,0.3-0.4,0.4C220.8,214.4,221,214.3,221.1,214.1z"/>
	<path class="st7" d="M296.7,181.4c0.2-0.1,0.3-0.2,0.5-0.4C297,181.1,296.8,181.2,296.7,181.4z"/>
	<path class="st7" d="M232,158.8c-0.1-0.2-0.2-0.3-0.4-0.5C231.8,158.4,231.9,158.6,232,158.8z"/>
	<path class="st7" d="M186.2,203.5c0.2,0.1,0.3,0.2,0.5,0.3C186.6,203.7,186.4,203.6,186.2,203.5z"/>
	<path class="st7" d="M295.9,174.4c-0.2,0.1-0.3,0.2-0.5,0.4C295.6,174.6,295.7,174.5,295.9,174.4z"/>
	<path class="st7" d="M285.9,148.5c-0.2,0.1-0.3,0.3-0.5,0.4C285.6,148.8,285.7,148.6,285.9,148.5z"/>
	<path class="st7" d="M289,149.9c0.1-0.2,0.2-0.3,0.4-0.5C289.3,149.6,289.2,149.8,289,149.9z"/>
	<path class="st7" d="M304.2,173.3c0.1-0.1,0.2-0.2,0.3-0.3C304.5,173.1,304.4,173.2,304.2,173.3z"/>
	<path class="st7" d="M236.6,234.3c0.1-0.1,0.2-0.2,0.3-0.3C236.8,234.1,236.7,234.2,236.6,234.3z"/>
	<path class="st7" d="M221.7,213.5c-0.1,0.1-0.1,0.1-0.2,0.2C221.6,213.6,221.7,213.6,221.7,213.5z"/>
	<path class="st7" d="M284.1,250.4c0.1,0.1,0.1,0.1,0.2,0.2C284.2,250.5,284.1,250.4,284.1,250.4z"/>
	<path class="st7" d="M220.5,214.8c-0.1,0.1-0.1,0.1-0.2,0.2C220.3,214.9,220.4,214.8,220.5,214.8z"/>
	<path class="st7" d="M283,249.1c0.1,0.1,0.1,0.1,0.2,0.2C283.1,249.2,283,249.1,283,249.1z"/>
	<path class="st7" d="M291.8,146.7c0.1-0.1,0.1-0.1,0.2-0.2C291.9,146.6,291.9,146.7,291.8,146.7z"/>
	<path class="st7" d="M273.4,242c0.1,0.1,0.1,0.1,0.2,0.2C273.5,242.1,273.4,242.1,273.4,242z"/>
	<path class="st7" d="M199.9,229.3c-0.1,0.1-0.1,0.1-0.2,0.2C199.8,229.4,199.8,229.4,199.9,229.3z"/>
	<path class="st7" d="M288.5,150.8c0-0.1,0.1-0.1,0.1-0.2C288.6,150.7,288.5,150.7,288.5,150.8z"/>
	<path class="st7" d="M274.8,169.6c0.1-0.1,0.2-0.1,0.2-0.2C275,169.4,274.9,169.5,274.8,169.6z"/>
	<path class="st7" d="M287.3,147.3c-0.1,0.1-0.1,0.1-0.2,0.2C287.1,147.5,287.2,147.4,287.3,147.3z"/>
	<path class="st7" d="M301.1,176.5c0.1-0.1,0.1-0.1,0.2-0.2C301.2,176.4,301.1,176.4,301.1,176.5z"/>
	<path class="st8" d="M305.8,265.7c1.1,0,2.3,1.1,2.7,2.3c0.4,1.1-0.3,1.8-1,2.4c-0.1,0.1-0.7,0-0.9-0.2c-0.7-0.7-1.4-1.5-2-2.3
		c-0.9-1-0.8-1.4,0.4-1.9C305.3,265.8,305.6,265.8,305.8,265.7z"/>
	<path class="st8" d="M324.4,252c-0.2,0.3-0.5,0.9-0.8,1.3c-0.1,0.1-0.6,0.1-0.8,0c-1-0.7-1.9-1.5-2.9-2.2c-0.6-0.4-0.6-0.8-0.1-1.2
		c0.6-0.6,1.2-1.3,2.2-0.9C323.2,249.4,324.4,250.7,324.4,252z"/>
	<path class="st8" d="M252,105.8c0,1.4,0,2.9,0,4.3c0,1.2-0.7,1.9-1.9,1.9c-0.6,0-0.9-0.2-0.9-0.8c-0.1-4.3-0.2-8.5-0.4-12.8
		c0-0.6,0.2-0.8,0.8-0.8c1.5,0,2.1,0.5,2.1,2c0,2.1,0,4.2,0,6.3C251.8,105.8,251.9,105.8,252,105.8z"/>
	<path class="st9" d="M241.9,297.8c0,0.3,0,0.7,0,1.1c-0.1,0.5,0.3,1.3-0.6,1.5c-1,0.2-2.1-0.2-2.2-1c-0.2-1.1-0.2-2.3,0.1-3.4
		c0.2-1,1.3-1.4,2.3-1c0.3,0.1,0.6,0.6,0.6,0.9C242.1,296.5,242,297.1,241.9,297.8z"/>
	<path class="st10" d="M292.9,108.1c-0.2,0.5-0.4,1.1-0.5,1.6c-0.4,1.3-0.7,2.7-1.1,4c-0.1,0.3-0.5,0.8-0.7,0.8
		c-0.6-0.2-1.1-0.5-1.6-0.8c-0.1-0.1,0.1-0.6,0.3-0.9c0.8-1.3,1.7-2.6,2.6-3.9c0.2-0.3,0.5-0.6,0.7-0.9
		C292.6,108,292.7,108.1,292.9,108.1z"/>
	<path class="st11" d="M288.3,281.4c0,0,0.1,0.1,0.1,0.1c0.1,0.2,0.2,0.3,0.4,0.5c0,0,0.1,0.1,0.1,0.1c0.1,0.2,0.2,0.3,0.4,0.5
		c0.1,0.1,0.2,0.2,0.3,0.4c0.1,0.2,0.2,0.3,0.4,0.5c0,0,0.1,0.1,0.1,0.1c0.2,0.2,0.4,0.5,0.6,0.7c0,0,0.1,0.1,0.1,0.1
		c0.1,1-0.2,1.3-1.4,1.3c-0.5-1.4-1-2.7-1.4-4.1c-0.1-0.2,0.2-0.5,0.3-0.8c0,0,0,0,0,0C288.1,281.1,288.2,281.2,288.3,281.4z"/>
	<path class="st12" d="M288,280.9c-0.1,0.3-0.3,0.6-0.3,0.8c0.4,1.4,0.9,2.8,1.4,4.1c1.3,0,1.5-0.3,1.4-1.3c0.8,0.7,0.8,0.9-0.1,1.3
		c-1.3,0.7-1.5,0.7-2-0.7c-0.6-1.8-1.2-3.5-1.8-5.4C287.6,279.7,287.8,280.2,288,280.9z"/>
	<path class="st12" d="M290.5,284.4c-0.2-0.2-0.4-0.5-0.6-0.7C290.1,283.9,290.3,284.1,290.5,284.4z"/>
	<path class="st12" d="M289.8,283.5c-0.1-0.2-0.2-0.3-0.4-0.5C289.6,283.2,289.7,283.4,289.8,283.5z"/>
	<path class="st12" d="M289.2,282.7c-0.1-0.2-0.2-0.3-0.4-0.5C289,282.3,289.1,282.5,289.2,282.7z"/>
	<path class="st12" d="M288.8,282c-0.1-0.2-0.2-0.3-0.4-0.5C288.5,281.7,288.6,281.9,288.8,282z"/>
	<path class="st12" d="M288.3,281.4c-0.1-0.2-0.2-0.3-0.3-0.5C288.1,281.1,288.2,281.2,288.3,281.4z"/>
	<path class="st13" d="M180.2,251.9c-0.5,0.5-0.9,0.9-1.4,1.4c-0.9,1-1.8,2-2.8,2.9c-0.2,0.2-0.7,0.4-0.8,0.4
		c-0.4-0.4-0.8-0.9-1.2-1.5c-0.1-0.1,0.3-0.5,0.5-0.6c1.6-0.9,3.2-1.8,4.7-2.6c0.2-0.1,0.4-0.1,0.7-0.1
		C180.1,251.8,180.1,251.8,180.2,251.9z"/>
	<path class="st0" d="M225.2,104.5c0,0.1,0.1,0.2,0.1,0.3c-0.1-0.1-0.1-0.2-0.2-0.2C225.2,104.6,225.2,104.5,225.2,104.5z"/>
	<path class="st14" d="M245.9,179.5c0.3-0.1,0.6-0.1,0.8-0.2c2.2-0.2,4.4-0.3,6.7,0.1c4.4,0.9,8.1,3,11,6.4
		c3.6,4.2,5.1,9.2,4.4,14.7c-0.8,6.1-4,10.9-9.4,14c-5.8,3.3-11.9,3.5-17.9,0.6c-5.2-2.6-8.7-6.9-10-12.5c-2.3-9.7,3-19.1,12.2-22.4
		C244.4,180,245.1,179.7,245.9,179.5z M238,198.1c-0.2,6.6,5.6,11.9,11.8,12c6.8,0.1,12.1-5.7,12.1-12c0-6.6-5.3-12-11.9-12
		C243.4,186.1,238,191.5,238,198.1z"/>
	<path class="st15" d="M238,198.1c0-6.6,5.4-12,11.9-12c6.6,0,11.8,5.4,11.9,12c0,6.2-5.2,12-12.1,12
		C243.6,210,237.9,204.7,238,198.1z"/>
</g>
</svg>
