<?xml version="1.0" encoding="utf-8"?>
<!-- Generator: Adobe Illustrator 23.0.2, SVG Export Plug-In . SVG Version: 6.00 Build 0)  -->
<svg version="1.1" id="Layer_1" xmlns="http://www.w3.org/2000/svg" xmlns:xlink="http://www.w3.org/1999/xlink" x="0px" y="0px"
	 viewBox="0 0 500 400" style="enable-background:new 0 0 500 400;" xml:space="preserve">
<style type="text/css">
	.st0{fill:#D8E4EB;}
	.st1{fill:#D40D12;}
	.st2{fill:#ED8285;}
	.st3{fill:#80080B;}
	.st4{fill:#E4F5F9;}
	.st5{fill:#F9A41A;}
	.st6{fill:#088E4B;}
	.st7{fill:#F7FBFC;}
	.st8{fill:#E32228;}
</style>
<g>
	<g>
		<g>
			<polygon class="st0" points="123.1,269.6 94,244.6 217.6,244.6 217.6,294.7 94,294.7 			"/>
			<polygon class="st0" points="376.9,269.6 406,244.6 282.4,244.6 282.4,294.7 406,294.7 			"/>
		</g>
		<g>
			<g>
				<polygon class="st1" points="123.9,268.6 95.2,245 217.1,245 217.1,292.3 95.2,292.3 				"/>
				<polygon class="st1" points="374.1,268.6 402.8,245 281,245 281,292.3 402.8,292.3 				"/>
			</g>
			<g>
				<path class="st2" d="M100.7,246.9h114.4v43.4H100.7l26.3-21.7L100.7,246.9z M106.2,288.4h106.9v-39.4H106.2l23.9,19.7
					L106.2,288.4z"/>
				<path class="st2" d="M397.3,246.9H282.9v43.4h114.4L371,268.6L397.3,246.9z M391.9,288.4H284.9v-39.4h106.9l-23.9,19.7
					L391.9,288.4z"/>
			</g>
			<g>
				<polygon class="st3" points="130.7,233.3 217.1,246.3 217.1,293.7 130.7,280.7 				"/>
				<polygon class="st3" points="281,246.3 281,293.7 367.3,280.7 367.3,233.3 				"/>
			</g>
		</g>
	</g>
	<path class="st0" d="M255.4,88.9l5.5,4c2.8,2.1,6.5,2.7,9.8,1.6l6.5-2.1c4.5-1.5,9.4,0.1,12.2,4l4,5.5c2,2.8,5.3,4.5,8.9,4.5l6.8,0
		c4.7,0,8.9,3,10.4,7.5l2.1,6.5c1.1,3.3,3.7,6,7,7l6.5,2.1c4.5,1.4,7.6,5.6,7.5,10.4l0,6.8c0,3.5,1.7,6.8,4.5,8.9l5.6,4
		c3.8,2.8,5.5,7.7,4,12.2l-2.1,6.5c-1.1,3.3-0.5,7,1.6,9.8l4,5.5c2.8,3.8,2.8,9,0,12.8l-4,5.5c-2.1,2.8-2.7,6.5-1.6,9.8l2.1,6.5
		c1.5,4.5-0.1,9.4-4,12.2l-5.6,4c-2.8,2-4.5,5.3-4.5,8.9l0,6.8c0,4.7-3,8.9-7.5,10.4l-6.5,2.1c-3.3,1.1-6,3.7-7,7l-2.1,6.5
		c-1.4,4.5-5.6,7.6-10.4,7.5l-6.8,0c-3.5,0-6.8,1.7-8.9,4.5l-4,5.5c-2.8,3.8-7.7,5.5-12.2,4l-6.5-2.1c-3.3-1.1-7-0.5-9.8,1.6l-5.5,4
		c-3.8,2.8-9,2.8-12.8,0l-5.5-4c-2.8-2.1-6.5-2.7-9.8-1.6l-6.5,2.1c-4.5,1.5-9.4-0.1-12.2-4l-4-5.5c-2-2.8-5.3-4.5-8.9-4.5l-6.8,0
		c-4.7,0-8.9-3-10.4-7.5l-2.1-6.5c-1.1-3.3-3.7-6-7-7l-6.5-2.1c-4.5-1.4-7.6-5.6-7.5-10.4l0-6.8c0-3.5-1.7-6.8-4.5-8.9l-5.6-4
		c-3.8-2.8-5.5-7.7-4-12.2l2.1-6.5c1.1-3.3,0.5-7-1.6-9.8l-4-5.5c-2.8-3.8-2.8-9,0-12.8l4-5.5c2.1-2.8,2.7-6.5,1.6-9.8l-2.1-6.5
		c-1.5-4.5,0.1-9.4,4-12.2l5.6-4c2.8-2,4.5-5.3,4.5-8.9l0-6.8c0-4.7,3-8.9,7.5-10.4l6.5-2.1c3.3-1.1,6-3.7,7-7l2.1-6.5
		c1.4-4.5,5.6-7.6,10.4-7.5l6.8,0c3.5,0,6.8-1.7,8.9-4.5l4-5.5c2.8-3.8,7.7-5.5,12.2-4l6.5,2.1c3.3,1.1,7,0.5,9.8-1.6l5.5-4
		C246.4,86.1,251.6,86.1,255.4,88.9z"/>
	<path class="st4" d="M353,222.2l2.1,6.5c1.3,3.9-0.1,8.1-3.4,10.4l-5.6,4c-3.3,2.3-5.2,6.1-5.2,10.1l0,6.8c0,4.1-2.6,7.6-6.4,8.9
		l-6.5,2.1c-3.8,1.2-6.8,4.2-8.1,8.1l-2.1,6.5c-1.2,3.9-4.8,6.4-8.8,6.4l-6.9,0c-4,0-7.8,1.9-10.1,5.2l-4,5.5
		c-1.7,2.4-4.5,3.9-7.5,3.9c-1,0-2-0.2-2.9-0.5l-6.5-2.1c-1.3-0.4-2.6-0.6-3.9-0.6c-2.7,0-5.2,0.8-7.4,2.4l-5.5,4
		c-1.6,1.2-3.5,1.8-5.5,1.8c-2,0-3.9-0.6-5.5-1.8l-5.5-4c-2.1-1.6-4.7-2.4-7.3-2.4c-1.3,0-2.6,0.2-3.9,0.6l-6.5,2.1
		c-0.9,0.3-1.9,0.5-2.9,0.5c-3,0-5.8-1.4-7.5-3.9l-4-5.5c-2.3-3.2-6.1-5.2-10.1-5.2l-6.9,0c-4,0-7.6-2.6-8.8-6.4l-2.1-6.5
		c-1.2-3.8-4.2-6.8-8.1-8.1l-6.5-2.1c-3.9-1.2-6.5-4.8-6.4-8.9l0-6.8c0-4-1.9-7.8-5.2-10.1l-5.6-4c-3.3-2.4-4.7-6.6-3.4-10.4
		l2.1-6.5c1.3-3.8,0.6-8-1.8-11.2l-4-5.5c-2.4-3.3-2.4-7.7,0-11l4-5.5c2.4-3.2,3-7.4,1.8-11.2l-2.1-6.5c-1.3-3.9,0.1-8,3.4-10.4
		l5.6-4c3.3-2.3,5.2-6.1,5.2-10.1l0-6.8c0-4.1,2.6-7.6,6.4-8.9l6.5-2.1c3.8-1.2,6.8-4.2,8.1-8.1l2.1-6.5c1.2-3.9,4.8-6.4,8.8-6.4
		l6.9,0c4,0,7.8-1.9,10.1-5.2l4-5.5c1.7-2.4,4.5-3.9,7.5-3.9c1,0,2,0.2,2.9,0.5l6.5,2.1c1.3,0.4,2.6,0.6,3.9,0.6
		c2.7,0,5.2-0.8,7.4-2.4l5.5-4c1.6-1.2,3.5-1.8,5.5-1.8c2,0,3.9,0.6,5.5,1.8l5.5,4c2.1,1.6,4.7,2.4,7.4,2.4c1.3,0,2.6-0.2,3.9-0.6
		l6.5-2.1c0.9-0.3,1.9-0.5,2.9-0.5c3,0,5.8,1.4,7.5,3.9l4,5.5c2.3,3.2,6.1,5.2,10.1,5.2l6.9,0c4,0,7.6,2.6,8.8,6.4l2.1,6.5
		c1.2,3.8,4.2,6.8,8.1,8.1l6.5,2.1c3.9,1.2,6.5,4.8,6.4,8.9l0,6.8c0,4,1.9,7.8,5.2,10.1l5.6,4c3.3,2.4,4.7,6.6,3.4,10.4l-2.1,6.5
		c-1.3,3.8-0.6,8,1.8,11.2l4,5.5c2.4,3.3,2.4,7.7,0,11l-4,5.5C352.4,214.2,351.8,218.4,353,222.2z"/>
	<circle class="st5" cx="249" cy="200" r="88.7"/>
	<circle class="st5" cx="249" cy="200" r="86.6"/>
	<path class="st6" d="M249,117.2c-45.7,0-82.8,37.1-82.8,82.8s37.1,82.8,82.8,82.8s82.8-37.1,82.8-82.8S294.8,117.2,249,117.2z
		 M307.6,214.6c-8.1,32.3-40.8,52-73.1,43.9c-32.3-8.1-52-40.8-43.9-73.1c8.1-32.3,40.8-52,73.1-44
		C295.9,149.5,315.6,182.3,307.6,214.6z"/>
	<path class="st7" d="M249,113.4c-47.8,0-86.6,38.8-86.6,86.6s38.8,86.6,86.6,86.6s86.6-38.8,86.6-86.6S296.9,113.4,249,113.4z
		 M249,282.8c-45.7,0-82.8-37.1-82.8-82.8s37.1-82.8,82.8-82.8s82.8,37.1,82.8,82.8S294.8,282.8,249,282.8z"/>
	<path class="st7" d="M263.6,141.5c-32.3-8.1-65.1,11.6-73.1,44c-8.1,32.3,11.6,65.1,43.9,73.1c32.3,8.1,65.1-11.6,73.1-43.9
		C315.6,182.3,295.9,149.5,263.6,141.5z M303.3,213.5c-7.5,30-37.9,48.3-67.9,40.8c-30-7.5-48.3-37.9-40.8-67.9
		c7.5-30,37.9-48.3,67.9-40.8C292.6,153.1,310.8,183.5,303.3,213.5z"/>
	<g>
		<g>
			<g>
				<path class="st7" d="M174.2,194.5c0,0.8,0.2,1.4,0.9,1.9c0.6,0.5,1.5,0.8,2.7,0.8c2.4,0.1,3.6-0.7,3.7-2.5c0-0.5,0-1.1-0.1-1.6
					c-0.1-0.5-0.3-1-0.5-1.6l2.8,0.2c0.4,1.1,0.6,2.2,0.5,3.5c-0.1,1.9-0.7,3.3-1.9,4.2c-1.1,0.9-2.7,1.3-4.8,1.2
					c-1.3-0.1-2.4-0.4-3.3-0.9c-0.9-0.5-1.6-1.3-2.1-2.2c-0.5-0.9-0.7-2-0.6-3.2c0.1-1.3,0.4-2.6,1.1-3.8l2.6,1.2
					c-0.2,0.4-0.4,0.9-0.6,1.3C174.3,193.5,174.2,194,174.2,194.5z"/>
				<path class="st7" d="M174.6,177.3l7.3,1.7c1.6,0.4,2.7,1.1,3.4,2.2c0.7,1.1,0.8,2.5,0.4,4.2c-0.4,1.6-1.1,2.8-2.1,3.5
					c-1,0.7-2.4,0.9-3.9,0.5l-7.3-1.7l0.8-3.3l7.1,1.6c0.9,0.2,1.5,0.2,2,0c0.5-0.2,0.8-0.7,0.9-1.3c0.2-0.7,0.1-1.2-0.2-1.6
					c-0.3-0.4-0.9-0.7-1.8-0.9l-7.1-1.6L174.6,177.3z"/>
				<path class="st7" d="M186.9,169.7c0.7,0.3,1.3,0.7,1.7,1.3c0.4,0.6,0.6,1.3,0.6,2.1c0,0.8-0.1,1.7-0.5,2.6
					c-0.3,0.8-0.6,1.4-1,1.9c-0.3,0.5-0.7,0.9-1.2,1.4l-2.8-1.1c0.5-0.5,1-1,1.5-1.5c0.4-0.6,0.8-1.1,1-1.7c0.2-0.5,0.2-0.8,0.2-1.1
					c-0.1-0.3-0.2-0.5-0.5-0.6c-0.2-0.1-0.3-0.1-0.5,0c-0.2,0-0.3,0.1-0.5,0.3c-0.2,0.1-0.7,0.5-1.4,1.2c-0.6,0.6-1.2,1-1.7,1.3
					c-0.5,0.2-1,0.4-1.4,0.4c-0.5,0-1-0.1-1.6-0.3c-1.1-0.4-1.7-1.2-2-2.2c-0.3-1-0.1-2.2,0.4-3.5c0.5-1.2,1.3-2.3,2.3-3.3l2,1.9
					c-0.9,0.9-1.6,1.7-1.9,2.5c-0.2,0.4-0.2,0.7-0.1,1c0.1,0.2,0.2,0.4,0.4,0.5c0.2,0.1,0.5,0.1,0.7-0.1c0.3-0.2,0.9-0.7,1.8-1.5
					c0.9-0.8,1.6-1.3,2.3-1.5C185.4,169.3,186.1,169.3,186.9,169.7z"/>
				<path class="st7" d="M193.7,165.5l-1.7,2.9l-8.3-4.9l-1.5,2.6l-2.4-1.4l4.8-8.1l2.4,1.4l-1.5,2.6L193.7,165.5z"/>
				<path class="st7" d="M198.3,149.4c1.6,1.3,2.5,2.8,2.6,4.2c0.2,1.5-0.4,3-1.7,4.5c-1.3,1.5-2.6,2.3-4.1,2.4
					c-1.5,0.1-3-0.5-4.6-1.9c-1.6-1.3-2.4-2.7-2.6-4.2c-0.2-1.5,0.4-3,1.7-4.5c1.3-1.5,2.6-2.3,4.1-2.4
					C195.2,147.4,196.7,148,198.3,149.4z M192.8,155.9c1.8,1.5,3.3,1.7,4.4,0.4c0.5-0.6,0.7-1.3,0.5-2c-0.2-0.7-0.7-1.4-1.7-2.2
					c-0.9-0.8-1.8-1.2-2.5-1.3c-0.7-0.1-1.3,0.2-1.9,0.9C190.6,152.9,191,154.3,192.8,155.9z"/>
				<path class="st7" d="M207.9,149.3l-7.5-5.5l-0.1,0c1,1.1,1.8,2,2.3,2.7l3.3,4.3l-2.3,1.8l-7.6-9.8l3.5-2.7l7.4,5.4l0.1,0
					l-3.4-8.5l3.5-2.7l7.6,9.8l-2.4,1.9l-3.3-4.3c-0.2-0.2-0.4-0.5-0.6-0.8c-0.2-0.3-0.7-1-1.5-2.1l-0.1,0l3.5,8.6L207.9,149.3z"/>
				<path class="st7" d="M222.9,140.1l-6.6,3.3l-5.6-11l6.6-3.3l1.2,2.4l-3.6,1.8l0.9,1.7l3.3-1.7l1.2,2.4l-3.3,1.7l1.1,2.1l3.6-1.8
					L222.9,140.1z"/>
				<path class="st7" d="M225.8,134.2l1.4,4.3l-3.2,1.1l-3.9-11.8l3.9-1.3c3.2-1.1,5.2-0.4,6,1.9c0.5,1.4,0.1,2.6-0.9,3.8l5.1,4
					l-3.6,1.2l-3.9-3.4L225.8,134.2z M225,131.9l0.6-0.2c1.1-0.4,1.5-1,1.2-2c-0.3-0.8-0.9-1-2-0.7l-0.6,0.2L225,131.9z"/>
				<path class="st7" d="M246,131c0.1,0.8,0,1.5-0.4,2.1c-0.3,0.6-0.8,1.2-1.5,1.6c-0.7,0.4-1.5,0.7-2.5,0.8c-0.8,0.1-1.5,0.1-2.1,0
					c-0.6-0.1-1.2-0.2-1.8-0.4l-0.3-3c0.7,0.3,1.4,0.4,2.1,0.6c0.7,0.1,1.3,0.1,1.9,0.1c0.5-0.1,0.8-0.2,1.1-0.4
					c0.2-0.2,0.3-0.4,0.3-0.7c0-0.2-0.1-0.3-0.2-0.4c-0.1-0.1-0.3-0.2-0.5-0.3c-0.2-0.1-0.8-0.3-1.7-0.6c-0.8-0.3-1.5-0.6-1.9-0.9
					c-0.4-0.3-0.8-0.7-1-1.1c-0.2-0.4-0.4-0.9-0.5-1.5c-0.1-1.1,0.2-2.1,1-2.8c0.8-0.7,1.9-1.2,3.3-1.3c1.3-0.1,2.6,0,4,0.5
					l-0.7,2.7c-1.2-0.4-2.2-0.6-3.1-0.5c-0.4,0-0.7,0.2-0.9,0.3c-0.2,0.2-0.3,0.4-0.2,0.6c0,0.2,0.2,0.4,0.4,0.6
					c0.3,0.2,1,0.4,2.1,0.8c1.1,0.4,1.9,0.8,2.4,1.3C245.7,129.5,246,130.1,246,131z"/>
				<path class="st7" d="M255,135l-0.5-2.3l-4-0.2l-0.7,2.3l-3.7-0.2l4.7-12.2l4.5,0.2l3.5,12.6L255,135z M253.9,129.9l-0.4-2.1
					c-0.1-0.5-0.2-1-0.4-1.8c-0.1-0.7-0.2-1.2-0.3-1.6c-0.1,0.3-0.2,0.8-0.4,1.4c-0.2,0.7-0.6,1.9-1.2,3.9L253.9,129.9z"/>
				<path class="st7" d="M264.3,136.6l-3.3-0.7l2-9.4l-3-0.6l0.6-2.7l9.2,2l-0.6,2.7l-3-0.6L264.3,136.6z"/>
				<path class="st7" d="M268.3,137.7l4-11.7l3.2,1.1l-4,11.7L268.3,137.7z"/>
				<path class="st7" d="M282.3,139.4c-0.3,0.7-0.8,1.2-1.4,1.6c-0.6,0.4-1.3,0.6-2.1,0.5c-0.8,0-1.7-0.2-2.6-0.6
					c-0.7-0.4-1.3-0.7-1.8-1c-0.5-0.3-0.9-0.8-1.3-1.3l1.3-2.7c0.4,0.6,0.9,1.1,1.5,1.5c0.5,0.5,1.1,0.8,1.6,1.1
					c0.4,0.2,0.8,0.3,1.1,0.2c0.3-0.1,0.5-0.2,0.6-0.5c0.1-0.2,0.1-0.3,0.1-0.5c0-0.2-0.1-0.3-0.2-0.5c-0.1-0.2-0.5-0.7-1.2-1.4
					c-0.6-0.7-1-1.3-1.2-1.7c-0.2-0.5-0.3-1-0.3-1.5c0-0.5,0.1-1,0.4-1.6c0.5-1,1.2-1.7,2.3-1.9c1-0.2,2.2,0,3.5,0.6
					c1.2,0.5,2.2,1.4,3.2,2.5l-2,1.9c-0.8-1-1.6-1.6-2.4-2c-0.4-0.2-0.7-0.2-1-0.2c-0.2,0.1-0.4,0.2-0.5,0.4
					c-0.1,0.2-0.1,0.5,0.1,0.8c0.1,0.3,0.6,0.9,1.4,1.8c0.8,0.9,1.2,1.7,1.4,2.3C282.7,137.9,282.6,138.7,282.3,139.4z"/>
				<path class="st7" d="M284.4,145.2l-2.8-1.8l6.7-10.4l6.1,4l-1.5,2.3l-3.4-2.2l-1.3,2l3.1,2l-1.5,2.3l-3.1-2L284.4,145.2z"/>
				<path class="st7" d="M294.3,153.1l1.1-2.1l-3-2.7l-2,1.3l-2.7-2.4l11.3-6.6l3.3,3l-5.2,12L294.3,153.1z M296.7,148.4l1-1.9
					c0.2-0.4,0.5-1,0.8-1.6c0.3-0.7,0.6-1.1,0.8-1.4c-0.2,0.2-0.6,0.5-1.2,0.9c-0.6,0.4-1.7,1.1-3.3,2.3L296.7,148.4z"/>
				<path class="st7" d="M308.3,154c-0.5-0.6-1.1-0.9-1.9-0.8c-0.8,0.1-1.6,0.5-2.5,1.2c-1.9,1.5-2.2,2.9-1.1,4.4
					c0.3,0.4,0.7,0.8,1.2,1.1c0.4,0.3,0.9,0.6,1.4,0.9l-2.2,1.8c-1-0.5-1.9-1.3-2.7-2.3c-1.2-1.5-1.6-2.9-1.4-4.4
					c0.2-1.5,1.1-2.8,2.7-4.1c1-0.8,2-1.3,3.1-1.6c1.1-0.2,2.1-0.2,3.1,0.2c1,0.4,1.8,1,2.6,2c0.8,1,1.4,2.2,1.7,3.5l-2.7,0.9
					c-0.1-0.5-0.3-1-0.4-1.4C308.9,154.8,308.6,154.4,308.3,154z"/>
				<path class="st7" d="M306.3,168.7l-1.7-2.9l8.3-4.9l-1.5-2.6l2.4-1.4l4.7,8.1l-2.4,1.4l-1.5-2.6L306.3,168.7z"/>
				<path class="st7" d="M308.1,172.4l11.4-5l1.3,3.1l-11.4,5L308.1,172.4z"/>
				<path class="st7" d="M319.4,186.6c-2,0.6-3.7,0.5-5-0.2c-1.3-0.7-2.2-2-2.8-3.9c-0.5-1.9-0.4-3.5,0.4-4.7
					c0.8-1.3,2.2-2.2,4.2-2.8c2-0.6,3.6-0.5,5,0.2c1.3,0.7,2.3,2,2.8,3.9c0.5,1.9,0.4,3.5-0.4,4.8
					C322.8,185.1,321.4,186,319.4,186.6z M317.1,178.4c-2.3,0.6-3.2,1.8-2.8,3.4c0.2,0.8,0.7,1.3,1.3,1.6c0.7,0.2,1.6,0.2,2.8-0.1
					c1.2-0.3,2-0.8,2.5-1.3c0.5-0.6,0.6-1.2,0.4-2C320.9,178.2,319.5,177.7,317.1,178.4z"/>
				<path class="st7" d="M314.5,201l-0.3-4.4l8.4-5.2l0-0.1c-1.4,0.2-2.4,0.3-3.1,0.4l-5.6,0.4l-0.2-3l12.4-0.9l0.3,4.4l-8.3,5.1
					l0,0.1c1.2-0.2,2.2-0.3,3-0.3l5.6-0.4l0.2,3L314.5,201z"/>
			</g>
		</g>
		<g>
			<g>
				<path class="st7" d="M201.1,251.5l3.9,3.6l-4.5,4.9c-1.4-0.6-2.7-1.5-4-2.7c-1.4-1.3-2.1-2.7-2.1-4.2c0-1.5,0.7-3,2.1-4.5
					c1.4-1.5,2.8-2.2,4.4-2.3c1.6,0,3.1,0.6,4.7,2c0.6,0.5,1.1,1.1,1.5,1.7s0.7,1.1,0.9,1.6l-2.6,1.2c-0.4-0.9-0.9-1.8-1.7-2.5
					c-0.7-0.7-1.5-0.9-2.3-0.8c-0.8,0.1-1.6,0.6-2.4,1.5c-0.8,0.8-1.2,1.7-1.3,2.4c-0.1,0.8,0.2,1.5,0.9,2.1
					c0.4,0.3,0.7,0.6,1.1,0.8l1.3-1.4l-1.6-1.5L201.1,251.5z"/>
				<path class="st7" d="M219.7,258.5l-3.9,6.4c-0.8,1.4-1.9,2.2-3.1,2.5c-1.2,0.3-2.6,0-4.1-0.9c-1.4-0.9-2.3-1.9-2.7-3.1
					c-0.3-1.2-0.1-2.5,0.8-3.9l3.9-6.4l2.9,1.7l-3.8,6.2c-0.5,0.7-0.6,1.4-0.6,1.9c0.1,0.5,0.4,0.9,0.9,1.3c0.6,0.4,1.1,0.4,1.6,0.3
					c0.5-0.2,0.9-0.6,1.4-1.4l3.8-6.2L219.7,258.5z"/>
				<path class="st7" d="M225.2,273.9l0.2-2.4l-3.8-1.4l-1.4,2l-3.5-1.2l8-10.3l4.2,1.5l-0.4,13.1L225.2,273.9z M225.7,268.7
					l0.2-2.1c0-0.5,0.1-1.1,0.2-1.8c0.1-0.7,0.1-1.3,0.2-1.6c-0.1,0.3-0.4,0.7-0.8,1.2c-0.4,0.6-1.1,1.7-2.3,3.3L225.7,268.7z"/>
				<path class="st7" d="M236.5,272l-0.7,4.5l-3.3-0.5l1.9-12.2l4,0.6c3.3,0.5,4.8,2,4.4,4.4c-0.2,1.4-1.1,2.4-2.6,3l2.7,5.9
					l-3.8-0.6l-1.9-4.9L236.5,272z M236.9,269.5l0.6,0.1c1.2,0.2,1.8-0.2,2-1.3c0.1-0.8-0.4-1.4-1.5-1.5l-0.7-0.1L236.9,269.5z"/>
				<path class="st7" d="M254.3,277.5l-0.7-2.3l-4,0.1l-0.5,2.3l-3.7,0.1l3.6-12.6l4.5-0.1l4.5,12.3L254.3,277.5z M252.8,272.4
					l-0.6-2c-0.1-0.4-0.3-1-0.5-1.7c-0.2-0.7-0.3-1.2-0.4-1.5c0,0.3-0.1,0.8-0.3,1.4c-0.1,0.7-0.4,2-0.9,3.9L252.8,272.4z"/>
				<path class="st7" d="M273.4,273.9l-4.3,1.1l-6.5-7.4l-0.1,0c0.4,1.3,0.7,2.3,0.9,3l1.3,5.4l-2.9,0.7l-3-12l4.2-1l6.4,7.3l0,0
					c-0.4-1.2-0.7-2.2-0.8-2.9l-1.3-5.4l2.9-0.7L273.4,273.9z"/>
				<path class="st7" d="M283.3,269.6l-3,1.4l-4.1-8.7l-2.7,1.3l-1.2-2.5l8.5-4l1.2,2.5l-2.7,1.3L283.3,269.6z"/>
				<path class="st7" d="M295.7,262.1l-6.1,4.1l-6.9-10.3l6.1-4.1l1.5,2.2l-3.3,2.2l1.1,1.6l3.1-2.1l1.5,2.2l-3.1,2.1l1.3,1.9
					l3.3-2.2L295.7,262.1z"/>
				<path class="st7" d="M304.6,254.3l-5.4,5l-8.4-9.1l5.4-5l1.8,2l-2.9,2.7l1.3,1.4l2.7-2.5l1.8,2l-2.7,2.5l1.6,1.7l2.9-2.7
					L304.6,254.3z"/>
			</g>
		</g>
		<g>
			<polygon class="st7" points="325.1,220.6 320.4,221.5 318.5,225.9 316.2,221.7 311.4,221.3 314.6,217.8 313.6,213.1 317.9,215.1 
				322,212.7 321.5,217.4 			"/>
			<polygon class="st7" points="317.1,239.6 312.4,239.3 309.4,243 308.2,238.4 303.8,236.7 307.8,234.2 308,229.4 311.7,232.4 
				316.3,231.2 314.5,235.6 			"/>
			<polygon class="st7" points="180.7,239.2 183.3,235.2 181.6,230.8 186.2,232.1 189.8,229.1 190,233.8 194.1,236.4 189.6,238 
				188.4,242.7 185.5,238.9 			"/>
			<polygon class="st7" points="172.9,220.2 176.5,217 175.9,212.3 180,214.7 184.3,212.7 183.3,217.4 186.5,220.9 181.8,221.4 
				179.4,225.5 177.5,221.1 			"/>
		</g>
	</g>
	<g>
		<g>
			<g>
				<polygon class="st7" points="249,160.9 251.5,165.8 256.9,166.6 253,170.5 253.9,175.9 249,173.4 244.1,175.9 245.1,170.5 
					241.1,166.6 246.6,165.8 				"/>
				<g>
					<polygon class="st7" points="232.1,164.8 233.9,168.5 237.9,169.1 235,171.9 235.7,175.9 232.1,174 228.5,175.9 229.2,171.9 
						226.2,169.1 230.3,168.5 					"/>
					<polygon class="st7" points="217.9,167.9 219.7,171.5 223.7,172.1 220.8,175 221.5,179 217.9,177.1 214.3,179 215,175 
						212.1,172.1 216.1,171.5 					"/>
					<polygon class="st7" points="266,164.8 267.8,168.5 271.8,169.1 268.9,171.9 269.6,175.9 266,174 262.3,175.9 263,171.9 
						260.1,169.1 264.2,168.5 					"/>
					<polygon class="st7" points="279.6,167.9 281.4,171.5 285.5,172.1 282.6,175 283.2,179 279.6,177.1 276,179 276.7,175 
						273.8,172.1 277.8,171.5 					"/>
				</g>
			</g>
		</g>
		<g>
			<path class="st7" d="M213.8,224.5h-6.3v-20.3c0-2.2,0.1-4.8,0.3-7.6c-0.1,0.2-0.5,0.6-1.2,1.4c-0.7,0.8-2.1,2.2-4.1,4.3l-3.6-3.9
				l9.2-8.5h5.7V224.5z"/>
			<path class="st7" d="M239.7,207.2c0,6.3-0.8,10.8-2.3,13.6c-1.5,2.8-3.9,4.2-7.3,4.2c-3.3,0-5.7-1.4-7.2-4.2
				c-1.5-2.8-2.2-7.3-2.2-13.6c0-6.3,0.8-10.8,2.3-13.6c1.5-2.8,3.9-4.2,7.2-4.2c3.3,0,5.7,1.4,7.2,4.1
				C238.9,196.2,239.7,200.8,239.7,207.2z M227.2,207.2c0,4.8,0.2,8.1,0.6,9.8c0.4,1.7,1.2,2.5,2.4,2.5c0.8,0,1.4-0.4,1.8-1.1
				c0.4-0.7,0.7-1.9,0.9-3.6c0.2-1.7,0.3-4.2,0.3-7.6c0-4.8-0.2-8-0.7-9.8c-0.4-1.7-1.2-2.6-2.4-2.6c-1.2,0-2,0.9-2.4,2.6
				C227.4,199.1,227.2,202.4,227.2,207.2z"/>
			<path class="st7" d="M262.1,207.2c0,6.3-0.8,10.8-2.3,13.6c-1.5,2.8-3.9,4.2-7.3,4.2c-3.3,0-5.7-1.4-7.2-4.2
				c-1.5-2.8-2.2-7.3-2.2-13.6c0-6.3,0.8-10.8,2.3-13.6c1.5-2.8,3.9-4.2,7.2-4.2c3.3,0,5.7,1.4,7.2,4.1
				C261.4,196.2,262.1,200.8,262.1,207.2z M249.6,207.2c0,4.8,0.2,8.1,0.6,9.8c0.4,1.7,1.2,2.5,2.4,2.5c0.8,0,1.4-0.4,1.8-1.1
				c0.4-0.7,0.7-1.9,0.9-3.6c0.2-1.7,0.3-4.2,0.3-7.6c0-4.8-0.2-8-0.7-9.8c-0.4-1.7-1.2-2.6-2.4-2.6c-1.2,0-2,0.9-2.4,2.6
				C249.8,199.1,249.6,202.4,249.6,207.2z"/>
			<path class="st7" d="M279.2,200.2c0,3.6-0.6,6.3-1.8,8.1c-1.2,1.9-2.9,2.8-5.2,2.8c-2.4,0-4.1-0.9-5.2-2.7
				c-1.1-1.8-1.7-4.5-1.7-8.1c0-7.3,2.3-10.9,6.8-10.9C276.9,189.4,279.2,193,279.2,200.2z M270.4,200.2c0,2.2,0.1,3.8,0.4,4.8
				c0.3,1,0.8,1.5,1.4,1.5c0.7,0,1.1-0.5,1.4-1.5c0.3-1,0.4-2.6,0.4-4.8c0-2.2-0.2-3.8-0.5-4.8c-0.3-1-0.8-1.5-1.4-1.5
				c-0.7,0-1.1,0.5-1.4,1.5C270.5,196.4,270.4,198,270.4,200.2z M291.9,189.9l-14.3,34.6h-4.9l14.3-34.6H291.9z M299.2,214
				c0,3.6-0.6,6.3-1.8,8.1c-1.2,1.8-2.9,2.8-5.2,2.8c-2.4,0-4.1-0.9-5.2-2.7c-1.1-1.8-1.6-4.5-1.6-8.1c0-3.5,0.6-6.2,1.7-8.1
				c1.1-1.9,2.8-2.8,5.2-2.8C296.8,203.2,299.2,206.8,299.2,214z M290.4,214.1c0,2.2,0.1,3.8,0.4,4.8c0.3,1,0.8,1.5,1.4,1.5
				c0.7,0,1.1-0.5,1.4-1.5c0.3-1,0.4-2.6,0.4-4.8c0-2.2-0.2-3.8-0.5-4.8c-0.3-1-0.8-1.5-1.4-1.5c-0.6,0-1.1,0.5-1.4,1.5
				C290.5,210.3,290.4,211.9,290.4,214.1z"/>
		</g>
	</g>
	<g>
		<rect x="130.7" y="233.3" class="st8" width="236.7" height="47.3"/>
		<g>
			<polygon class="st7" points="150.2,247.7 153,253.2 159.1,254.1 154.7,258.5 155.7,264.6 150.2,261.7 144.7,264.6 145.7,258.5 
				141.3,254.1 147.4,253.2 			"/>
			<polygon class="st7" points="347.8,247.7 350.6,253.2 356.8,254.1 352.3,258.5 353.3,264.6 347.8,261.7 342.3,264.6 343.4,258.5 
				338.9,254.1 345.1,253.2 			"/>
		</g>
		<g>
			<path class="st7" d="M176.8,255.6h7.8v13.1c-2.2,0.9-4.6,1.4-7.1,1.4c-3,0-5.3-1.1-6.9-3.4c-1.6-2.3-2.4-5.5-2.4-9.8
				c0-4.1,0.9-7.3,2.8-9.7c1.8-2.3,4.4-3.5,7.7-3.5c2,0,4,0.5,5.9,1.6l-1.5,3.9c-1.4-0.8-2.8-1.3-4.1-1.3c-1.8,0-3.2,0.8-4.3,2.4
				c-1.1,1.6-1.6,3.8-1.6,6.6c0,2.9,0.4,5.1,1.1,6.6c0.8,1.5,1.9,2.3,3.3,2.3c0.8,0,1.6-0.1,2.3-0.3v-5.9h-3.2V255.6z"/>
			<path class="st7" d="M204.3,244.2v16.6c0,3-0.7,5.4-2.1,7c-1.4,1.6-3.4,2.4-6,2.4c-2.5,0-4.5-0.8-5.8-2.4c-1.3-1.6-2-4-2-7.1
				v-16.5h4.7v16.9c0,3.3,1.1,4.9,3.2,4.9c1,0,1.8-0.4,2.3-1.2c0.5-0.8,0.8-2,0.8-3.5v-17H204.3z"/>
			<path class="st7" d="M220.8,269.8l-1.5-6.5h-6.7l-1.5,6.5h-4.8l6.3-25.7h6.5l6.4,25.7H220.8z M218.4,259.1l-1.4-6
				c-0.1-0.4-0.3-1.3-0.6-2.7c-0.3-1.5-0.5-2.4-0.5-2.9c-0.2,1-0.3,2.1-0.6,3.3c-0.2,1.2-0.8,4-1.8,8.3H218.4z"/>
			<path class="st7" d="M232.6,259.8v10h-4.8v-25.6h6.2c2.6,0,4.6,0.6,5.8,1.9c1.3,1.3,1.9,3.2,1.9,5.7c0,3.2-1.1,5.5-3.3,6.8
				l4.9,11.2h-5.1l-4-10H232.6z M232.6,255.7h1.2c1.1,0,1.9-0.3,2.4-1c0.5-0.6,0.7-1.6,0.7-2.8c0-1.3-0.3-2.2-0.8-2.8
				c-0.5-0.6-1.3-0.8-2.4-0.8h-1.2V255.7z"/>
			<path class="st7" d="M257.9,269.8l-1.5-6.5h-6.7l-1.5,6.5h-4.8l6.3-25.7h6.5l6.4,25.7H257.9z M255.6,259.1l-1.4-6
				c-0.1-0.4-0.3-1.3-0.6-2.7c-0.3-1.5-0.5-2.4-0.5-2.9c-0.2,1-0.3,2.1-0.6,3.3c-0.2,1.2-0.8,4-1.8,8.3H255.6z"/>
			<path class="st7" d="M282.9,269.8h-5.8l-7.9-18.6H269c0.3,1.4,0.4,2.9,0.4,4.6v14H265v-25.6h5.9l7.9,18.4h0.2
				c-0.2-1.2-0.3-2.7-0.3-4.4v-14h4.4V269.8z"/>
			<path class="st7" d="M295.3,269.8h-4.7v-21.4h-4.9v-4.2h14.6v4.2h-4.9V269.8z"/>
			<path class="st7" d="M314.5,269.8H303v-25.6h11.5v4.1h-6.8v6.1h6.3v4.1h-6.3v7.1h6.8V269.8z"/>
			<path class="st7" d="M329.8,269.8h-11.5v-25.6h11.5v4.1H323v6.1h6.3v4.1H323v7.1h6.8V269.8z"/>
		</g>
	</g>
</g>
</svg>
