<?xml version="1.0" encoding="utf-8"?>
<!-- Generator: Adobe Illustrator 23.0.2, SVG Export Plug-In . SVG Version: 6.00 Build 0)  -->
<svg version="1.1" id="Layer_1" xmlns="http://www.w3.org/2000/svg" xmlns:xlink="http://www.w3.org/1999/xlink" x="0px" y="0px"
	 viewBox="0 0 500 400" style="enable-background:new 0 0 500 400;" xml:space="preserve">
<style type="text/css">
	.st0{fill:none;stroke:#088E4B;stroke-width:5;stroke-miterlimit:10;}
	.st1{fill:#088E4B;}
	.st2{fill:none;}
	.st3{fill:#F9A41A;}
	.st4{fill:#E32228;}
	.st5{fill:#FAFAFA;}
	.st6{fill:#455A64;}
</style>
<g>
	<g>
		<g>
			<path class="st0" d="M271.1,215.4c-12.8,22.2-34.1,39.4-60.9,46.4c-52.9,13.7-107-18-120.7-71s18-107,71-120.7
				c42.9-11.1,86.5,7.6,108.8,43.2"/>
			<g>
				<path class="st1" d="M279.3,138.4c-9.4-9.6-23.1-20.6-34.9-26.1l22.4-1.7L283,95C279.3,107.5,278.4,125,279.3,138.4z"/>
			</g>
		</g>
	</g>
	<g>
		<path class="st2" d="M271.1,255.4"/>
	</g>
	<g>
		<path class="st2" d="M281.2,181.1"/>
	</g>
	<g>
		<g>
			<path class="st3" d="M208.8,209.7c0-3.8-3.1-7-7-7H160c-3.8,0-7,3.1-7,7s3.1,7,7,7h41.8C205.7,216.7,208.8,213.5,208.8,209.7z"/>
			<path class="st3" d="M201.8,230.6H174c-3.8,0-7,3.1-7,7s3.1,7,7,7h27.9c3.8,0,7-3.1,7-7S205.7,230.6,201.8,230.6z"/>
			<path class="st3" d="M201.8,258.5h-13.9c-3.8,0-7,3.1-7,7c0,3.8,3.1,7,7,7h13.9c3.8,0,7-3.1,7-7S205.7,258.5,201.8,258.5z"/>
		</g>
		<path class="st4" d="M375,254.9L354.1,220c-1.3-2.1-3.5-3.4-6-3.4h-48.8c-3.8,0-7,3.1-7,7v69.7c0,3.8,3.1,7,7,7H369
			c3.8,0,7-3.1,7-7v-34.8C376,257.2,375.7,256,375,254.9z"/>
		<polygon class="st5" points="320.3,230.6 344.2,230.6 360.9,258.5 320.3,258.5 		"/>
		<path class="st3" d="M299.4,188.8h-97.5c-3.8,0-7,3.1-7,7v97.5c0,3.8,3.1,7,7,7h104.5V195.8C306.4,191.9,303.2,188.8,299.4,188.8z
			"/>
		<circle class="st5" cx="341.2" cy="293.3" r="13.9"/>
		<path class="st6" d="M341.2,314.2c-11.5,0-20.9-9.4-20.9-20.9s9.4-20.9,20.9-20.9s20.9,9.4,20.9,20.9S352.7,314.2,341.2,314.2z
			 M341.2,286.3c-3.8,0-7,3.1-7,7s3.1,7,7,7s7-3.1,7-7S345,286.3,341.2,286.3z"/>
		<path class="st4" d="M306.4,300.3H201.8c-3.8,0-7-3.1-7-7v-20.9h111.5v27.9H306.4z"/>
		<circle class="st5" cx="243.6" cy="293.3" r="13.9"/>
		<path class="st6" d="M243.6,314.2c-11.5,0-20.9-9.4-20.9-20.9s9.4-20.9,20.9-20.9s20.9,9.4,20.9,20.9S255.2,314.2,243.6,314.2z
			 M243.6,286.3c-3.8,0-7,3.1-7,7s3.1,7,7,7s7-3.1,7-7S247.5,286.3,243.6,286.3z"/>
	</g>
	<g>
		<path d="M122.5,117.1h13.4l-0.9,4.7h-7.9l-0.8,4.1h7.5l-0.9,4.6h-7.4l-1.5,8.3h-5.5L122.5,117.1z"/>
		<path d="M139.5,117.5c1.5-0.4,3.9-0.6,6.3-0.6c2,0,4.2,0.2,5.9,1.1c1.5,0.8,2.7,2.3,2.7,4.5c0,3.2-2,5.1-4.8,6v0.1
			c1.2,0.6,1.7,1.9,1.9,3.8c0.3,2.2,0.5,5.3,0.9,6.2h-5.6c-0.2-0.6-0.4-2.3-0.7-5.1c-0.2-2.5-1-3.1-2.7-3.1h-1l-1.5,8.2h-5.4
			L139.5,117.5z M143.2,126.5h1.7c2.2,0,3.8-1.2,3.8-3.1c0-1.5-1.3-2.2-2.9-2.2c-0.8,0-1.3,0-1.6,0.1L143.2,126.5z"/>
		<path d="M169.7,130h-7.6l-0.8,4.1h8.6l-0.9,4.7h-14l4.1-21.6h13.6l-0.9,4.7h-8.1l-0.7,3.6h7.7L169.7,130z"/>
		<path d="M187,130h-7.6l-0.8,4.1h8.6l-0.9,4.7h-14l4.1-21.6H190l-0.9,4.7H181l-0.7,3.6h7.7L187,130z"/>
		<path d="M119.6,171.6c1.3,0.7,3.2,1.3,5.3,1.3c1.5,0,2.9-0.5,2.9-1.8c0-1.1-1-1.7-2.8-2.7c-2.1-1.1-4.6-2.8-4.6-5.8
			c0-4.6,4-7.3,9.1-7.3c2.9,0,4.4,0.5,5.4,1l-1.7,4.6c-0.7-0.4-2.3-1-4.1-0.9c-1.9,0-2.9,0.8-2.9,1.7c0,1,1.4,1.7,3.1,2.6
			c2.6,1.3,4.4,3.1,4.4,5.7c0,5.3-4.5,7.5-9.2,7.5c-3.4-0.1-5.6-0.8-6.6-1.6L119.6,171.6z"/>
		<path d="M141.8,172.2l-2.2,5.1h-5.9l10.3-21.6h7.2l2.3,21.6h-5.8l-0.3-5.1H141.8z M147.3,168.1l-0.3-4c-0.1-1.2-0.2-3-0.3-4.4
			h-0.1c-0.5,1.3-1.2,3.2-1.7,4.4l-1.6,3.9h4L147.3,168.1L147.3,168.1z"/>
		<path d="M173.7,177.3l1.2-7.7c0.4-2.5,0.9-5.4,1.5-8.9h-0.1c-1.3,3.1-2.7,6.2-3.9,8.7l-3.6,7.5h-4.3l-0.4-7.5
			c-0.1-2.3-0.3-5.5-0.4-8.7h-0.1c-0.7,3.2-1.3,6.5-1.9,8.9l-1.8,7.7h-5l5.4-21.6h7.4l0.3,6.4c0.1,2.1,0.3,4.8,0.3,7.5h0.1
			c1-2.8,2.2-5.6,3.1-7.5l2.9-6.4h7.5l-3,21.6H173.7z"/>
		<path d="M197.3,168.6h-7.6l-0.8,4.1h8.6l-0.9,4.7h-14l4.1-21.6h13.6l-0.9,4.7h-8.1l-0.7,3.6h7.7L197.3,168.6z"/>
		<path d="M209.9,156c2-0.3,4.1-0.5,6.3-0.5c3.3,0,5.9,0.6,7.9,2.1s3.2,3.8,3.2,7.2c0,4.3-1.8,7.8-4.5,9.9c-2.5,2-5.7,2.8-10.6,2.8
			c-2.9,0-5.3-0.3-6.2-0.5L209.9,156z M212.2,172.9c0.4,0.1,0.9,0.1,1.7,0.1c2.1,0,4.2-0.8,5.5-2.3s1.9-3.5,1.9-5.9
			c0-3.2-1.9-4.9-5-4.9c-0.7,0-1.2,0-1.5,0.1L212.2,172.9z"/>
		<path d="M234.2,172.2l-2.2,5.1h-5.9l10.3-21.6h7.2l2.3,21.6h-5.8l-0.3-5.1H234.2z M239.7,168.1l-0.3-4c-0.1-1.2-0.2-3-0.3-4.4H239
			c-0.5,1.3-1.2,3.2-1.7,4.4l-1.6,3.9h4V168.1z"/>
		<path d="M250.1,177.3l1.7-8.7l-4.3-12.9h5.9l1.1,4.8c0.4,1.8,0.6,2.8,0.8,4h0.1c0.7-1.3,1.3-2.5,2.2-4l2.7-4.8h6.5l-9.4,12.7
			l-1.7,8.9H250.1z"/>
		<path d="M274.9,156c2-0.3,4.1-0.5,6.3-0.5c3.3,0,5.9,0.6,7.9,2.1s3.2,3.8,3.2,7.2c0,4.3-1.8,7.8-4.5,9.9c-2.5,2-5.7,2.8-10.6,2.8
			c-2.9,0-5.3-0.3-6.2-0.5L274.9,156z M277.2,172.9c0.4,0.1,0.9,0.1,1.7,0.1c2.1,0,4.2-0.8,5.5-2.3s1.9-3.5,1.9-5.9
			c0-3.2-1.9-4.9-5-4.9c-0.7,0-1.2,0-1.5,0.1L277.2,172.9z"/>
		<path d="M308,168.6h-7.6l-0.8,4.1h8.6l-0.9,4.7h-14l4.1-21.6H311l-0.9,4.7H302l-0.7,3.6h7.7L308,168.6z"/>
		<path d="M314.6,155.6h5.5l-3.2,16.9h8.2l-0.9,4.8h-13.6L314.6,155.6z"/>
		<path d="M336.2,155.6l-4.1,21.6h-5.5l4.1-21.6H336.2z"/>
		<path d="M340.9,177.3l-2.7-21.6h5.7l0.7,8.8c0.2,2.3,0.4,4.8,0.5,7.4h0.1c0.9-2.4,2.1-5.1,3.1-7.3l4-8.9h6.1l-11.1,21.6H340.9z"/>
		<path d="M371.5,168.6h-7.6l-0.8,4.1h8.6l-0.9,4.7h-14l4.1-21.6h13.6l-0.9,4.7h-8.1l-0.7,3.6h7.7L371.5,168.6z"/>
		<path d="M378.2,156.1c1.5-0.4,3.9-0.6,6.3-0.6c2,0,4.2,0.2,5.9,1.1c1.5,0.8,2.7,2.3,2.7,4.5c0,3.2-2,5.1-4.8,6v0.1
			c1.2,0.6,1.7,1.9,1.9,3.8c0.3,2.2,0.5,5.3,0.9,6.2h-5.6c-0.2-0.6-0.4-2.3-0.7-5.1c-0.2-2.5-1-3.1-2.7-3.1h-1l-1.5,8.2h-5.4
			L378.2,156.1z M381.8,165.1h1.7c2.2,0,3.8-1.2,3.8-3.1c0-1.5-1.3-2.2-2.9-2.2c-0.8,0-1.3,0-1.6,0.1L381.8,165.1z"/>
		<path d="M397.1,177.3l1.7-8.7l-4.3-12.9h5.9l1.1,4.8c0.4,1.8,0.6,2.8,0.8,4h0.1c0.7-1.3,1.3-2.5,2.2-4l2.7-4.8h6.5l-9.4,12.7
			l-1.7,8.9H397.1z"/>
	</g>
</g>
</svg>
